<svg width="70" height="98" viewBox="0 0 70 98" fill="none" xmlns="http://www.w3.org/2000/svg">
<path d="M17.1302 85.15C16.9102 85.43 16.7302 85.68 16.5302 85.92C14.4602 88.41 12.3802 90.92 10.3202 93.38C9.60023 94.25 8.92023 95.15 8.20023 96.01C7.77023 96.53 7.31023 97.01 6.84023 97.51C6.75016 97.6183 6.62431 97.6909 6.48542 97.7145C6.34654 97.7381 6.20378 97.7112 6.08298 97.6387C5.96217 97.5663 5.87129 97.4529 5.82677 97.3193C5.78225 97.1856 5.78702 97.0404 5.84023 96.91C5.98487 96.504 6.17971 96.1177 6.42023 95.76C7.51775 94.1354 8.7133 92.5791 10.0002 91.1C11.6102 89.2 13.1502 87.24 14.7202 85.31C14.8002 85.21 14.8602 85.11 14.9702 84.95C14.8273 84.9356 14.6832 84.9356 14.5402 84.95C13.3583 85.0668 12.1656 85.0095 11.0002 84.78C10.4702 84.71 9.94023 84.6 9.41023 84.51C9.20805 84.4698 9.0104 84.4095 8.82023 84.33C8.67432 84.2825 8.5428 84.1989 8.43788 84.0869C8.33297 83.9749 8.25807 83.8383 8.22015 83.6896C8.18223 83.5409 8.18253 83.385 8.221 83.2365C8.25948 83.088 8.33489 82.9516 8.44023 82.84C8.60023 82.64 8.79023 82.47 9.01023 82.24C8.52023 81.89 8.08023 81.56 7.63023 81.24C7.18023 80.92 6.70023 80.64 6.24023 80.32C5.46023 79.79 5.37023 79.44 5.81023 78.44C5.63864 78.3317 5.4749 78.2114 5.32023 78.08C4.47023 77.21 3.64023 76.33 2.81023 75.44C2.59235 75.2172 2.39799 74.9726 2.23023 74.71C2.14223 74.5781 2.08687 74.4271 2.06871 74.2696C2.05056 74.112 2.07013 73.9524 2.12581 73.804C2.18149 73.6555 2.27168 73.5224 2.38895 73.4156C2.50621 73.3089 2.64718 73.2315 2.80023 73.19L3.40023 73.02C3.32428 72.8757 3.24083 72.7355 3.15023 72.6L1.25023 69.75C1.10742 69.531 0.983639 69.3001 0.880227 69.06C0.814903 68.9231 0.781568 68.7732 0.782745 68.6215C0.783922 68.4699 0.81958 68.3205 0.887021 68.1846C0.954461 68.0488 1.05192 67.93 1.17202 67.8374C1.29211 67.7448 1.4317 67.6807 1.58023 67.65C1.94938 67.5816 2.32544 67.5581 2.70023 67.58C3.05023 67.58 3.39023 67.58 3.79023 67.64C3.79023 67.29 3.72023 67 3.72023 66.72C3.67356 64.78 3.63356 62.84 3.60023 60.9C3.59162 60.71 3.61875 60.52 3.68023 60.34C3.71193 60.2271 3.76641 60.1218 3.84031 60.0307C3.91421 59.9396 4.00597 59.8646 4.10994 59.8102C4.21391 59.7559 4.3279 59.7234 4.44489 59.7148C4.56188 59.7061 4.6794 59.7215 4.79023 59.76C4.944 59.8061 5.09436 59.8629 5.24023 59.93C5.24023 59.32 5.33023 58.74 5.35023 58.16C5.38533 56.4298 5.55248 54.7048 5.85023 53C5.88621 52.7622 5.95346 52.5302 6.05023 52.31C6.10482 52.1715 6.19293 52.0487 6.30664 51.9526C6.42036 51.8565 6.55613 51.7901 6.70181 51.7594C6.84748 51.7287 6.9985 51.7346 7.14133 51.7766C7.28416 51.8186 7.41435 51.8953 7.52023 52C7.80275 52.2861 8.06663 52.5901 8.31023 52.91C8.39023 52.22 8.43023 51.56 8.55023 50.91C8.84023 49.46 9.16023 48 9.50023 46.55C9.52941 46.3683 9.61959 46.202 9.75591 46.0784C9.89222 45.9548 10.0666 45.8813 10.2502 45.87C10.435 45.8662 10.616 45.9227 10.7657 46.031C10.9155 46.1392 11.0259 46.2934 11.0802 46.47C11.2527 46.961 11.4531 47.4418 11.6802 47.91C11.8802 47.17 12.0602 46.41 12.2802 45.67C12.6602 44.41 13.0602 43.16 13.4502 41.9C13.5002 41.76 13.5602 41.61 13.6202 41.47C13.6787 41.2947 13.7886 41.1411 13.9357 41.0292C14.0827 40.9172 14.26 40.8522 14.4446 40.8425C14.6291 40.8328 14.8123 40.8788 14.9703 40.9747C15.1282 41.0706 15.2537 41.2118 15.3302 41.38C15.3902 41.48 15.4402 41.59 15.5402 41.76C15.6202 41.56 15.6802 41.43 15.7302 41.29C16.6433 38.9199 17.7365 36.6232 19.0002 34.42C19.071 34.2318 19.2009 34.0716 19.3703 33.9635C19.5398 33.8553 19.7397 33.805 19.9402 33.82C20.1381 33.8455 20.3238 33.9296 20.4735 34.0614C20.6232 34.1933 20.73 34.3669 20.7802 34.56C20.9102 34.94 20.9902 35.33 21.0902 35.71C21.1902 36.09 21.2002 36.21 21.2802 36.57C21.4002 36.37 21.4702 36.27 21.5202 36.16L23.6002 31.7C23.6848 31.5106 23.7817 31.3268 23.8902 31.15C23.9592 31.0085 24.0666 30.8893 24.2001 30.8058C24.3336 30.7224 24.4878 30.6782 24.6452 30.6782C24.8026 30.6782 24.9569 30.7224 25.0904 30.8058C25.2239 30.8893 25.3312 31.0085 25.4002 31.15C25.5677 31.4738 25.7146 31.8078 25.8402 32.15L26.0802 31.63C26.5402 30.57 26.9702 29.49 27.4702 28.45C27.8802 27.57 28.3702 26.73 28.8302 25.88C28.9043 25.6939 29.0326 25.5344 29.1984 25.4221C29.3642 25.3098 29.5599 25.2498 29.7602 25.25C29.9705 25.2704 30.1689 25.3569 30.327 25.497C30.4851 25.6371 30.5947 25.8237 30.6402 26.03C30.7802 26.44 30.9002 26.86 31.0302 27.27C31.0902 27.46 31.1602 27.66 31.2502 27.96L31.4902 27.4C32.2435 25.4421 33.1357 23.5406 34.1602 21.71C34.2305 21.572 34.3142 21.4414 34.4102 21.32C34.4917 21.2064 34.599 21.1139 34.7234 21.0501C34.8477 20.9863 34.9855 20.953 35.1252 20.953C35.265 20.953 35.4027 20.9863 35.5271 21.0501C35.6514 21.1139 35.7588 21.2064 35.8402 21.32C36.0337 21.5634 36.1982 21.8285 36.3302 22.11C36.5202 22.45 36.6802 22.79 36.8502 23.11C36.8502 23.11 36.8502 23.16 36.9602 23.23C36.9602 23.08 37.0702 22.95 37.1102 22.81C37.591 20.9313 38.3208 19.1253 39.2802 17.44C39.3353 17.3319 39.3989 17.2282 39.4702 17.13C39.5407 16.9911 39.6467 16.8734 39.7775 16.7889C39.9083 16.7044 40.0592 16.6561 40.2148 16.649C40.3704 16.6419 40.5251 16.6762 40.6631 16.7484C40.801 16.8206 40.9174 16.9281 41.0002 17.06C41.1885 17.3282 41.3525 17.6127 41.4902 17.91C41.9002 18.73 42.3002 19.56 42.7102 20.38C42.7902 20.55 42.8902 20.71 42.9902 20.9C43.0321 20.8654 43.0722 20.8287 43.1102 20.79C44.3187 18.1399 45.8001 15.623 47.5302 13.28C47.8202 12.85 48.1302 12.43 48.4502 12.03C48.5366 11.8377 48.6814 11.6777 48.8642 11.5727C49.0469 11.4677 49.2581 11.423 49.4677 11.4452C49.6773 11.4674 49.8745 11.5552 50.0312 11.6962C50.1879 11.8371 50.296 12.0239 50.3402 12.23C50.7102 13.05 50.9702 13.92 51.2802 14.76C51.3602 15.01 51.4302 15.26 51.5502 15.62C51.7102 15.35 51.8302 15.17 51.9302 14.98C53.2382 12.5375 54.7291 10.1975 56.3902 7.98C56.6085 7.66675 56.8527 7.37238 57.1202 7.1C57.237 6.93833 57.3925 6.8086 57.5725 6.72272C57.7525 6.63684 57.9512 6.59758 58.1503 6.60853C58.3494 6.61948 58.5426 6.6803 58.7121 6.7854C58.8815 6.89049 59.0219 7.0365 59.1202 7.21C59.3902 7.56 59.6002 7.96 59.8602 8.38C59.9602 8.25 60.0602 8.14 60.1502 8.01C60.6502 7.25 61.1502 6.5 61.6602 5.71C62.6756 4.0614 63.9329 2.57479 65.3902 1.3C65.8268 0.898889 66.3185 0.56216 66.8502 0.299996C67.0886 0.147893 67.3654 0.0667805 67.6482 0.0661355C67.931 0.0654905 68.2082 0.14534 68.4473 0.296353C68.6864 0.447367 68.8776 0.663308 68.9985 0.918944C69.1194 1.17458 69.1651 1.45936 69.1302 1.74C69.1382 2.36916 69.0947 2.99792 69.0002 3.62C68.6485 6.33966 67.7396 8.95753 66.3302 11.31C66.0897 11.731 65.8727 12.165 65.6802 12.61C65.6506 12.701 65.6305 12.7948 65.6202 12.89L67.0802 12.72C67.4122 12.6816 67.746 12.6616 68.0802 12.66C68.2346 12.6364 68.3924 12.6529 68.5385 12.7079C68.6846 12.7629 68.8141 12.8546 68.9145 12.9741C69.0149 13.0936 69.0829 13.237 69.112 13.3904C69.141 13.5438 69.1301 13.702 69.0802 13.85C68.8925 14.6232 68.6587 15.3846 68.3802 16.13C67.2912 18.7719 65.9518 21.3034 64.3802 23.69C64.0502 24.23 63.6402 24.69 63.1902 25.35L64.6002 25C65.0802 24.86 65.6002 24.7 66.0402 24.59C67.1002 24.36 67.7802 24.98 67.5502 26.04C67.1861 28.0049 66.394 29.8655 65.2302 31.49C64.7702 32.1 64.3002 32.69 63.7902 33.36H64.3502C65.3502 33.36 66.2602 33.36 67.2102 33.36C67.3832 33.3452 67.557 33.3757 67.7146 33.4485C67.8722 33.5213 68.0081 33.6339 68.109 33.7751C68.2099 33.9164 68.2723 34.0815 68.2901 34.2542C68.3078 34.4268 68.2803 34.6012 68.2102 34.76C68.0615 35.1674 67.8669 35.5566 67.6302 35.92C66.3888 37.897 64.7838 39.6208 62.9002 41L62.4802 41.32L62.3602 41.46H63.6002C64.0702 41.46 64.5402 41.46 65.0002 41.46C65.1691 41.4639 65.3347 41.5074 65.4837 41.5869C65.6327 41.6664 65.761 41.7798 65.8583 41.9179C65.9555 42.056 66.019 42.2149 66.0437 42.382C66.0683 42.5491 66.0534 42.7197 66.0002 42.88C65.9522 43.1541 65.8575 43.4179 65.7202 43.66C64.6094 45.7785 63.1981 47.7253 61.5302 49.44C61.1502 49.81 60.7402 50.14 60.2602 50.56C60.5102 50.56 60.6802 50.62 60.8402 50.62H63.2302C63.4032 50.6049 63.5772 50.6049 63.7502 50.62C63.8948 50.6267 64.0358 50.6668 64.1623 50.7369C64.2888 50.8071 64.3975 50.9055 64.4797 51.0246C64.562 51.1436 64.6156 51.28 64.6365 51.4232C64.6574 51.5664 64.645 51.7124 64.6002 51.85C64.5129 52.1956 64.3889 52.5308 64.2302 52.85C63.1531 55.1645 61.5791 57.2131 59.6202 58.85L59.3802 59.08H59.8202L62.0402 58.83H62.4502C62.6164 58.8094 62.7851 58.8351 62.9376 58.9043C63.0902 58.9734 63.2207 59.0833 63.3148 59.2219C63.4089 59.3604 63.4629 59.5222 63.4709 59.6895C63.4789 59.8568 63.4406 60.0231 63.3602 60.17C63.0785 60.7339 62.7436 61.2696 62.3602 61.77C61.2285 63.3373 59.882 64.7377 58.3602 65.93C58.249 66.0114 58.1681 66.1275 58.1302 66.26C58.9702 66.19 59.8102 66.15 60.6402 66.06C61.1102 66.06 61.5702 65.94 61.8602 66.4C62.1502 66.86 61.8602 67.26 61.6002 67.63C59.8475 70.008 57.5989 71.9768 55.0102 73.4L54.5402 73.69V73.81C54.919 73.8984 55.3032 73.9619 55.6902 74C56.4102 74.05 57.1402 74.07 57.8602 74.09C58.5802 74.11 59.0902 74.78 58.6402 75.48C58.3541 75.9292 58.0186 76.3451 57.6402 76.72C56.1391 78.2119 54.3939 79.4362 52.4802 80.34L52.1502 80.5C52.6781 80.8758 53.2953 81.1068 53.9402 81.17C54.1802 81.17 54.4202 81.23 54.6602 81.28C54.8178 81.2935 54.9668 81.3571 55.0856 81.4614C55.2044 81.5658 55.2866 81.7055 55.3202 81.86C55.3558 82.0125 55.3464 82.1721 55.2932 82.3194C55.2399 82.4667 55.1451 82.5955 55.0202 82.69L54.6302 82.95C52.598 84.1947 50.3483 85.043 48.0002 85.45C47.7813 85.4886 47.5733 85.5739 47.3902 85.7C47.7402 85.86 48.1002 86.02 48.4602 86.16C48.8202 86.3 49.1702 86.42 49.5302 86.55C49.8902 86.68 50.1802 86.81 50.2602 87.21C50.2993 87.4028 50.2769 87.603 50.1962 87.7824C50.1154 87.9618 49.9804 88.1114 49.8102 88.21C49.0541 88.8253 48.1792 89.2781 47.2402 89.54C46.2402 89.79 45.2402 89.96 44.2402 90.15L43.5502 90.27C43.6802 90.47 43.7702 90.63 43.8802 90.77C44.1602 91.1 44.4602 91.41 44.7302 91.77C44.8305 91.8669 44.9033 91.9886 44.9414 92.1227C44.9794 92.2569 44.9812 92.3987 44.9467 92.5338C44.9121 92.6689 44.8425 92.7924 44.7447 92.8919C44.647 92.9913 44.5247 93.0631 44.3902 93.1C44.0658 93.2071 43.7303 93.2775 43.3902 93.31C41.4681 93.5884 39.514 93.5614 37.6002 93.23L37.0902 93.18C37.1089 93.3048 37.146 93.4261 37.2002 93.54C37.5202 94.01 37.8302 94.54 38.2002 94.94C38.334 95.0651 38.4308 95.2245 38.4802 95.4008C38.5296 95.5771 38.5296 95.7637 38.4802 95.94C38.409 96.1202 38.2826 96.2733 38.1192 96.3774C37.9558 96.4816 37.7637 96.5315 37.5702 96.52C37.106 96.5399 36.641 96.5199 36.1802 96.46C35.0054 96.3602 33.8559 96.0627 32.7802 95.58C32.3702 95.37 31.9802 95.11 31.5202 94.84C31.559 94.993 31.5522 95.1541 31.5007 95.3033C31.4492 95.4526 31.3552 95.5835 31.2302 95.68C30.9703 95.8214 30.6659 95.8573 30.3802 95.78C29.2637 95.5335 28.1797 95.1576 27.1502 94.66C25.2906 93.8579 23.5954 92.7188 22.1502 91.3C21.6502 90.84 21.1502 90.43 20.6302 89.96C19.3581 88.7066 18.2797 87.2709 17.4302 85.7C17.3302 85.53 17.2502 85.36 17.1302 85.15ZM19.2802 82.15H19.6702C21.4702 81.65 23.2802 81.15 25.0702 80.66C26.9052 79.9865 28.6702 79.1358 30.3402 78.12C32.0181 77.2271 33.5826 76.136 35.0002 74.87C36.2502 73.77 37.5102 72.69 38.7702 71.61C40.8469 69.8502 42.7248 67.8684 44.3702 65.7C47.5302 61.49 50.7502 57.32 54.2002 53.35C54.31 53.1922 54.4452 53.0536 54.6002 52.94C54.6669 52.8919 54.7477 52.8675 54.8299 52.8704C54.912 52.8734 54.9908 52.9036 55.0539 52.9564C55.1169 53.0091 55.1606 53.0813 55.1781 53.1617C55.1955 53.242 55.1857 53.3259 55.1502 53.4C55.0911 53.544 55.0064 53.6761 54.9002 53.79C52.0602 57.59 49.1902 61.37 46.4002 65.2C44.6498 67.7361 42.6388 70.0822 40.4002 72.2C39.1702 73.32 37.9002 74.4 36.6902 75.53C34.8772 77.1993 32.8613 78.6339 30.6902 79.8C28.4517 81.1174 26.0329 82.1011 23.5102 82.72C23.3824 82.7621 23.2585 82.8157 23.1402 82.88C24.362 83.5935 25.6933 84.1003 27.0802 84.38C28.3602 84.57 29.6602 84.63 30.9602 84.74C32.6519 84.8888 34.3556 84.8216 36.0302 84.54C38.2228 84.2423 40.3802 83.7264 42.4702 83C42.5168 82.9757 42.5678 82.9607 42.6202 82.9561C42.6725 82.9515 42.7253 82.9572 42.7755 82.973C42.8256 82.9888 42.8722 83.0143 42.9125 83.0481C42.9527 83.0819 42.986 83.1233 43.0102 83.17C43.0377 83.2145 43.0553 83.2644 43.0621 83.3163C43.0688 83.3682 43.0645 83.4209 43.0494 83.471C43.0343 83.5211 43.0087 83.5674 42.9744 83.6068C42.94 83.6463 42.8977 83.6781 42.8502 83.7C42.5384 83.9065 42.2026 84.0744 41.8502 84.2C40.7902 84.54 39.7302 84.85 38.6702 85.2C38.1302 85.36 37.5802 85.47 36.9902 85.62L37.1402 85.69L42.1402 86.8C42.2268 86.8046 42.3136 86.8046 42.4002 86.8C42.6302 86.8 42.8402 86.89 42.8302 87.15C42.8202 87.41 42.5802 87.45 42.3702 87.46C42.0774 87.485 41.783 87.485 41.4902 87.46C40.4902 87.32 39.4902 87.17 38.4902 87C37.438 86.8505 36.4216 86.5117 35.4902 86C35.3889 85.9368 35.2683 85.912 35.1502 85.93C33.5401 86.1171 31.9151 86.1405 30.3002 86C29.2102 85.91 28.1202 85.88 27.0402 85.73C25.2575 85.4471 23.5541 84.793 22.0402 83.81C21.8207 83.6474 21.5659 83.539 21.2965 83.4938C21.027 83.4486 20.7508 83.4679 20.4902 83.55C20.1191 83.6407 19.7412 83.7009 19.3602 83.73L18.7002 83.82C18.7711 84.2393 18.944 84.6347 19.2039 84.9713C19.4638 85.3079 19.8025 85.5753 20.1902 85.75C20.6602 85.93 21.1102 86.17 21.5802 86.34C22.7702 86.79 24.0002 87.18 25.1802 87.68C27.3639 88.6039 29.6553 89.2489 32.0002 89.6C32.3202 89.65 32.6502 89.66 33.0002 89.71C33.3502 89.76 33.4202 89.89 33.3602 90.12C33.3287 90.203 33.2804 90.2786 33.2185 90.3423C33.1566 90.4059 33.0823 90.4562 33.0002 90.49C32.8529 90.5424 32.6954 90.5595 32.5402 90.54C30.4428 90.5074 28.3675 90.1046 26.4102 89.35L21.1202 87.4C21.0127 87.3661 20.9022 87.3427 20.7902 87.33C20.9116 87.6407 21.0954 87.9231 21.3302 88.16C22.3302 89.16 23.3302 90.1 24.3302 91.09C25.7355 92.392 27.3789 93.4107 29.1702 94.09C29.2531 94.1018 29.3373 94.1018 29.4202 94.09C29.3502 93.88 29.2902 93.72 29.2502 93.56C29.1057 93.1 28.9855 92.6327 28.8902 92.16C28.8594 92.0735 28.8467 91.9815 28.8529 91.8899C28.8591 91.7982 28.884 91.7088 28.9262 91.6272C28.9684 91.5456 29.027 91.4736 29.0982 91.4156C29.1694 91.3576 29.2518 91.3148 29.3402 91.29C29.6702 91.19 29.9502 91.29 30.2002 91.71C30.2985 91.8672 30.4199 92.0088 30.5602 92.13C31.4202 92.71 32.2902 93.28 33.1702 93.84C34.0764 94.3393 35.072 94.6553 36.1002 94.77C35.9502 94.51 35.8502 94.36 35.7502 94.2C35.3767 93.6446 35.1214 93.0183 35.0002 92.36C34.9785 92.2167 34.9881 92.0703 35.0286 91.9311C35.069 91.7919 35.1392 91.6631 35.2343 91.5537C35.3294 91.4444 35.4472 91.357 35.5794 91.2976C35.7117 91.2382 35.8553 91.2083 36.0002 91.21C36.2262 91.2058 36.4516 91.2327 36.6702 91.29C38.4024 91.7244 40.1848 91.9262 41.9702 91.89C42.2502 91.89 42.5302 91.89 42.8902 91.83C42.7674 91.6874 42.6538 91.5371 42.5502 91.38C42.2547 90.9445 42.0002 90.4826 41.7902 90C41.7438 89.8766 41.7261 89.7443 41.7383 89.6131C41.7505 89.4818 41.7924 89.3551 41.8608 89.2424C41.9292 89.1297 42.0222 89.034 42.133 88.9626C42.2438 88.8911 42.3694 88.8458 42.5002 88.83C42.7342 88.7755 42.9713 88.7354 43.2102 88.71C44.2102 88.57 45.1402 88.46 46.0902 88.29C46.7653 88.1623 47.4121 87.9151 48.0002 87.56L47.3602 87.29C46.7232 87.0581 46.1506 86.6776 45.6902 86.18C44.9902 85.35 45.2402 84.53 46.2802 84.27C46.8002 84.14 47.3302 84.05 47.8602 83.94C49.345 83.6955 50.7866 83.2374 52.1402 82.58L52.5002 82.36C51.9202 81.99 51.3402 81.68 50.8202 81.29C50.4931 81.0329 50.2124 80.7217 49.9902 80.37C49.9163 80.2823 49.8669 80.1765 49.8471 80.0636C49.8272 79.9506 49.8376 79.8343 49.8772 79.7267C49.9169 79.619 49.9842 79.5238 50.0726 79.4506C50.1609 79.3774 50.2671 79.3289 50.3802 79.31C51.0954 78.9677 51.8568 78.7319 52.6402 78.61C52.7102 78.61 52.7902 78.54 52.8702 78.49C54.1193 77.7456 55.2859 76.8707 56.3502 75.88C56.4202 75.81 56.4702 75.71 56.5502 75.61C56.0002 75.61 55.5502 75.54 55.0002 75.46C54.2847 75.3973 53.6197 75.0648 53.1402 74.53C52.9924 74.3964 52.8796 74.2286 52.8116 74.0414C52.7436 73.8541 52.7225 73.6531 52.7501 73.4558C52.7777 73.2585 52.8532 73.0709 52.97 72.9096C53.0869 72.7482 53.2414 72.6179 53.4202 72.53C53.9302 72.19 54.4802 71.88 55.0102 71.53C56.604 70.5836 58.0524 69.4115 59.3102 68.05L59.7502 67.51L58.7502 67.56C57.9206 67.6402 57.0839 67.5202 56.3102 67.21C56.2092 67.1832 56.1163 67.1321 56.0395 67.0611C55.9628 66.9901 55.9046 66.9014 55.8701 66.8028C55.8356 66.7041 55.8258 66.5985 55.8415 66.4952C55.8572 66.3918 55.8979 66.2939 55.9602 66.21C56.1354 65.9717 56.333 65.7507 56.5502 65.55C57.2402 64.89 57.9302 64.23 58.6402 63.55C59.5779 62.6779 60.4286 61.7167 61.1802 60.68C61.2285 60.6058 61.2656 60.525 61.2902 60.44C61.1302 60.44 61.0102 60.44 60.8902 60.44C60.3597 60.5131 59.8256 60.5565 59.2902 60.57C58.7389 60.5877 58.1877 60.5339 57.6502 60.41C57.5083 60.3715 57.3778 60.2991 57.27 60.1991C57.1621 60.0992 57.0801 59.9745 57.031 59.8359C56.9818 59.6973 56.967 59.5489 56.9878 59.4033C57.0085 59.2577 57.0643 59.1193 57.1502 59C57.3032 58.8104 57.4777 58.6393 57.6702 58.49C59.6993 56.9116 61.3667 54.9168 62.5602 52.64C62.6202 52.52 62.6602 52.4 62.7302 52.23C62.1573 52.2602 61.5832 52.2602 61.0102 52.23C60.3774 52.1631 59.7495 52.0562 59.1302 51.91C58.8442 51.7961 58.5304 51.7717 58.2302 51.84C58.1342 51.8721 58.0316 51.8789 57.9322 51.8599C57.8328 51.8408 57.74 51.7965 57.6627 51.7312C57.5853 51.666 57.5261 51.5819 57.4907 51.4871C57.4552 51.3923 57.4447 51.29 57.4602 51.19C57.4602 51.04 57.4602 50.88 57.4602 50.73C57.4602 50.21 57.6602 49.95 58.1802 49.93C58.4018 49.9173 58.6114 49.825 58.7702 49.67C60.8588 47.8426 62.6533 45.7042 64.0902 43.33C64.0902 43.23 64.1702 43.12 64.2302 42.99H63.2302C62.8972 43.0085 62.5633 43.0085 62.2302 42.99C61.7489 42.9546 61.2728 42.8675 60.8102 42.73C60.5893 42.7109 60.381 42.6188 60.2181 42.4684C60.0552 42.318 59.9469 42.1177 59.9103 41.899C59.8737 41.6803 59.9107 41.4556 60.0157 41.2603C60.1207 41.065 60.2876 40.9101 60.4902 40.82C60.7802 40.57 61.0902 40.35 61.4002 40.13C63.3085 38.7981 64.9558 37.1271 66.2602 35.2C66.3298 35.0868 66.3932 34.97 66.4502 34.85C66.3836 34.8451 66.3168 34.8451 66.2502 34.85H62.9302C62.7402 34.85 62.5502 34.85 62.3602 34.85C62.1134 34.8566 61.8694 34.7958 61.6545 34.6743C61.4396 34.5527 61.2618 34.3749 61.1402 34.16C61.0002 33.8 61.1402 33.41 61.6302 33.07C61.6845 33.0267 61.7413 32.9866 61.8002 32.95C62.4904 32.5109 63.0965 31.9522 63.5902 31.3C64.7599 29.8173 65.5833 28.0919 66.0002 26.25C66.0084 26.1669 66.0084 26.0831 66.0002 26L64.8202 26.36C63.9498 26.6535 63.0387 26.8087 62.1202 26.82C61.9248 26.8476 61.7255 26.8168 61.5476 26.7314C61.3696 26.6459 61.2209 26.5098 61.1202 26.34C61.0393 26.1645 61.0171 25.9677 61.0567 25.7786C61.0963 25.5895 61.1957 25.4182 61.3402 25.29C62.8496 23.4321 64.1601 21.4211 65.2502 19.29C66.0709 17.7856 66.7602 16.2131 67.3102 14.59C67.348 14.4417 67.3781 14.2915 67.4002 14.14L65.3302 14.41C65.1413 14.4173 64.9568 14.4691 64.7917 14.5612C64.6266 14.6533 64.4856 14.7831 64.3802 14.94C64.2552 15.1037 64.0731 15.2144 63.8702 15.25C63.8068 15.2686 63.7398 15.2712 63.6752 15.2576C63.6105 15.244 63.5502 15.2146 63.4997 15.172C63.4492 15.1294 63.41 15.075 63.3857 15.0135C63.3613 14.9521 63.3526 14.8856 63.3602 14.82C63.418 14.4289 63.5117 14.0439 63.6402 13.67C63.7502 13.35 63.9502 13.06 64.0702 12.73C64.4827 11.61 64.9808 10.5234 65.5602 9.47999C66.7498 7.18171 67.4319 4.65471 67.5602 2.07C67.5499 1.90112 67.5231 1.73366 67.4802 1.57C67.1128 1.79949 66.7589 2.0499 66.4202 2.32C65.364 3.24734 64.4117 4.28678 63.5802 5.42C62.5802 6.77 61.6402 8.11999 60.6802 9.47999C60.5613 9.6068 60.4694 9.75651 60.4102 9.92C60.3208 10.2537 60.1196 10.5467 59.8402 10.75C59.6102 10.97 59.3802 11.15 59.0702 10.98C58.9537 10.9026 58.8647 10.7902 58.8162 10.659C58.7676 10.5278 58.7621 10.3846 58.8002 10.25C58.8419 10.1063 58.8419 9.9537 58.8002 9.81C58.5602 9.42 58.2802 9.04 57.9902 8.63C57.9001 8.7241 57.8165 8.82434 57.7402 8.93C56.1731 11.0665 54.7178 13.2828 53.3802 15.57C53.0904 16.1414 52.7274 16.6725 52.3002 17.15C52.1806 17.3288 52.0117 17.4689 51.8139 17.5535C51.6162 17.638 51.3981 17.6633 51.1863 17.6262C50.9744 17.5892 50.7779 17.4913 50.6206 17.3447C50.4633 17.198 50.352 17.0088 50.3002 16.8C50.0602 16.22 49.8902 15.62 49.6902 15.03C49.5502 14.61 49.4102 14.19 49.2402 13.7L49.0002 14C47.2602 16.66 45.3202 19.2 44.2002 22.23C44.1553 22.4787 44.0355 22.7078 43.8568 22.8865C43.678 23.0653 43.449 23.1851 43.2002 23.23C42.6102 23.28 42.2902 22.86 42.0502 22.4C41.5202 21.4 41.0502 20.45 40.5002 19.47L40.2802 19.06C40.2309 19.1118 40.1874 19.1688 40.1502 19.23C39.4077 20.7959 38.8409 22.4393 38.4602 24.13C38.3818 24.5722 38.2783 25.0096 38.1502 25.44C38.1087 25.6011 38.0214 25.7467 37.8988 25.8591C37.7763 25.9716 37.6237 26.0461 37.4597 26.0736C37.2957 26.1011 37.1272 26.0804 36.9746 26.0141C36.8221 25.9478 36.692 25.8387 36.6002 25.7C36.4751 25.5332 36.3647 25.3559 36.2702 25.17L35.1902 23.17C35.0802 23.37 34.9802 23.51 34.9102 23.66C34.3102 24.97 33.6802 26.26 33.1202 27.58C32.5717 28.5678 32.2634 29.6709 32.2202 30.8C32.2199 30.9049 32.1916 31.0078 32.1382 31.0981C32.0849 31.1884 32.0084 31.2628 31.9168 31.3138C31.8251 31.3647 31.7215 31.3903 31.6166 31.3878C31.5118 31.3854 31.4095 31.3551 31.3202 31.3C31.0966 31.1718 30.9157 30.9805 30.8002 30.75C30.4302 29.92 30.0902 29.06 29.7402 28.22C29.7402 28.12 29.6502 28.02 29.5702 27.86C29.3902 28.23 29.2302 28.51 29.1002 28.81C28.3802 30.4767 27.6569 32.1433 26.9302 33.81C26.8198 34.0841 26.6929 34.3512 26.5502 34.61C26.4697 34.7665 26.3431 34.8945 26.1875 34.9767C26.032 35.059 25.8549 35.0915 25.6802 35.07C25.5164 35.0497 25.362 34.9822 25.2359 34.8757C25.1099 34.7691 25.0175 34.6281 24.9702 34.47C24.8964 34.2769 24.833 34.0799 24.7802 33.88L24.5802 33.28L24.4102 33.54C23.6602 35 23.0002 36.48 22.2802 38C22.0736 38.4009 21.9769 38.8495 22.0002 39.3C22.0002 39.66 21.6502 40 21.2602 40.04C20.8702 40.08 20.7502 39.89 20.6102 39.5C20.2902 38.57 19.9602 37.65 19.6102 36.71C19.569 36.7565 19.5322 36.8067 19.5002 36.86C18.2879 39.0826 17.319 41.4295 16.6102 43.86C16.5526 44.1114 16.4688 44.356 16.3602 44.59C16.2985 44.745 16.1905 44.8771 16.0509 44.9684C15.9113 45.0597 15.7469 45.1056 15.5802 45.1C15.4144 45.1017 15.2515 45.0554 15.1113 44.9667C14.9712 44.878 14.8597 44.7506 14.7902 44.6C14.7002 44.44 14.6402 44.28 14.5202 44.03C14.4302 44.33 14.3602 44.52 14.3102 44.72C13.8702 46.32 13.4302 47.92 12.9702 49.52C12.8946 49.7873 12.7976 50.0482 12.6802 50.3C12.6058 50.4665 12.4873 50.6095 12.3375 50.7135C12.1876 50.8175 12.0122 50.8785 11.8302 50.89C11.6462 50.8918 11.4661 50.8372 11.3142 50.7335C11.1622 50.6298 11.0456 50.482 10.9802 50.31C10.8502 50.06 10.7402 49.81 10.6202 49.56C10.5702 49.47 10.5002 49.38 10.4202 49.26C9.95082 51.3589 9.77581 53.5129 9.90023 55.66C9.92112 55.884 9.89033 56.1098 9.81023 56.32C9.78938 56.4251 9.74076 56.5227 9.66942 56.6027C9.59808 56.6827 9.50662 56.7421 9.40455 56.7748C9.30248 56.8074 9.19352 56.8121 9.08901 56.7884C8.98449 56.7647 8.88823 56.7135 8.81023 56.64C8.52763 56.4189 8.28424 56.1518 8.09023 55.85C7.83023 55.49 7.64023 55.09 7.37023 54.62C7.31708 54.7764 7.27694 54.937 7.25023 55.1C7.17023 56.25 7.08023 57.41 7.03023 58.57C7.03023 59.41 7.03023 60.26 7.03023 61.11C7.03269 61.3865 6.99907 61.6622 6.93023 61.93C6.9072 62.0593 6.85553 62.1818 6.779 62.2885C6.70246 62.3952 6.60302 62.4835 6.48795 62.5468C6.37288 62.6101 6.2451 62.6468 6.11399 62.6543C5.98287 62.6617 5.85175 62.6398 5.73023 62.59L5.36023 62.49C5.36023 62.78 5.36023 63.02 5.36023 63.26C5.36023 64.85 5.47023 66.44 5.49023 68.03C5.49023 69.03 5.04023 69.42 4.07023 69.38C3.75023 69.38 3.43023 69.33 3.07023 69.3C3.16023 69.45 3.20023 69.54 3.26023 69.62C4.07542 70.942 4.99147 72.1991 6.00023 73.38C6.13961 73.5008 6.23701 73.6627 6.27835 73.8425C6.31969 74.0222 6.30284 74.2104 6.23023 74.38C6.1511 74.5553 6.01848 74.701 5.85139 74.7962C5.68431 74.8914 5.49136 74.9313 5.30023 74.91H4.75023C5.64243 75.9823 6.64831 76.9546 7.75023 77.81C8.43023 78.27 8.50023 78.6 8.20023 79.35C8.20023 79.35 8.20023 79.42 8.20023 79.48C8.37023 79.59 8.56023 79.71 8.74023 79.85C9.27023 80.24 9.82023 80.61 10.3202 81.03C10.5806 81.2102 10.7693 81.4762 10.8534 81.7815C10.9375 82.0868 10.9116 82.4119 10.7802 82.7C10.7802 82.7 10.7802 82.79 10.7802 82.85L11.0902 82.93C12.6272 83.1866 14.1928 83.2236 15.7402 83.04C16.0128 83.0425 16.2802 82.9665 16.5108 82.8211C16.7413 82.6757 16.9251 82.467 17.0402 82.22C17.1413 82.0443 17.1867 81.842 17.1702 81.64C16.9802 80.1 16.7602 78.56 16.5302 77.02C16.5079 76.7984 16.4248 76.5874 16.2902 76.41C15.6002 75.55 14.8802 74.7 14.1602 73.87C11.939 71.4907 10.5373 68.4631 10.1602 65.23C10.1278 65.0282 10.0564 64.8346 9.95023 64.66C9.49023 63.79 9.02023 62.93 8.55023 62.08C8.69023 61.86 8.84023 61.82 8.99023 61.99C9.14023 62.16 9.30023 62.41 9.44023 62.62C9.58023 62.83 9.78023 63.17 10.0102 63.53V63.15C10.0102 61.85 10.0102 60.55 10.0102 59.26C9.99763 59.087 10.0215 58.9132 10.0802 58.75C10.1185 58.6886 10.1696 58.6363 10.23 58.5966C10.2904 58.5569 10.3587 58.5307 10.4302 58.52C10.5102 58.52 10.6602 58.66 10.6902 58.77C10.7381 58.9528 10.7616 59.1411 10.7602 59.33C10.9002 61.06 10.9802 62.79 11.1802 64.51C11.4051 66.7978 12.1955 68.9937 13.4802 70.9C14.3002 72.07 15.2402 73.16 16.1302 74.29C16.2102 74.4 16.2702 74.51 16.3402 74.62C16.6102 72.71 16.8302 70.89 17.1202 69.08C17.1972 68.7956 17.2084 68.4974 17.1529 68.2081C17.0975 67.9187 16.9769 67.6458 16.8002 67.41C16.1778 66.489 15.7021 65.4769 15.3902 64.41C14.6955 62.2863 14.2558 60.0875 14.0802 57.86C13.8892 56.2469 13.8624 54.6185 14.0002 53C14.0502 52.55 14.1702 52.36 14.4102 52.37C14.6502 52.38 14.7302 52.57 14.7602 53.02C14.8402 54.32 14.9102 55.62 15.0502 56.9C15.4059 59.8782 16.1627 62.7947 17.3002 65.57C17.4002 65.82 17.5202 66.07 17.6702 66.42C17.7202 66.24 17.7302 66.18 17.7502 66.12C18.1102 64.74 18.4402 63.36 18.8402 62C19.4502 59.88 20.1102 57.76 20.7602 55.64C20.8061 55.5498 20.8258 55.4486 20.8169 55.3478C20.8081 55.2471 20.7711 55.1508 20.7102 55.07C19.6533 53.7111 18.9336 52.1209 18.6102 50.43C18.3886 49.4124 18.3012 48.3703 18.3502 47.33C18.3502 47.13 18.4202 46.93 18.6502 46.91C18.8802 46.89 18.9502 47.09 18.9902 47.28C19.0001 47.3664 19.0001 47.4536 18.9902 47.54C19.0606 49.0156 19.3995 50.466 19.9902 51.82C20.3202 52.61 20.7602 53.35 21.1902 54.18C21.2462 54.0935 21.2963 54.0033 21.3402 53.91C22.1202 51.85 22.9102 49.8 23.6902 47.74C23.7417 47.5994 23.7588 47.4486 23.7402 47.3C23.6002 46.52 23.3902 45.74 23.3002 44.96C23.2002 44.01 23.1802 43.06 23.1502 42.11C23.1502 41.88 23.2202 41.63 23.5002 41.61C23.7802 41.59 23.8602 41.83 23.9002 42.06C24.0002 42.69 24.0902 43.33 24.1902 43.96C24.2902 44.59 24.3902 45.14 24.4902 45.72C24.6273 45.5963 24.7335 45.4422 24.8002 45.27C25.8935 42.8384 27.1187 40.4682 28.4702 38.17C28.6602 37.86 28.8502 37.55 29.0602 37.26C29.0858 37.2132 29.1209 37.1724 29.1633 37.14C29.2057 37.1077 29.2544 37.0847 29.3063 37.0724C29.3581 37.0602 29.412 37.059 29.4644 37.0689C29.5167 37.0788 29.5664 37.0996 29.6102 37.13C29.701 37.1824 29.7676 37.2683 29.7956 37.3693C29.8237 37.4703 29.811 37.5783 29.7602 37.67C29.7602 37.78 29.6502 37.89 29.5902 38C29.2302 38.67 28.8602 39.34 28.5302 40C25.7849 45.5199 23.4972 51.2558 21.6902 57.15C20.2871 61.3725 19.204 65.6948 18.4502 70.08C18.2502 71.48 18.0602 72.9 17.9902 74.31C17.9553 75.5047 17.9954 76.7003 18.1102 77.89C18.1102 78.67 18.3002 79.45 18.4302 80.36C18.6202 80.12 18.7402 79.98 18.8402 79.83C20.9102 76.83 23.0202 73.75 25.0402 70.67C27.0602 67.59 29.1302 64.28 31.3702 61.22C32.0502 60.28 32.7102 59.33 33.3702 58.38C33.4508 58.2826 33.5043 58.1657 33.5254 58.0411C33.5464 57.9164 33.5343 57.7885 33.4902 57.67C33.3408 57.2427 33.2401 56.7999 33.1902 56.35C32.9694 53.6785 33.0937 50.9897 33.5602 48.35C33.8002 46.95 34.1902 45.58 34.5602 44.21C35.3828 40.8231 36.6682 37.5658 38.3802 34.53C40.7802 30.4033 43.3402 26.37 46.0602 22.43C47.118 20.8569 48.3055 19.3751 49.6102 18C49.7302 17.88 49.8502 17.72 50.0002 17.68C50.0868 17.6586 50.1769 17.6556 50.2647 17.6711C50.3526 17.6866 50.4362 17.7203 50.5102 17.77C50.6002 17.84 50.6102 18.08 50.5702 18.22C50.496 18.3772 50.3982 18.5222 50.2802 18.65C49.3602 19.86 48.3502 21.02 47.5302 22.3C45.0102 26.3 42.5302 30.3 40.0702 34.3C38.3292 37.1008 37.0495 40.1632 36.2802 43.37C35.8402 45.18 35.4102 47 35.0902 48.84C34.7653 51.0878 34.6548 53.3613 34.7602 55.63C34.7602 55.77 34.7602 55.92 34.7602 56.15C34.8702 56 34.9302 55.94 34.9702 55.87C36.3002 53.78 37.6702 51.72 38.9702 49.59C40.2702 47.46 41.4302 45.13 42.7502 42.96C46.0002 37.64 49.3002 32.34 52.5902 27C55.1845 22.9629 57.5677 18.7939 59.7302 14.51C59.7861 14.3666 59.8674 14.2345 59.9702 14.12C60.0358 14.0727 60.1109 14.0401 60.1904 14.0246C60.2698 14.009 60.3516 14.0109 60.4302 14.03C60.5502 14.03 60.6302 14.28 60.6802 14.43C60.681 14.5322 60.6533 14.6326 60.6002 14.72C60.2502 15.53 59.9502 16.37 59.5402 17.15C58.0469 20.0233 56.5336 22.8767 55.0002 25.71C53.5902 28.33 52.1102 30.91 50.4502 33.39C48.0702 36.93 45.9302 40.61 43.8102 44.3C42.2702 46.9667 40.7436 49.6633 39.2302 52.39C39.2302 52.46 39.1702 52.54 39.1102 52.68C39.2702 52.68 39.3702 52.62 39.4602 52.58C41.4339 51.7584 43.2954 50.6899 45.0002 49.4C45.7002 48.84 46.4202 48.29 47.1402 47.76C48.89 46.4816 50.4577 44.9711 51.8002 43.27C53.9002 40.6 55.9802 37.92 58.0702 35.27C58.1802 35.13 58.2802 34.99 58.3902 34.86C58.5002 34.73 58.7802 34.54 59.0202 34.72C59.2602 34.9 59.2102 35.15 59.0802 35.37C58.985 35.5351 58.8816 35.6953 58.7702 35.85C56.8302 38.57 54.9002 41.3 52.9402 44.01C51.9134 45.4299 50.7066 46.7106 49.3502 47.82C47.7836 49.04 46.2202 50.24 44.6602 51.42C44.0731 51.8519 43.4548 52.2397 42.8102 52.58C41.3713 53.4106 39.8539 54.0972 38.2802 54.63C37.8631 54.7367 37.5042 55.0023 37.2802 55.37C36.2802 57.01 35.2802 58.67 34.1002 60.24C31.3402 64.1 28.7002 68.04 26.1002 72.03C24.3302 74.81 22.4602 77.52 20.6302 80.25C20.2502 80.88 19.7902 81.48 19.2802 82.19V82.15Z" fill="black"/>
<path d="M48.6205 80.49L49.4405 81.35C49.569 81.4643 49.6772 81.5995 49.7605 81.75C49.7862 81.8005 49.7966 81.8574 49.7903 81.9137C49.7841 81.97 49.7615 82.0232 49.7253 82.0668C49.6892 82.1105 49.641 82.1425 49.5868 82.1591C49.5327 82.1756 49.4748 82.176 49.4205 82.16C49.0814 82.0301 48.7716 81.8342 48.5089 81.5836C48.2463 81.3329 48.036 81.0326 47.8905 80.7C47.8501 80.5647 47.8503 80.4206 47.8912 80.2854C47.9321 80.1503 48.0118 80.0302 48.1205 79.94C48.7367 79.2618 49.4473 78.6758 50.2305 78.2C50.9705 77.72 51.7105 77.2 52.4405 76.76C52.6253 76.6092 52.796 76.4418 52.9505 76.26C52.6105 76.1 52.3205 75.99 52.0505 75.85C51.8015 75.7643 51.5767 75.6203 51.3948 75.43C51.2129 75.2397 51.0792 75.0086 51.0048 74.7561C50.9304 74.5036 50.9175 74.2369 50.9672 73.9784C51.0169 73.7198 51.1277 73.4769 51.2905 73.27C51.7307 72.6291 52.2405 72.0389 52.8105 71.51C53.2905 71.01 53.8105 70.57 54.3505 70.12C54.5105 69.97 54.6905 69.83 54.8305 69.71C54.6133 69.3701 54.4259 69.0121 54.2705 68.64C54.1582 68.2831 54.118 67.9074 54.1524 67.5349C54.1867 67.1623 54.2948 66.8004 54.4705 66.47C54.8287 65.7159 55.3277 65.037 55.9405 64.47C56.1093 64.3263 56.2938 64.2022 56.4905 64.1C56.6605 64.01 56.8605 63.99 56.9305 64.2C56.9386 64.2713 56.9321 64.3436 56.9115 64.4123C56.8909 64.4811 56.8565 64.5449 56.8105 64.6C56.4505 65.06 56.0505 65.49 55.7205 65.97C55.3693 66.4448 55.1486 67.0034 55.0805 67.59C55.038 67.8275 55.0501 68.0717 55.1159 68.3038C55.1818 68.536 55.2996 68.7501 55.4605 68.93C55.5645 69.0124 55.6486 69.1172 55.7064 69.2367C55.7643 69.3562 55.7943 69.4873 55.7943 69.62C55.7943 69.7527 55.7643 69.8838 55.7064 70.0033C55.6486 70.1227 55.5645 70.2276 55.4605 70.31C54.8005 70.97 54.0805 71.57 53.4105 72.21C53.0305 72.57 52.6705 72.95 52.3305 73.34C52.1736 73.521 52.0484 73.7272 51.9605 73.95C51.9167 74.0419 51.8926 74.1419 51.8898 74.2436C51.887 74.3454 51.9055 74.4466 51.9441 74.5407C51.9827 74.6349 52.0406 74.72 52.114 74.7904C52.1874 74.8609 52.2748 74.9153 52.3705 74.95C52.6502 75.0829 52.9374 75.1998 53.2305 75.3C53.3861 75.3315 53.53 75.405 53.6469 75.5125C53.7637 75.6201 53.8488 75.7575 53.8931 75.9099C53.9374 76.0624 53.9391 76.2241 53.8981 76.3774C53.8571 76.5308 53.7749 76.67 53.6605 76.78C53.3727 77.1356 53.036 77.4487 52.6605 77.71C51.7505 78.32 50.7905 78.88 49.8705 79.49C49.4005 79.79 49.0605 80.13 48.6205 80.49Z" fill="black"/>
<path d="M37.27 49.62C37.3127 49.3696 37.3831 49.1248 37.48 48.89C38.54 46.89 39.57 44.83 40.71 42.89C42.39 39.98 44.17 37.14 45.78 34.19C46.69 32.52 47.78 30.92 48.72 29.29C48.77 29.22 48.8 29.12 48.87 29.08C48.94 29.04 49.13 28.95 49.18 28.99C49.2274 29.0303 49.2648 29.0812 49.2891 29.1384C49.3134 29.1957 49.324 29.2579 49.32 29.32C49.2039 29.6644 49.0601 29.9988 48.89 30.32C48.18 31.61 47.42 32.87 46.76 34.19C44.91 37.82 42.63 41.19 40.57 44.7C39.66 46.25 38.8 47.84 37.92 49.41C37.81 49.57 37.71 49.82 37.27 49.62Z" fill="black"/>
<path d="M37.23 27.34C37.5206 27.2184 37.7817 27.0359 37.9956 26.8047C38.2095 26.5735 38.3713 26.2991 38.47 26C38.69 25.29 38.81 24.56 38.97 23.83C39.13 23.1 39.33 22.25 39.52 21.46C39.5646 21.3122 39.6285 21.171 39.71 21.04C39.7473 20.9602 39.8047 20.8915 39.8764 20.8404C39.9482 20.7894 40.032 20.7578 40.1196 20.7487C40.2072 20.7396 40.2956 20.7534 40.3763 20.7887C40.457 20.824 40.5272 20.8795 40.58 20.95C41.051 21.5296 41.3087 22.2532 41.31 23C41.31 23.1 41.15 23.22 41.06 23.33C40.96 23.24 40.82 23.18 40.77 23.07C40.61 22.73 40.48 22.38 40.34 22.07H40.2C40.08 22.55 39.96 23.07 39.86 23.5C39.67 24.32 39.56 25.17 39.31 25.97C39.1236 26.4709 38.8605 26.9399 38.53 27.36C38.3193 27.6337 38.0492 27.856 37.74 28.01C37.6451 28.0807 37.5365 28.131 37.4212 28.1577C37.3059 28.1845 37.1863 28.1872 37.0698 28.1656C36.9534 28.144 36.8428 28.0986 36.7447 28.0323C36.6467 27.9659 36.5634 27.88 36.5 27.78C36.26 27.51 36.05 27.2 35.81 26.93C35.57 26.66 35.41 26.45 34.97 26.54C34.8 27.04 34.61 27.54 34.45 28.08C34.07 29.34 33.7 30.6 33.32 31.86C33.32 31.99 33.24 32.12 33.19 32.25C33.1196 32.5172 32.9781 32.7604 32.7806 32.9537C32.5831 33.1469 32.3369 33.2831 32.0682 33.3477C31.7996 33.4123 31.5184 33.403 31.2546 33.3206C30.9908 33.2383 30.7542 33.086 30.57 32.88C30.0455 32.2887 29.5643 31.6604 29.13 31C29.1029 30.9783 29.0808 30.951 29.0653 30.9199C29.0497 30.8888 29.0411 30.8547 29.04 30.82C29.04 30.66 29.04 30.45 29.12 30.36C29.2 30.27 29.44 30.36 29.55 30.5C29.94 30.96 30.32 31.43 30.72 31.89C30.8879 32.0852 31.0873 32.2508 31.31 32.38C31.86 32.68 32.23 32.53 32.44 31.94C32.65 31.35 32.87 30.62 33.07 29.94C33.41 28.78 33.74 27.62 34.07 26.46C34.4 25.3 35.29 25.43 36 26C36.3323 26.3088 36.6399 26.6432 36.92 27L37.23 27.34Z" fill="black"/>
<path d="M42.2003 66.7C42.0003 66.93 41.8703 67.11 41.7103 67.26C41.0903 67.8 40.4403 68.33 39.8203 68.88C38.4203 70.14 37.0403 71.43 35.6103 72.66C33.4565 74.4675 31.1088 76.0304 28.6103 77.32C27.6903 77.82 26.8303 78.44 25.9303 79C25.7355 79.1422 25.5279 79.2661 25.3103 79.37C25.1903 79.37 24.9503 79.37 24.9003 79.32C24.8635 79.2489 24.8442 79.17 24.8442 79.09C24.8442 79.0099 24.8635 78.9311 24.9003 78.86C25.0933 78.617 25.3187 78.4017 25.5703 78.22C26.4303 77.64 27.2703 77.02 28.1803 76.52C31.3741 74.7885 34.3487 72.6801 37.0403 70.24C38.4603 68.95 40.0403 67.81 41.5003 66.61C41.5885 66.5292 41.701 66.4799 41.8203 66.47C42.0003 66.48 42.0503 66.6 42.2003 66.7Z" fill="black"/>
<path d="M61.14 24.19C61.01 23.86 61.21 23.6 61.37 23.34C61.98 22.34 62.62 21.28 63.24 20.24C63.68 19.5 64.12 18.75 64.54 18C64.84 17.45 64.77 17.33 64.13 17.22C63.78 17.22 63.41 17.22 63.06 17.1C62.23 16.94 61.9 16.5 62.12 15.7C62.42 14.6 62.8 13.52 63.12 12.44C63.74 10.61 64.38 8.78 65.01 6.95C65.0969 6.69026 65.2004 6.43639 65.32 6.19C65.3463 6.13061 65.39 6.08063 65.4454 6.04669C65.5008 6.01276 65.5651 5.99647 65.63 6C65.6788 6.02551 65.7207 6.06251 65.7521 6.1078C65.7834 6.15309 65.8033 6.20532 65.81 6.26C65.8042 6.41385 65.7739 6.56578 65.72 6.71C64.91 9.41 64.17 12.13 63.17 14.71C63.0483 15.0332 62.9612 15.3684 62.91 15.71C62.85 16.11 62.91 16.16 63.28 16.23C63.5 16.23 63.73 16.28 63.95 16.31C64.1415 16.3185 64.3321 16.3419 64.52 16.38C64.7258 16.3978 64.9228 16.4717 65.0895 16.5936C65.2563 16.7156 65.3864 16.8809 65.4658 17.0716C65.5452 17.2623 65.5708 17.4711 65.5398 17.6754C65.5088 17.8796 65.4224 18.0714 65.29 18.23C64.21 19.97 63.08 21.69 61.98 23.43L61.63 23.94C61.52 24.19 61.39 24.33 61.14 24.19Z" fill="black"/>
<path d="M20.2805 76.29C20.2264 76.2962 20.1717 76.287 20.1227 76.2636C20.0736 76.2402 20.0321 76.2035 20.0029 76.1576C19.9737 76.1117 19.958 76.0585 19.9575 76.0041C19.9571 75.9497 19.972 75.8963 20.0005 75.85C20.1365 75.5314 20.297 75.2238 20.4805 74.93C21.4805 73.23 22.5605 71.54 23.5705 69.83C25.2605 66.95 27.1705 64.22 29.1305 61.51C29.2743 61.295 29.4495 61.1029 29.6505 60.94C29.7215 60.9032 29.8004 60.884 29.8805 60.884C29.9605 60.884 30.0394 60.9032 30.1105 60.94C30.3005 61.06 30.1705 61.23 30.1105 61.39C27.3805 65.51 24.6105 69.61 22.0505 73.84C21.6005 74.57 21.1005 75.28 20.6205 76C20.5139 76.1043 20.4003 76.2012 20.2805 76.29Z" fill="black"/>
<path d="M43.23 62.72C43.1885 62.8767 43.128 63.0278 43.05 63.17C42.9267 63.3589 42.7824 63.5334 42.62 63.69C39.8717 66.5442 36.8804 69.154 33.68 71.49C32.05 72.64 30.31 73.66 28.62 74.73C28.4714 74.7987 28.3176 74.8555 28.16 74.9C27.97 74.54 28.16 74.37 28.36 74.23C28.93 73.78 29.5 73.33 30.1 72.92C31.1 72.24 32.17 71.66 33.1 70.92C34.94 69.5133 36.74 68.0567 38.5 66.55C39.9 65.36 41.21 64.08 42.5 62.84C42.5343 62.7775 42.5823 62.7237 42.6405 62.6825C42.6987 62.6413 42.7655 62.6139 42.8358 62.6023C42.9061 62.5908 42.9782 62.5954 43.0464 62.6157C43.1147 62.6361 43.1775 62.6718 43.23 62.72Z" fill="black"/>
<path d="M39.5704 29.21C39.5104 29.39 39.4604 29.52 39.4104 29.65C38.4104 31.81 37.4104 33.98 36.4104 36.12C35.0107 38.9721 33.8694 41.944 33.0004 45C32.7704 45.83 32.5304 46.65 32.2804 47.48C32.2204 47.65 32.1904 47.96 31.9104 47.89C31.6304 47.82 31.7904 47.55 31.8404 47.37C32.3004 45.6 32.7304 43.82 33.2504 42.07C33.9549 39.8287 34.855 37.6537 35.9404 35.57C37.0004 33.46 38.0004 31.34 39.0804 29.23C39.1304 29.12 39.2804 29.05 39.3904 28.96L39.5704 29.21Z" fill="black"/>
<path d="M53.4501 38.76C53.3756 38.9115 53.2921 39.0584 53.2001 39.2C52.6301 39.97 52.0701 40.74 51.4701 41.47C49.825 43.5016 48.0549 45.4287 46.1701 47.24C45.2481 48.1151 44.2434 48.8988 43.1701 49.58C43.0532 49.6321 42.9279 49.6626 42.8001 49.67C42.8001 49.53 42.7401 49.36 42.8001 49.25C42.8863 49.0814 43.0093 48.9345 43.1601 48.82C44.9601 47.3832 46.633 45.794 48.1601 44.07C49.8362 42.3439 51.4249 40.535 52.9201 38.65C52.9792 38.5655 53.0582 38.4968 53.1501 38.45C53.2801 38.36 53.4601 38.5 53.4501 38.76Z" fill="black"/>
<path d="M52.8903 69.15C52.7603 69.8 52.6803 70.45 52.5003 71.08C52.3955 71.3743 52.2204 71.6386 51.9903 71.85C51.5603 72.31 51.0803 72.75 50.6303 73.2C50.4703 73.36 50.3103 73.52 50.1603 73.69C49.9791 73.8517 49.863 74.0738 49.8335 74.3148C49.8041 74.5559 49.8634 74.7994 50.0003 75C50.0856 75.1714 50.1591 75.3485 50.2203 75.53C50.3644 75.85 50.4071 76.2064 50.3427 76.5514C50.2784 76.8964 50.11 77.2134 49.8603 77.46C49.1903 78.13 48.4703 78.75 47.7703 79.39C47.6769 79.4665 47.5676 79.5212 47.4503 79.55C47.4029 79.5595 47.354 79.5581 47.3073 79.546C47.2605 79.5338 47.2171 79.5113 47.1803 79.48C47.1584 79.4384 47.147 79.392 47.147 79.345C47.147 79.298 47.1584 79.2516 47.1803 79.21C47.2673 79.0798 47.3716 78.9621 47.4903 78.86C48.0303 78.3 48.5803 77.75 49.1303 77.2C49.3503 76.9994 49.4972 76.7313 49.5479 76.438C49.5986 76.1446 49.5502 75.8428 49.4103 75.58C48.7703 74.33 49.1003 73.67 50.0103 72.77C50.4603 72.31 50.9303 71.87 51.3903 71.43C51.6723 71.1641 51.8586 70.8126 51.9203 70.43C52.0003 70 52.1203 69.59 52.2403 69.17C52.2733 69.0199 52.3344 68.8774 52.4203 68.75C52.4575 68.7074 52.5037 68.6736 52.5556 68.6511C52.6075 68.6286 52.6638 68.618 52.7203 68.62C52.7803 68.62 52.8603 68.76 52.8803 68.85C52.8956 68.9528 52.8956 69.0572 52.8803 69.16L52.8903 69.15Z" fill="black"/>
<path d="M39.7401 41.56C39.7062 41.2748 39.7852 40.9877 39.9601 40.76C40.6001 39.52 41.2401 38.27 41.8901 37.03L46.3001 28.64C46.4224 28.4232 46.5559 28.2129 46.7001 28.01C46.8001 28.26 46.8901 28.38 46.8801 28.5C46.8535 28.6519 46.7993 28.7977 46.7201 28.93C45.0001 32.29 43.3301 35.65 41.6201 39C41.2301 39.77 40.7601 40.49 40.3101 41.23C40.2001 41.42 40.0801 41.65 39.7401 41.56Z" fill="black"/>
<path d="M32.8204 84.25L29.8204 84.09C29.6664 84.0851 29.5143 84.0547 29.3703 84C29.2703 84 29.2004 83.82 29.1104 83.73C29.2104 83.65 29.2904 83.52 29.4004 83.49C29.6063 83.4649 29.8144 83.4649 30.0204 83.49C30.7804 83.49 31.5404 83.56 32.2904 83.57C35.1778 83.5401 38.0438 83.0714 40.7904 82.18C40.8604 82.18 40.9204 82.11 40.9904 82.11C41.0604 82.11 41.2304 82.11 41.2504 82.17C41.2704 82.23 41.2504 82.45 41.2504 82.49C41.073 82.6517 40.8658 82.7774 40.6404 82.86C39.3304 83.23 38.0104 83.59 36.6404 83.93C35.3857 84.198 34.1021 84.3055 32.8204 84.25Z" fill="black"/>
<path d="M21.1201 70.78C21.1219 70.6221 21.1386 70.4647 21.1701 70.31C21.2218 70.1616 21.2924 70.0204 21.3801 69.89C23.2901 66.79 25.2601 63.72 27.4401 60.79C27.5109 60.6714 27.6024 60.5664 27.7101 60.48C27.8107 60.4346 27.9197 60.4107 28.0301 60.41C28.0401 60.5198 28.0401 60.6302 28.0301 60.74C28.0004 60.8206 27.9564 60.8951 27.9001 60.96C26.3001 63.4533 24.6968 65.9367 23.0901 68.41C22.6201 69.14 22.0901 69.84 21.6001 70.54C21.4994 70.6623 21.3854 70.773 21.2601 70.87L21.1201 70.78Z" fill="black"/>
<path d="M9.5202 68.57C9.62757 68.6623 9.72785 68.7626 9.8202 68.87C9.89535 68.9869 9.95898 69.1108 10.0102 69.24C10.5531 70.4742 11.2521 71.6337 12.0902 72.69C12.9102 73.69 13.6502 74.84 14.4202 75.92C14.5336 76.0728 14.6308 76.237 14.7102 76.41C14.7102 76.52 14.7102 76.73 14.7102 76.77C14.6522 76.7969 14.5891 76.8108 14.5252 76.8108C14.4613 76.8108 14.3982 76.7969 14.3402 76.77C14.2302 76.77 14.1602 76.61 14.0902 76.51C13.0002 75.09 11.8902 73.67 10.8202 72.22C10.2044 71.2428 9.73284 70.1819 9.4202 69.07C9.39509 68.9311 9.39509 68.7889 9.4202 68.65L9.5202 68.57Z" fill="black"/>
<path d="M13.0503 60C13.0503 59.95 13.1203 59.76 13.2203 59.72C13.3203 59.68 13.5303 59.8 13.5903 59.98C13.8203 60.83 14.0603 61.68 14.3003 62.52C14.5403 63.36 14.6903 64.14 14.9503 64.92C15.2103 65.7 15.5103 66.33 15.8103 67.03C15.9103 67.27 16.0403 67.49 16.1203 67.74C16.13 67.8022 16.1241 67.8658 16.1032 67.9251C16.0822 67.9845 16.0469 68.0377 16.0003 68.08C15.9203 68.08 15.7503 68.08 15.6403 68.01C15.5717 67.9554 15.5197 67.8826 15.4903 67.8C15.0615 67.0142 14.6742 66.2064 14.3303 65.38C13.7317 63.6319 13.3031 61.8303 13.0503 60Z" fill="black"/>
<path d="M7.55046 68.48C7.95046 68.48 7.97046 68.79 8.06046 68.98C8.49046 69.86 8.89046 70.76 9.33046 71.64C9.85193 72.698 10.5599 73.6533 11.4205 74.46C11.5872 74.6134 11.7442 74.777 11.8905 74.95C12.0305 75.1 12.1105 75.31 11.8905 75.44C11.8167 75.4698 11.7364 75.4799 11.6575 75.4694C11.5787 75.4589 11.5039 75.4281 11.4405 75.38C10.8441 74.8537 10.286 74.2856 9.77046 73.68C8.91451 72.5006 8.24034 71.1994 7.77046 69.82C7.66406 69.566 7.57387 69.3054 7.50046 69.04C7.49692 68.8521 7.51368 68.6643 7.55046 68.48Z" fill="black"/>
<path d="M62.7104 19C62.6771 19.15 62.6232 19.2947 62.5504 19.43C62.0504 20.24 61.5504 21.03 61.0204 21.83C60.9925 21.8713 60.9588 21.9083 60.9204 21.94C60.7704 22.07 60.6304 22.29 60.3904 22.12C60.1504 21.95 60.3904 21.76 60.3904 21.61C60.8304 20.83 61.2704 20.05 61.7404 19.29C61.8275 19.1838 61.8691 19.0473 61.856 18.9106C61.8428 18.7738 61.7761 18.6477 61.6704 18.56C61.4894 18.3762 61.3407 18.1632 61.2304 17.93C61.1522 17.7739 61.1294 17.5958 61.1657 17.425C61.2021 17.2542 61.2954 17.1008 61.4304 16.99C61.4759 16.9569 61.5283 16.9344 61.5836 16.924C61.639 16.9136 61.6959 16.9157 61.7504 16.93C61.7922 16.9651 61.8249 17.0098 61.8458 17.0603C61.8667 17.1108 61.8751 17.1656 61.8704 17.22C61.7204 17.58 61.9404 17.77 62.1504 17.98C62.3149 18.0965 62.4508 18.2488 62.5478 18.4255C62.6448 18.6022 62.7004 18.7987 62.7104 19Z" fill="black"/>
<path d="M36.39 32.18C36.75 32.38 36.63 32.58 36.54 32.77C36.15 33.67 35.75 34.56 35.35 35.46C34.95 36.36 34.58 37.23 34.17 38.11C34.07 38.33 34.05 38.67 33.66 38.67C33.5909 38.5426 33.5547 38.3999 33.5547 38.255C33.5547 38.11 33.5909 37.9674 33.66 37.84C33.8421 37.2816 34.0558 36.7341 34.3 36.2C34.86 35.03 35.45 33.88 36.04 32.73C36.1434 32.5385 36.2603 32.3547 36.39 32.18Z" fill="black"/>
<path d="M19.4003 56.07C19.1303 55.46 18.8403 54.91 18.6503 54.33C18.1903 52.89 17.7703 51.44 17.3403 49.98C17.3403 49.9 17.3403 49.78 17.4203 49.68C17.5003 49.58 17.6403 49.68 17.6803 49.78C17.794 49.9507 17.8848 50.1356 17.9503 50.33C18.3703 51.56 18.7703 52.78 19.1803 54.01C19.3303 54.45 19.5103 54.88 19.6503 55.32C19.6891 55.3844 19.7134 55.4564 19.7217 55.5311C19.7299 55.6057 19.7219 55.6813 19.6981 55.7526C19.6744 55.8239 19.6354 55.8892 19.584 55.944C19.5326 55.9988 19.47 56.0418 19.4003 56.07Z" fill="black"/>
<path d="M35.6002 27.61C35.7598 27.6032 35.9184 27.6396 36.0592 27.7153C36.1999 27.7909 36.3177 27.9031 36.4002 28.04C36.4491 28.1619 36.4491 28.2981 36.4002 28.42C36.4002 28.42 36.1902 28.42 36.0902 28.42C35.7102 28.28 35.6602 28.28 35.5302 28.64C35.2402 29.44 34.9702 30.24 34.6902 31.04C34.6139 31.2524 34.5168 31.4568 34.4002 31.65C34.3632 31.6895 34.3182 31.7206 34.2681 31.7413C34.2181 31.762 34.1643 31.7718 34.1102 31.77C34.0202 31.77 33.9702 31.59 33.9202 31.49C33.9107 31.4573 33.9107 31.4227 33.9202 31.39C34.2702 30.3 34.6102 29.22 34.9702 28.14C35.0106 28.0061 35.0952 27.8898 35.2102 27.81C35.3329 27.73 35.4636 27.663 35.6002 27.61Z" fill="black"/>
<path d="M49.6103 27.51C49.5682 27.3286 49.5624 27.1406 49.5933 26.957C49.6242 26.7733 49.6911 26.5976 49.7903 26.44C50.3603 25.35 50.9503 24.28 51.5403 23.2C51.6403 23.01 51.7503 22.71 52.0203 22.86C52.2903 23.01 52.0903 23.26 52.0203 23.45C51.4203 24.71 50.8103 25.97 50.2003 27.23C50.0703 27.46 50.0003 27.69 49.6103 27.51Z" fill="black"/>
<path d="M43.6204 65.2C43.3204 65.2 43.1904 65.04 43.3004 64.83C43.3826 64.6811 43.4834 64.5434 43.6004 64.42C44.4104 63.55 45.2104 62.67 46.0304 61.81C46.1204 61.72 46.3304 61.62 46.4104 61.67C46.4904 61.72 46.5004 61.97 46.4104 62.11C46.3204 62.25 46.0504 62.62 45.8404 62.85C45.2204 63.55 44.5904 64.23 43.9604 64.92C43.8534 65.0208 43.7398 65.1143 43.6204 65.2Z" fill="black"/>
<path d="M22.8701 46.37C22.8875 46.4423 22.8875 46.5177 22.8701 46.59C22.8701 46.67 22.7301 46.78 22.6601 46.77C22.6064 46.7604 22.5554 46.7394 22.5105 46.7083C22.4656 46.6773 22.428 46.6369 22.4001 46.59C22.3457 46.391 22.3155 46.1862 22.3101 45.98C22.3101 45.15 22.2301 44.32 22.1901 43.49C22.1901 43.27 22.1201 43.05 22.1201 42.82C22.1445 42.7001 22.1958 42.5872 22.2701 42.49C22.3726 42.5625 22.4665 42.6464 22.5501 42.74C22.5977 42.8332 22.625 42.9355 22.6301 43.04C22.6801 44.14 22.7701 45.24 22.8701 46.37Z" fill="black"/>
<path d="M28.2402 88.11C28.3695 88.0142 28.5152 87.943 28.6702 87.9C29.7223 87.8288 30.7783 87.9612 31.7802 88.29C31.9802 88.36 32.3102 88.41 32.2302 88.68C32.1502 88.95 31.8602 88.8 31.6702 88.75C30.7957 88.5431 29.8988 88.4457 29.0002 88.46C28.8526 88.5005 28.6955 88.4876 28.5564 88.4235C28.4174 88.3595 28.3054 88.2485 28.2402 88.11Z" fill="black"/>
<path d="M35.1004 82.44C34.9809 82.4552 34.8599 82.4552 34.7404 82.44C34.6244 82.394 34.5164 82.3299 34.4204 82.25C34.5104 82.16 34.5804 82.02 34.6904 81.99C34.9229 81.9316 35.1609 81.8981 35.4004 81.89H37.7304C37.7962 81.8743 37.8647 81.8743 37.9304 81.89C38.0004 81.89 38.1004 81.99 38.1004 82.05C38.0993 82.0895 38.0876 82.128 38.0665 82.1615C38.0454 82.1949 38.0156 82.222 37.9804 82.24C37.8351 82.2901 37.6838 82.3204 37.5304 82.33L35.1004 82.41V82.44Z" fill="black"/>
<path d="M50.7904 70C50.7904 70.13 50.8504 70.27 50.7904 70.35C50.2604 71.13 49.7204 71.91 49.1704 72.68C49.1704 72.74 49.0404 72.77 48.8704 72.89C48.8704 72.65 48.8104 72.46 48.8704 72.36C49.4304 71.58 50.0104 70.81 50.5904 70.05C50.6304 70 50.6804 70 50.7904 70Z" fill="black"/>
<path d="M28.8903 32.37C29.013 32.4359 29.1271 32.5165 29.2303 32.61C29.6603 33.05 30.0903 33.5 30.5003 33.95C30.5703 34.02 30.5003 34.17 30.5803 34.27C30.6603 34.37 30.3403 34.34 30.2603 34.27C30.0879 34.1844 29.9294 34.0732 29.7903 33.94C29.4203 33.59 29.0603 33.22 28.7103 32.84C28.6767 32.7946 28.6531 32.7426 28.6411 32.6875C28.629 32.6323 28.6288 32.5753 28.6403 32.52C28.6603 32.48 28.7803 32.44 28.8903 32.37Z" fill="black"/>
<path d="M9 68C8.65 68.11 8.56 67.94 8.51 67.75L8.3 66.95L8 65.53C8.35 65.35 8.44 65.63 8.5 65.84C8.69 66.41 8.84 67 8.99 67.58C9.00314 67.7196 9.00649 67.8599 9 68Z" fill="black"/>
<path d="M12.8902 55.15C12.9402 55.27 13.0502 55.39 13.0502 55.5C13.0502 56.09 13.0502 56.68 13.0002 57.26C13.0163 57.3257 13.0163 57.3943 13.0002 57.46C12.9502 57.52 12.8702 57.6 12.8102 57.6C12.7502 57.6 12.6402 57.51 12.6402 57.46C12.5462 56.6979 12.5937 55.9249 12.7802 55.18L12.8902 55.15Z" fill="black"/>
</svg>
