<svg width="82" height="98" viewBox="0 0 82 98" fill="none" xmlns="http://www.w3.org/2000/svg">
<path d="M40.3298 86.91C39.9098 89.46 39.5098 92 39.0698 94.52C38.8943 95.3108 38.6774 96.0919 38.4198 96.86C38.3628 97.0639 38.2715 97.2567 38.1498 97.43C38.066 97.5557 37.9438 97.6508 37.8014 97.7013C37.659 97.7518 37.5041 97.7548 37.3598 97.71C37.2103 97.6792 37.0751 97.5997 36.9756 97.4839C36.8761 97.3681 36.8178 97.2225 36.8098 97.07C36.7903 96.7886 36.8104 96.5058 36.8698 96.23C37.3281 94.4216 37.6622 92.584 37.8698 90.73C37.8698 90.65 37.8698 90.56 37.8698 90.41L37.3398 90.75C33.2003 93.9117 28.096 95.5472 22.8898 95.38C21.5738 95.2564 20.2814 94.9501 19.0498 94.47C16.9749 93.6821 15.0478 92.5495 13.3498 91.12C10.1663 88.5569 7.58252 85.328 5.77984 81.66C3.52329 77.3468 1.95437 72.7075 1.12985 67.91C0.503591 64.6137 0.192189 61.2653 0.199845 57.91C0.275704 52.3674 1.94174 46.9632 4.99985 42.34C7.08079 39.1919 9.47644 36.2635 12.1498 33.6C14.7098 30.98 17.3398 28.43 19.9398 25.84C22.1465 23.6533 24.3598 21.4567 26.5798 19.25C28.1798 17.65 29.7898 16.04 31.3698 14.41C34.1276 11.5785 36.0126 8.01338 36.7998 4.14C36.9698 3.3 37.1398 2.45 37.3398 1.61C37.4093 1.30302 37.5203 1.00696 37.6698 0.730002C37.7447 0.583009 37.8492 0.453178 37.9769 0.348748C38.1046 0.244318 38.2526 0.16757 38.4115 0.123376C38.5704 0.079181 38.7368 0.068505 38.9 0.092025C39.0633 0.115545 39.2199 0.172748 39.3598 0.260002C39.5895 0.389244 39.8041 0.543517 39.9998 0.720002C40.9623 1.52308 41.7778 2.48746 42.4098 3.57C44.5187 7.18874 47.3469 10.3368 50.7198 12.82C53.4298 14.96 56.0998 17.15 58.7798 19.32C59.2071 19.6738 59.6144 20.0511 59.9998 20.45L68.0598 28.45C68.6898 29.07 69.3099 29.69 69.9099 30.34C71.2199 31.75 72.5598 33.12 73.7898 34.6C76.4386 37.8625 78.4502 41.594 79.7198 45.6C80.5981 48.2784 81.2012 51.0393 81.5198 53.84C81.6498 54.95 81.7698 56.08 81.8098 57.2C81.8636 59.9878 81.413 62.7624 80.4799 65.39C78.8032 70.1192 76.2066 74.4696 72.8398 78.19C71.3417 79.9982 69.6253 81.6139 67.7299 83C66.7299 83.69 65.7299 84.32 64.6599 85C63.6389 85.6324 62.5205 86.0919 61.3498 86.36C60.0198 86.67 58.6898 87.05 57.3498 87.29C55.5898 87.61 53.8098 87.88 52.0298 88.04C50.6418 88.145 49.2479 88.145 47.8598 88.04C46.0498 87.91 44.2498 87.67 42.4598 87.42C41.7403 87.2928 41.029 87.1225 40.3298 86.91ZM40.7798 42.66C40.7847 42.5701 40.7847 42.4799 40.7798 42.39C40.8498 40.1 40.9598 37.82 40.9698 35.53C40.9698 32.2 40.8998 28.87 40.8698 25.53C40.8698 25.39 40.8698 25.25 40.8698 25.11C40.8698 22.29 40.7598 19.47 40.7298 16.65C40.7298 15.22 40.7298 13.8 40.7798 12.37C40.77 12.2302 40.77 12.0898 40.7798 11.95C40.7974 11.8345 40.8533 11.7283 40.9386 11.6485C41.0238 11.5687 41.1335 11.5199 41.2498 11.51C41.3664 11.4994 41.483 11.5309 41.5783 11.5987C41.6737 11.6666 41.7417 11.7664 41.7698 11.88C41.8296 12.0434 41.8601 12.216 41.8598 12.39C41.9298 13.85 41.9898 15.31 42.0498 16.77C42.1498 19.27 42.2598 21.77 42.3598 24.27C42.5098 27.75 42.6898 31.27 42.7798 34.72C42.8398 36.96 42.7798 39.2 42.7098 41.43C42.6298 43.84 42.4498 46.25 42.3098 48.66C42.3098 48.92 42.3098 49.19 42.3098 49.53C43.3098 48.89 44.2198 48.34 45.0898 47.72C48.5557 45.2313 51.7799 42.4223 54.7198 39.33C56.389 37.697 57.7447 35.7718 58.7198 33.65C58.7564 33.5325 58.8217 33.4259 58.9098 33.34C59.0466 33.2433 59.2128 33.1973 59.3798 33.21C59.4495 33.2539 59.5088 33.3124 59.5537 33.3815C59.5986 33.4505 59.628 33.5285 59.6398 33.61C59.6441 33.7843 59.6027 33.9566 59.5198 34.11C58.8128 35.9358 57.7981 37.6269 56.5198 39.11C54.3152 41.678 51.9255 44.081 49.3698 46.3C47.7786 47.723 46.0066 48.9301 44.0998 49.89C43.5661 50.2534 42.9356 50.4485 42.2898 50.45C41.8598 55.81 41.6598 61.15 41.3998 66.57C41.5903 66.5106 41.7773 66.4405 41.9598 66.36C42.5311 66.0906 43.0854 65.7867 43.6198 65.45C45.8798 63.86 48.1798 62.31 50.3598 60.61C53.4198 58.2 56.3098 55.61 59.1298 52.91C60.949 51.2868 62.5342 49.419 63.8398 47.36C63.8706 47.2973 63.9111 47.24 63.9598 47.19C64.0251 47.094 64.1242 47.0262 64.2374 47.0003C64.3505 46.9743 64.4693 46.9921 64.5698 47.05C64.6227 47.0745 64.67 47.1095 64.709 47.1528C64.7479 47.1961 64.7776 47.2469 64.7963 47.3021C64.815 47.3573 64.8223 47.4157 64.8178 47.4738C64.8132 47.5319 64.7969 47.5884 64.7698 47.64C64.6966 47.818 64.6131 47.9916 64.5198 48.16C63.6304 49.7426 62.5415 51.2046 61.2798 52.51C59.1098 54.85 56.7498 57 54.3998 59.16C51.6304 61.7933 48.6169 64.1573 45.3998 66.22C44.1736 67.0603 42.8242 67.7046 41.3998 68.13C41.3998 68.13 41.3498 68.13 41.3398 68.19C41.1132 72.39 40.8832 76.5767 40.6498 80.75C40.6498 81.16 40.6498 81.56 40.6498 81.97C40.6454 82.0032 40.6454 82.0368 40.6498 82.07C40.6498 82.07 40.6498 82.07 40.7498 82.07C40.9258 81.9879 41.0962 81.8944 41.2598 81.79C42.4298 80.97 43.6098 80.17 44.7598 79.32C48.3898 76.63 52.0098 73.91 55.6398 71.21L56.1798 70.78C57.8398 69.39 59.5098 68.01 61.1798 66.61C63.8238 64.538 66.2406 62.1916 68.3898 59.61C68.4498 59.53 68.5299 59.42 68.6199 59.4C68.7725 59.3496 68.9372 59.3496 69.0898 59.4C69.1392 59.4569 69.1748 59.5243 69.1939 59.5972C69.213 59.67 69.215 59.7462 69.1998 59.82C69.1471 59.9872 69.0583 60.1408 68.9398 60.27C67.9398 61.44 67.0398 62.69 65.9398 63.77C64.2298 65.5 62.4398 67.14 60.6398 68.77C58.4228 70.8488 56.0854 72.7955 53.6398 74.6C50.7498 76.6 47.9698 78.84 45.1398 80.96C43.7718 82.0768 42.2536 82.9958 40.6298 83.69C40.5076 83.7457 40.4111 83.8458 40.3598 83.97C40.3062 84.2236 40.2728 84.4811 40.2598 84.74C40.4198 84.74 40.5098 84.83 40.6098 84.85C42.0227 85.2319 43.464 85.4994 44.9198 85.65C46.8373 85.9232 48.7732 86.0469 50.7098 86.02C52.0398 86.02 53.3798 85.85 54.7098 85.69C55.3844 85.5609 56.052 85.3974 56.7098 85.2C58.3698 84.82 60.0398 84.46 61.7098 84.07C61.9673 84.0082 62.216 83.9142 62.4498 83.79C64.362 82.8831 66.1555 81.7446 67.7898 80.4C70.2577 78.2909 72.4605 75.89 74.3498 73.25C76.2056 70.721 77.6968 67.9439 78.7798 65C79.6401 62.6869 80.077 60.2379 80.0698 57.77C80.003 55.1625 79.6679 52.5688 79.0698 50.03C78.3899 46.784 77.2483 43.6521 75.6798 40.73C73.9269 37.6467 71.7526 34.8229 69.2198 32.34C68.0198 31.11 66.8198 29.86 65.5998 28.65C64.2298 27.3 62.8398 25.98 61.4598 24.65C60.2398 23.48 59.0898 22.23 57.7998 21.14C55.0598 18.84 52.2798 16.6 49.4698 14.38C45.8313 11.7114 42.7983 8.30354 40.5698 4.38C40.189 3.76882 39.7539 3.19317 39.2698 2.66C39.1661 2.54588 39.0485 2.4451 38.9198 2.36C38.9198 2.52 38.8498 2.61 38.8298 2.71C38.6498 3.52 38.4798 4.33 38.3098 5.14C37.6047 8.66647 35.9798 11.9439 33.5998 14.64C31.7998 16.64 29.8398 18.55 27.9198 20.47C25.9998 22.39 24.2398 24.07 22.4098 25.87C21.4098 26.81 20.5198 27.77 19.5698 28.72C16.8798 31.4 14.0598 33.96 11.4798 36.72C9.44011 38.9641 7.6248 41.4024 6.05985 44C3.55334 47.9886 2.17129 52.5805 2.05985 57.29C2.01256 60.6423 2.29053 63.9913 2.88985 67.29C3.72153 72.2669 5.39551 77.0656 7.83985 81.48C9.49474 84.5618 11.7489 87.2817 14.4698 89.48C16.4639 91.1386 18.7789 92.3676 21.2698 93.09C22.0117 93.3158 22.7845 93.4238 23.5598 93.41C24.5598 93.41 25.5598 93.3 26.6098 93.19C30.506 92.6534 34.1871 91.0822 37.2698 88.64C37.4498 88.5 37.6098 88.33 37.7898 88.19C37.9587 88.0632 38.0929 87.896 38.1803 87.7038C38.2677 87.5116 38.3053 87.3006 38.2898 87.09C38.2956 86.7257 38.319 86.362 38.3598 86C38.3598 85.53 38.4198 85.06 38.4498 84.61C38.091 84.4076 37.7556 84.1661 37.4498 83.89C37.3773 83.7715 37.2808 83.6694 37.1666 83.5903C37.0525 83.5111 36.923 83.4566 36.7866 83.4303C36.6502 83.4039 36.5097 83.4063 36.3743 83.4372C36.2388 83.4682 36.1113 83.527 35.9998 83.61C35.8697 83.6676 35.7314 83.7047 35.5898 83.72C34.158 84.0198 32.6829 84.0504 31.2398 83.81C29.5863 83.5371 27.9864 83.0038 26.4998 82.23C22.7723 80.3475 19.1951 78.1811 15.7998 75.75C13.7864 74.3541 11.8962 72.7884 10.1498 71.07C10.0051 70.967 9.8882 70.8295 9.80984 70.67C9.77692 70.5769 9.76435 70.4779 9.77297 70.3796C9.7816 70.2812 9.81122 70.1859 9.85985 70.1C9.95985 69.99 10.2298 70 10.4198 70.03C10.6098 70.06 10.6498 70.18 10.7598 70.27C16.0966 74.8073 22.0702 78.537 28.4898 81.34C30.2176 82.1235 32.1042 82.4933 33.9998 82.42C34.5719 82.4342 35.1424 82.3565 35.6898 82.19C35.6898 82.13 35.6898 82.11 35.6898 82.1C35.3798 81.72 35.0498 81.35 34.7398 80.97C31.5009 77.0631 28.6351 72.8614 26.1798 68.42C24.4074 65.2932 22.9278 62.0092 21.7598 58.61C21.0698 56.45 20.3998 54.27 19.7598 52.09C18.5898 48 17.4698 44 16.3598 39.88C16.1098 38.96 15.9498 38.02 15.7798 37.08C15.6898 36.61 15.7798 36.34 16.0998 36.3C16.4198 36.26 16.5398 36.47 16.6498 36.91C16.6498 36.91 16.6498 36.98 16.6498 37.01C16.8098 37.66 16.9598 38.31 17.1398 38.95C18.6998 44.59 20.4998 50.15 22.3298 55.7C23.293 58.7837 24.4829 61.7919 25.8898 64.7C28.0317 69.1069 30.6256 73.2793 33.6298 77.15C35.0264 78.9873 36.515 80.7529 38.0898 82.44C38.2298 82.59 38.3798 82.72 38.6098 82.94C38.6098 82.65 38.6698 82.48 38.6798 82.32L38.8298 79.73C38.9898 76.69 39.1465 73.6467 39.2998 70.6C39.4098 68.44 39.4998 66.28 39.6198 64.11C39.658 63.9088 39.6441 63.7011 39.5793 63.5069C39.5145 63.3126 39.4011 63.1381 39.2498 63C39.0924 62.859 38.9545 62.6976 38.8398 62.52C37.6998 60.89 36.5298 59.27 35.4298 57.62C33.171 54.1759 31.3123 50.4854 29.8898 46.62C28.2032 42.1667 26.5065 37.7233 24.7998 33.29C24.7311 33.1676 24.6933 33.0303 24.6898 32.89C24.6991 32.8154 24.7245 32.7436 24.7642 32.6798C24.8039 32.6159 24.857 32.5614 24.9198 32.52C24.9902 32.5005 25.0638 32.4958 25.1361 32.5061C25.2084 32.5165 25.2777 32.5416 25.3398 32.58C25.4651 32.6775 25.559 32.8096 25.6098 32.96C25.8798 33.5 26.1598 34.03 26.3898 34.58C27.7232 37.7 29.0265 40.82 30.2998 43.94C31.6886 47.4438 33.3088 50.8513 35.1498 54.14C36.5098 56.47 38.0898 58.66 39.5798 60.9C39.5798 60.96 39.6698 60.99 39.7498 61.06C39.7498 60.39 39.8298 59.78 39.8698 59.16C39.9298 58.04 39.9698 56.91 40.0398 55.78C40.1598 53.9 40.2898 52.02 40.3998 50.14C40.4998 48.61 40.5598 47.08 40.6498 45.55C40.6711 45.2737 40.5891 44.9994 40.4198 44.78C39.7823 43.8865 39.1947 42.9584 38.6598 42C37.4098 39.62 36.2098 37.2 35.0498 34.77C34.2779 33.2057 33.71 31.5489 33.3598 29.84C33.2998 29.6356 33.2728 29.4229 33.2798 29.21C33.2922 29.1196 33.3247 29.0332 33.3749 28.9571C33.4251 28.8809 33.4917 28.817 33.5698 28.77C33.6582 28.762 33.7473 28.774 33.8304 28.8051C33.9135 28.8363 33.9885 28.8858 34.0498 28.95C34.1613 29.1477 34.2454 29.3597 34.2998 29.58C34.6198 30.51 34.8898 31.47 35.2998 32.37C36.8056 35.7901 38.5534 39.0985 40.5298 42.27C40.5698 42.4 40.6598 42.5 40.7798 42.66Z" fill="black"/>
<path d="M24.4699 91.87C23.4699 91.64 22.4699 91.46 21.5599 91.16C18.6485 90.2811 15.9328 88.852 13.5599 86.95C11.9521 85.6007 10.5653 84.0081 9.44987 82.23C8.3708 80.4752 7.41515 78.6475 6.58987 76.76C5.96987 75.44 5.39987 74.1 4.79987 72.76C4.79987 72.7 4.71987 72.63 4.72987 72.57C4.73818 72.472 4.78065 72.3799 4.84987 72.31C4.84987 72.31 5.02987 72.31 5.06987 72.37C5.18402 72.5259 5.28124 72.6935 5.35987 72.87C6.24987 74.72 7.12987 76.58 8.02987 78.43C8.92965 80.3403 10.0543 82.1363 11.3799 83.78C13.0417 85.7674 15.081 87.4056 17.3799 88.6C18.9766 89.4297 20.6514 90.0996 22.3799 90.6C23.0699 90.8 23.7899 90.9 24.4999 91.04C24.6391 91.0512 24.7766 91.078 24.9099 91.12C25.0259 91.2021 25.1331 91.2959 25.2299 91.4C25.1211 91.5196 24.9966 91.6238 24.8599 91.71C24.7799 91.71 24.6599 91.71 24.5499 91.71L24.4699 91.87Z" fill="black"/>
<path d="M19.1997 55.2C19.2797 55.33 19.3597 55.47 19.4297 55.61C19.5997 55.97 19.7897 56.33 19.9397 56.71C20.8697 59.1 21.8197 61.48 22.7097 63.89C23.6581 66.2985 24.7741 68.6376 26.0497 70.89C26.7497 72.21 27.5197 73.49 28.2497 74.8C28.5997 75.43 28.9197 76.08 29.2497 76.72C29.3215 76.8381 29.3754 76.9661 29.4097 77.1C29.4092 77.229 29.389 77.3572 29.3497 77.48C29.2294 77.4725 29.1112 77.4455 28.9997 77.4C28.9008 77.3013 28.8196 77.1863 28.7597 77.06C26.9097 74.06 25.1197 70.96 23.5197 67.78C22.6152 65.8547 21.8336 63.8741 21.1797 61.85C20.5397 60.1 19.9197 58.34 19.2897 56.59C19.1697 56.28 19.0097 55.98 18.9097 55.67C18.9097 55.56 18.9697 55.42 18.9997 55.3L19.1997 55.2Z" fill="black"/>
<path d="M77.3299 62.43C77.2399 62.86 77.1799 63.25 77.0899 63.62C76.5596 65.7347 75.8915 67.8125 75.0899 69.84C74.4152 71.349 73.5223 72.7507 72.4399 74C70.9279 75.8591 69.1798 77.5131 67.2399 78.92C66.5299 79.47 65.8299 80.03 65.1199 80.57C64.9824 80.6845 64.827 80.7757 64.6599 80.84C64.5699 80.84 64.3699 80.84 64.3499 80.84C64.3224 80.7822 64.3081 80.719 64.3081 80.655C64.3081 80.591 64.3224 80.5278 64.3499 80.47C64.4995 80.299 64.6671 80.1448 64.8499 80.01C66.1099 79.01 67.3599 77.91 68.6299 76.87C70.5295 75.2666 72.172 73.3814 73.4999 71.28C73.9531 70.5649 74.3222 69.7998 74.5999 69C75.3399 66.92 76.0199 64.81 76.7199 62.71C76.7501 62.5937 76.7973 62.4825 76.8599 62.38C76.9199 62.31 77.0499 62.23 77.1199 62.25C77.1899 62.27 77.2699 62.37 77.3299 62.43Z" fill="black"/>
<path d="M3.48975 57.3C3.59311 54.7309 3.96854 52.18 4.60975 49.69C5.07364 48.1205 5.74632 46.6204 6.60975 45.23C7.37975 43.96 8.18975 42.73 8.97975 41.48C9.09975 41.3 9.18975 41 9.47975 41.16C9.76975 41.32 9.62975 41.61 9.47975 41.82C9.11975 42.47 8.74975 43.11 8.37975 43.74C7.49334 45.1889 6.69845 46.6918 5.99975 48.24C5.38719 49.7209 4.96385 51.2732 4.73975 52.86C4.53975 54.09 4.36975 55.33 4.24975 56.57C4.21639 57.2363 4.21639 57.9038 4.24975 58.57C4.24975 58.77 4.32975 59.02 4.05975 59.03C3.78975 59.04 3.72975 58.8 3.69975 58.66C3.56975 58.21 3.53975 57.7 3.48975 57.3Z" fill="black"/>
<path d="M57.1298 69C57.0203 69.1908 56.8894 69.3686 56.7398 69.53C56.3298 69.91 55.8998 70.27 55.4698 70.63C52.0498 73.49 48.4698 76.13 44.8098 78.63C44.2998 78.98 43.8098 79.3 43.2598 79.63C43.0898 79.73 42.9098 79.86 42.7498 79.63C42.5898 79.4 42.7498 79.26 42.8398 79.11C42.9561 79.0016 43.0797 78.9014 43.2098 78.81L53.3198 71.26C54.3198 70.5 55.3698 69.71 56.3898 68.93C56.4898 68.86 56.5998 68.75 56.6998 68.75C56.7998 68.75 56.9398 68.94 57.1298 69Z" fill="black"/>
<path d="M43.5601 63.47C43.6609 63.3781 43.7715 63.2976 43.8901 63.23C45.7267 62.3803 47.4446 61.2945 49.0001 60C51.3101 58.13 53.5801 56.21 55.8601 54.3C56.3501 53.88 56.7801 53.39 57.2401 52.92C57.3801 52.78 57.5101 52.6 57.7201 52.77C57.9301 52.94 57.8201 53.13 57.7201 53.28C57.4497 53.6665 57.1451 54.028 56.8101 54.36C54.8101 56.12 52.8701 57.87 50.8801 59.6C49.4333 60.8615 47.858 61.9676 46.1801 62.9C45.5626 63.2304 44.9246 63.521 44.2701 63.77C44.0001 63.82 43.7201 63.89 43.5601 63.47Z" fill="black"/>
<path d="M30.85 85.1C30.63 85.1 30.5 85.04 30.39 85C28.4131 84.4324 26.4838 83.7102 24.62 82.84C22.3587 81.7402 20.223 80.3991 18.25 78.84C17.9148 78.5565 17.6007 78.249 17.31 77.92C17.19 77.8 17.05 77.63 17.23 77.46C17.41 77.29 17.55 77.46 17.69 77.54C20.7963 80.0542 24.2968 82.0376 28.05 83.41C28.91 83.75 29.79 84.06 30.66 84.41C30.7646 84.4382 30.8629 84.4857 30.95 84.55C31.04 84.65 31.19 84.83 31.15 84.9C31.11 84.97 30.92 85.05 30.85 85.1Z" fill="black"/>
<path d="M26.7098 42.44C26.8098 42.55 26.9698 42.63 27.0198 42.75C28.5898 46.29 30.1298 49.83 31.7198 53.36C32.1798 54.36 32.7698 55.36 33.2898 56.36C33.6598 57.08 34.0098 57.81 34.3598 58.54C34.419 58.6492 34.4595 58.7675 34.4798 58.89C34.4662 59.015 34.4428 59.1387 34.4098 59.26C34.2783 59.2068 34.1513 59.1433 34.0298 59.07C33.975 59.0041 33.9311 58.9298 33.8998 58.85C33.3598 57.85 32.7998 56.92 32.2698 55.95C31.9019 55.3012 31.5681 54.6336 31.2698 53.95C29.8765 50.81 28.5032 47.6667 27.1498 44.52C26.9452 44.0178 26.7715 43.5035 26.6298 42.98C26.5951 42.8154 26.575 42.6481 26.5698 42.48L26.7098 42.44Z" fill="black"/>
<path d="M56.1199 35.66C56.0435 35.8253 55.9566 35.9857 55.8599 36.14C55.2499 36.91 54.6599 37.7 54.0099 38.44C52.4707 40.2961 50.7708 42.0127 48.9299 43.57C47.6299 44.57 46.2499 45.57 44.9299 46.57C44.8666 46.6336 44.787 46.6785 44.6999 46.7C44.6099 46.7 44.4499 46.7 44.4299 46.7C44.4079 46.6495 44.3965 46.5951 44.3965 46.54C44.3965 46.4849 44.4079 46.4305 44.4299 46.38C44.5227 46.2507 44.6378 46.1389 44.7699 46.05C45.7699 45.3 46.7699 44.57 47.6899 43.8C48.2683 43.3426 48.8224 42.8553 49.3499 42.34C51.3499 40.4 53.2699 38.44 55.0499 36.34C55.2599 36.1 55.4299 35.83 55.6399 35.6C55.684 35.5603 55.7369 35.5314 55.7942 35.5158C55.8515 35.5001 55.9117 35.4982 55.9699 35.51C55.9999 35.44 56.0499 35.57 56.1199 35.66Z" fill="black"/>
<path d="M17.0898 54.44C17.0898 54.44 17.1798 54.24 17.2298 54.24C17.2839 54.2415 17.337 54.2547 17.3854 54.2789C17.4338 54.3031 17.4762 54.3376 17.5098 54.38C17.6003 54.5479 17.6708 54.7257 17.7198 54.91C18.8098 58.14 19.8598 61.39 21.0098 64.6C21.5498 66.12 22.2498 67.6 22.9098 69.06C23.1398 69.55 23.4598 70 23.7098 70.48C23.7354 70.6188 23.7354 70.7612 23.7098 70.9C23.5798 70.85 23.3798 70.85 23.3198 70.75C22.8657 70.1095 22.4516 69.4416 22.0798 68.75C20.6275 65.702 19.4236 62.5417 18.4798 59.3C18.0398 57.82 17.5898 56.3 17.1498 54.86L17.0898 54.44Z" fill="black"/>
<path d="M50.1798 16.56C50.4298 16.74 50.5898 16.84 50.7298 16.96C51.9998 18 53.1698 19.1 54.4198 20.13C56.5456 21.8823 58.5502 23.7767 60.4198 25.8C60.7798 26.19 61.1898 26.54 61.5598 26.91C61.7001 27.0437 61.8304 27.1874 61.9498 27.34C62.0598 27.48 62.1698 27.64 61.9498 27.81C61.7298 27.98 61.6298 27.81 61.4998 27.72C60.9798 27.24 60.4198 26.8 59.9498 26.28C57.7406 23.9355 55.3716 21.7469 52.8598 19.73C51.9998 19 51.1798 18.1 50.3098 17.28C50.2198 17.2 50.0998 17.11 50.0698 17.01C50.079 16.8546 50.1163 16.7021 50.1798 16.56Z" fill="black"/>
<path d="M39.21 21.77C39.5 22 39.47 22.35 39.49 22.67C39.49 23.33 39.55 24 39.58 24.67C39.67 27.24 39.89 29.8 39.81 32.37C39.77 33.7633 39.74 35.1533 39.72 36.54C39.72 36.85 39.77 37.16 39.79 37.48C39.49 37.64 39.33 37.48 39.26 37.25C39.177 36.981 39.1332 36.7015 39.13 36.42C39.13 35.31 39.13 34.2 39.13 33.1C39.13 30.53 39.05 27.96 39.01 25.39C39.01 24.33 39.01 23.28 38.95 22.22C38.94 22 38.93 21.83 39.21 21.77Z" fill="black"/>
<path d="M10.0996 80.41C10.4996 80.24 10.6196 80.49 10.7596 80.64C11.9196 81.87 13.0496 83.13 14.2296 84.34C15.8927 86.0823 17.8449 87.5236 19.9996 88.6C20.2096 88.71 20.5896 88.79 20.4396 89.12C20.2896 89.45 19.9796 89.22 19.7896 89.12C19.0303 88.7931 18.2922 88.419 17.5796 88C15.1979 86.4502 13.0978 84.5057 11.3696 82.25C11.0396 81.82 10.6796 81.4 10.3696 80.97C10.2583 80.7944 10.1677 80.6065 10.0996 80.41Z" fill="black"/>
<path d="M38.8697 56.41C38.6397 56.59 38.4397 56.46 38.3297 56.21C38.2352 56.0025 38.1841 55.7779 38.1797 55.55C38.1797 54.3 38.2497 53.06 38.3197 51.81C38.3897 50.56 38.4997 49.32 38.5997 48.08C38.5997 47.36 38.7097 46.64 38.7697 45.92C38.7697 45.74 38.7697 45.49 39.0397 45.5C39.3097 45.51 39.3797 45.74 39.3797 45.96C39.3797 46.61 39.3797 47.26 39.3797 47.91C39.3297 48.82 39.2697 49.74 39.2097 50.65C39.1097 52.21 38.9997 53.77 38.9097 55.33C38.8497 55.68 38.8697 56 38.8697 56.41Z" fill="black"/>
<path d="M57.13 66.85C57.19 67.21 56.95 67.37 56.75 67.53C55.84 68.25 54.93 68.97 54.01 69.67C52.5 70.82 51.01 71.97 49.45 73.09C48.9 73.49 48.3 73.83 47.71 74.18C47.56 74.27 47.36 74.45 47.2 74.18C47.04 73.91 47.26 73.8 47.43 73.67L51.89 70.38L56.6 66.91C56.76 66.83 56.9 66.67 57.13 66.85Z" fill="black"/>
<path d="M13.9998 77.35C14.1259 77.4089 14.2464 77.4792 14.3598 77.56C16.2237 78.9766 18.1965 80.2438 20.2598 81.35L24.0998 83.56C24.1781 83.5984 24.2519 83.6454 24.3198 83.7C24.3818 83.8112 24.432 83.9285 24.4698 84.05C24.3398 84.05 24.1998 84.16 24.0998 84.13C23.8012 84.0239 23.5105 83.897 23.2298 83.75C21.0308 82.6274 18.9003 81.3752 16.8498 80C16.0198 79.44 15.2198 78.84 14.4098 78.25C14.2255 78.1117 14.0665 77.9425 13.9398 77.75C13.8898 77.69 13.9998 77.53 13.9998 77.35Z" fill="black"/>
<path d="M58.1898 25.93C57.8398 26.16 57.6698 25.93 57.4898 25.77C56.4098 24.82 55.3598 23.84 54.2698 22.89C52.8498 21.66 51.4098 20.44 49.9798 19.22L48.0898 17.61L47.9698 17.51C47.8498 17.4 47.7098 17.27 47.8698 17.12C47.9254 17.0911 47.9871 17.076 48.0498 17.076C48.1124 17.076 48.1742 17.0911 48.2298 17.12C48.497 17.2954 48.754 17.4857 48.9998 17.69L53.1498 21C53.4698 21.26 53.7598 21.53 54.0598 21.81C54.9398 22.62 55.8198 23.42 56.6898 24.25C57.1598 24.7 57.5998 25.18 58.0498 25.65C58.1154 25.7326 58.1631 25.828 58.1898 25.93Z" fill="black"/>
<path d="M37.3499 68.56C37.4599 68.66 37.6199 68.73 37.6699 68.86C37.7529 69.0352 37.7972 69.2262 37.7999 69.42C37.7999 71.28 37.7999 73.15 37.7999 75.01C37.7999 76.24 37.7399 77.47 37.6999 78.7C37.7252 78.8389 37.7252 78.9811 37.6999 79.12C37.6399 79.24 37.5099 79.41 37.4099 79.41C37.339 79.3969 37.2726 79.3663 37.2167 79.3209C37.1608 79.2754 37.1172 79.2167 37.0899 79.15C36.9936 78.7914 36.9465 78.4213 36.9499 78.05C36.9499 77.05 36.9499 76.11 37.0699 75.15C37.2447 73.1551 37.3081 71.152 37.2599 69.15V68.59L37.3499 68.56Z" fill="black"/>
<path d="M28.22 50.2C28.15 50.29 28.09 50.43 28 50.46C27.91 50.49 27.74 50.36 27.69 50.2C27.03 48.2 26.35 46.31 25.69 44.36C25.45 43.64 25.28 42.91 25.08 42.18C25.038 42.0468 25.0112 41.9092 25 41.77C25 41.7 25.08 41.57 25.12 41.57C25.1679 41.5674 25.2159 41.5749 25.2607 41.5922C25.3055 41.6094 25.3462 41.6359 25.38 41.67C25.4444 41.7752 25.4917 41.8899 25.52 42.01C26.28 44.31 27.05 46.61 27.81 48.91C28 49.32 28.08 49.74 28.22 50.2Z" fill="black"/>
<path d="M74.3599 65.16C74.3547 65.3182 74.3346 65.4756 74.2999 65.63C74.1299 66.13 73.9599 66.63 73.7499 67.11C73.0193 68.8163 72.1357 70.453 71.1099 72C70.9799 72.21 70.8499 72.56 70.5299 72.35C70.2099 72.14 70.5299 71.9 70.5999 71.7C70.9399 71.0733 71.2999 70.4533 71.6799 69.84C72.5674 68.4666 73.3113 67.0056 73.8999 65.48C73.9999 65.27 73.9999 65.05 74.3599 65.16Z" fill="black"/>
<path d="M18.4699 52.79C18.4699 53.09 18.5499 53.44 18.1899 53.49C17.8299 53.54 17.8399 53.15 17.7999 52.92C17.5199 51.39 17.2599 49.85 16.9899 48.32C16.9319 48.0458 16.8885 47.7688 16.8599 47.49C16.8599 47.4 16.9499 47.29 16.9999 47.19C17.0999 47.24 17.2399 47.27 17.2899 47.36C17.3798 47.5295 17.4439 47.7115 17.4799 47.9C17.7899 49.37 18.0999 50.84 18.3999 52.32C18.4399 52.49 18.4499 52.66 18.4699 52.79Z" fill="black"/>
<path d="M33.15 33.87C33.26 33.98 33.42 34.06 33.48 34.19C34.24 35.8233 34.9967 37.46 35.75 39.1C35.8387 39.2196 35.8922 39.3616 35.9046 39.51C35.917 39.6584 35.8877 39.8073 35.82 39.94C35.5 40.06 35.41 39.82 35.32 39.62L34.58 37.94C34.09 36.83 33.58 35.73 33.12 34.61C33.0604 34.411 33.0202 34.2067 33 34L33.15 33.87Z" fill="black"/>
<path d="M35.9999 70C36.1327 70.0936 36.2355 70.2237 36.2959 70.3746C36.3562 70.5255 36.3715 70.6906 36.3399 70.85C36.3399 72.43 36.3399 74.01 36.2799 75.59C36.2799 75.78 36.2799 75.98 36.0799 76.01C35.8799 76.04 35.7799 75.86 35.7699 75.67C35.7699 75.11 35.6999 74.55 35.7699 73.99C35.7699 72.82 35.8799 71.64 35.9499 70.47C35.9571 70.3125 35.9738 70.1555 35.9999 70Z" fill="black"/>
<path d="M49.5498 58C49.5967 57.8354 49.6711 57.6799 49.7698 57.54C51.0198 56.46 52.2898 55.4 53.5498 54.34C53.683 54.2535 53.8278 54.1861 53.9798 54.14C54.1798 54.44 53.9798 54.56 53.8598 54.68C52.7865 55.62 51.7131 56.5567 50.6398 57.49C50.5052 57.6481 50.3383 57.7754 50.1502 57.8634C49.9622 57.9514 49.7574 57.998 49.5498 58Z" fill="black"/>
<path d="M7.8099 47.71C8.1399 47.98 7.9999 48.2 7.9299 48.4C7.5499 49.4 7.1699 50.33 6.7999 51.29C6.6299 51.73 6.4699 52.17 6.2999 52.64C6.23562 52.6214 6.17605 52.5893 6.12517 52.5458C6.0743 52.5024 6.03328 52.4486 6.00488 52.388C5.97648 52.3274 5.96135 52.2614 5.96049 52.1945C5.95963 52.1276 5.97307 52.0613 5.9999 52C6.06535 51.7073 6.15225 51.4199 6.2599 51.14C6.6499 50.2 7.0499 49.27 7.4599 48.33C7.56241 48.1156 7.67934 47.9085 7.8099 47.71Z" fill="black"/>
<path d="M37.5001 47.49C37.5701 47.69 37.6601 47.82 37.6501 47.93C37.4953 49.3076 37.4352 50.6942 37.4701 52.08C37.4701 52.31 37.4701 52.66 37.1901 52.67C36.9101 52.68 36.9001 52.33 36.9101 52.1C36.9701 50.84 37.0401 49.58 37.1201 48.32C37.1234 48.163 37.1588 48.0084 37.2242 47.8657C37.2895 47.7229 37.3834 47.5951 37.5001 47.49Z" fill="black"/>
<path d="M37.5098 21.81C37.5571 21.9867 37.5872 22.1675 37.5998 22.35C37.5998 22.9 37.4898 23.44 37.4998 23.98C37.5098 24.52 37.5998 25.34 37.6498 25.98C37.6592 26.0865 37.6592 26.1935 37.6498 26.3C37.647 26.3451 37.6309 26.3884 37.6036 26.4245C37.5763 26.4605 37.5389 26.4877 37.4962 26.5027C37.4535 26.5176 37.4074 26.5196 37.3636 26.5085C37.3197 26.4973 37.2802 26.4735 37.2498 26.44C37.1373 26.3307 37.0576 26.1922 37.0198 26.04C36.7825 24.7458 36.8269 23.4156 37.1498 22.14C37.164 22.0721 37.1912 22.0076 37.2298 21.95C37.3187 21.895 37.4124 21.8482 37.5098 21.81Z" fill="black"/>
<path d="M26.2701 41C26.2739 41.0451 26.2654 41.0904 26.2455 41.1311C26.2256 41.1718 26.195 41.2063 26.157 41.2309C26.119 41.2556 26.0751 41.2694 26.0298 41.271C25.9846 41.2726 25.9397 41.2619 25.9001 41.24C25.7886 41.187 25.6974 41.0993 25.6401 40.99C25.2801 40.22 24.9201 39.43 24.5801 38.64C24.5801 38.55 24.6401 38.41 24.6701 38.28C24.7801 38.34 24.9501 38.38 25.0001 38.47C25.4201 39.26 25.8201 40.06 26.2301 40.86C26.2468 40.9056 26.2602 40.9524 26.2701 41Z" fill="black"/>
<path d="M8.28004 75.66L9.73004 79.13C9.41004 79.33 9.26004 79.13 9.19004 78.99C8.79004 77.99 8.41004 76.99 8.04004 75.99C8.04004 75.9 8.04004 75.76 8.04004 75.65L8.28004 75.66Z" fill="black"/>
<path d="M46.9998 14.13C47.1152 14.1795 47.2257 14.2398 47.3298 14.31L48.8098 15.66C48.8098 15.66 48.9298 15.76 48.9398 15.82C48.9498 15.88 48.9398 16.1 48.9398 16.24C48.9398 16.38 48.6298 16.24 48.5598 16.24C47.9698 15.69 47.3998 15.12 46.8398 14.55C46.8192 14.5062 46.8086 14.4584 46.8086 14.41C46.8086 14.3616 46.8192 14.3138 46.8398 14.27C46.8398 14.27 46.9098 14.16 46.9998 14.13Z" fill="black"/>
<path d="M59.9997 66.12C59.9401 66.2056 59.8732 66.2859 59.7997 66.36L57.9997 67.93C57.8797 68.03 57.7197 68.18 57.5997 67.99C57.5752 67.9237 57.5679 67.8522 57.5784 67.7823C57.5889 67.7124 57.6168 67.6462 57.6597 67.59C58.0497 67.21 58.4497 66.85 58.8697 66.51C59.1423 66.2922 59.4261 66.0886 59.7197 65.9C59.8897 65.79 60.0497 65.9 59.9997 66.12Z" fill="black"/>
<path d="M38.6101 17.09C38.6101 17.21 38.7501 17.34 38.7401 17.46C38.7235 18.1398 38.8285 18.8171 39.0501 19.46C39.0501 19.57 39.0501 19.73 38.9801 19.87C38.8701 19.79 38.6901 19.73 38.6401 19.62C38.3283 18.9349 38.2107 18.1774 38.3001 17.43C38.3307 17.3153 38.3815 17.2069 38.4501 17.11L38.6101 17.09Z" fill="black"/>
<path d="M77.1396 60.36C76.9496 60.15 76.8596 60.09 76.8196 60C76.7906 59.9192 76.7906 59.8308 76.8196 59.75C77.0596 59.14 77.3096 58.52 77.5696 57.91C77.5696 57.83 77.7796 57.79 77.8896 57.74C77.9996 57.69 77.9796 57.96 77.9496 58.05C77.7396 58.7 77.5096 59.34 77.2796 59.98C77.2397 60.1091 77.193 60.2359 77.1396 60.36Z" fill="black"/>
<path d="M13.17 75C13.9023 75.34 14.577 75.7921 15.17 76.34C15.24 76.41 15.23 76.58 15.25 76.7C15.27 76.82 14.96 76.7 14.88 76.7C14.3 76.28 13.73 75.85 13.17 75.4C13.09 75.34 13.08 75.19 13.04 75.08L13.17 75Z" fill="black"/>
<path d="M37.6897 67.29C37.6897 67.55 37.7397 67.81 37.6897 68.07C37.6897 68.17 37.5697 68.26 37.5097 68.35C37.4097 68.28 37.2197 68.2 37.2197 68.12C37.2197 67.55 37.2197 66.97 37.2197 66.39C37.2197 66.32 37.3797 66.25 37.4597 66.17C37.5297 66.26 37.6397 66.35 37.6497 66.44C37.6497 66.72 37.6497 67 37.6497 67.28L37.6897 67.29Z" fill="black"/>
</svg>
