<svg width="86" height="98" viewBox="0 0 86 98" fill="none" xmlns="http://www.w3.org/2000/svg">
<path d="M74.9999 73.92C75.0699 74.22 75.1299 74.46 75.1799 74.7C75.3159 75.1482 75.2903 75.63 75.1076 76.0612C74.9248 76.4925 74.5965 76.846 74.1799 77.06C73.3168 77.589 72.4141 78.0504 71.4799 78.44C70.9577 78.6387 70.4814 78.9415 70.0799 79.33C69.3299 80.09 68.5599 80.83 67.7799 81.56C66.8467 82.42 65.7276 83.053 64.5099 83.41C62.0864 84.1734 59.6049 84.7386 57.0899 85.1C55.8641 85.3166 54.6241 85.4436 53.3799 85.48C52.4926 85.498 51.6108 85.3362 50.7876 85.0046C49.9644 84.6729 49.2169 84.1781 48.5899 83.55C47.7799 82.76 46.9699 81.99 46.1399 81.24C45.7178 80.8532 45.2163 80.5633 44.6704 80.3906C44.1246 80.2178 43.5476 80.1665 42.9799 80.24C42.3817 80.2986 41.8111 80.52 41.3299 80.88C40.9712 81.2184 40.7581 81.6831 40.7357 82.1757C40.7133 82.6684 40.8833 83.1504 41.2099 83.52C41.4616 83.7882 41.7435 84.0265 42.0499 84.23C43.2699 85.05 44.5299 85.82 45.7299 86.67C47.6077 87.8799 49.2202 89.4584 50.4699 91.31C50.8811 91.9824 51.2421 92.6844 51.5499 93.41C51.6296 93.5401 51.6688 93.691 51.6626 93.8435C51.6564 93.9959 51.605 94.1431 51.515 94.2663C51.425 94.3896 51.3004 94.4833 51.1571 94.5355C51.0137 94.5878 50.8581 94.5963 50.7099 94.56C49.7099 94.49 48.6499 94.37 47.6199 94.28H47.1499C47.0088 94.5852 46.845 94.8794 46.6599 95.16C46.2569 95.7273 45.6914 96.1591 45.0379 96.3984C44.3845 96.6376 43.6739 96.673 42.9999 96.5C42.8079 96.4512 42.6074 96.4465 42.4134 96.4864C42.2195 96.5262 42.037 96.6095 41.8799 96.73C41.4833 97.0547 41.0067 97.2668 40.5001 97.3442C39.9934 97.4216 39.4753 97.3615 38.9999 97.17C38.8595 97.1023 38.7016 97.0795 38.5478 97.1045C38.394 97.1296 38.2516 97.2013 38.1399 97.31C37.9035 97.5539 37.5866 97.7037 37.2481 97.7313C36.9096 97.7589 36.5726 97.6624 36.2999 97.46C35.9785 97.2502 35.6712 97.0198 35.3799 96.77C35.3128 96.6911 35.2233 96.6345 35.1232 96.6077C35.0232 96.5809 34.9174 96.5852 34.8199 96.62C34.3583 96.7827 33.8545 96.7799 33.3948 96.6121C32.9351 96.4442 32.548 96.1218 32.2999 95.7C31.754 94.8828 31.3767 93.9649 31.1899 93L30.9199 92L30.4899 92.5C30.217 92.8215 29.8808 93.0832 29.5023 93.2691C29.1238 93.4549 28.7111 93.5607 28.2899 93.58C27.797 93.6284 27.3011 93.525 26.8686 93.2838C26.4361 93.0425 26.0876 92.6748 25.8699 92.23C25.7199 91.97 25.6199 91.69 25.4999 91.43C24.8962 91.3266 24.3502 91.0086 23.9625 90.5345C23.5748 90.0604 23.3714 89.4622 23.3899 88.85C23.3385 88.0462 23.3619 87.2394 23.4599 86.44C23.663 84.3916 23.3359 82.3254 22.5099 80.44C22.5099 80.44 22.4399 80.37 22.3699 80.3C22.2599 80.48 22.1599 80.63 22.0699 80.8C20.2499 84.15 18.4399 87.51 16.5999 90.86C15.9799 91.98 15.3199 93.08 14.5999 94.17C14.416 94.4674 14.1904 94.7368 13.9299 94.97C13.8152 95.0939 13.6585 95.1708 13.4903 95.1856C13.3221 95.2004 13.1544 95.152 13.0199 95.05C12.8804 94.9546 12.7789 94.8131 12.7332 94.6504C12.6875 94.4877 12.7004 94.3141 12.7699 94.16C12.8415 93.965 12.9319 93.7775 13.0399 93.6C14.6299 90.67 16.2099 87.74 17.8099 84.83C18.7399 83.14 19.6999 81.46 20.6399 79.83L20.9599 79.24H20.1999C19.3896 79.2103 18.5889 79.4227 17.8999 79.85C16.3313 80.7592 14.5848 81.3187 12.7799 81.49C12.4816 81.532 12.1778 81.5081 11.8899 81.42C11.2986 81.2465 10.7554 80.9387 10.3026 80.5207C9.8499 80.1026 9.49988 79.5856 9.27986 79.01C9.16168 78.7455 9.0969 78.4602 9.08926 78.1706C9.08161 77.881 9.13124 77.5927 9.23531 77.3223C9.33938 77.0519 9.49583 76.8048 9.69567 76.595C9.89552 76.3853 10.1348 76.217 10.3999 76.1C10.8275 75.9025 11.2686 75.7354 11.7199 75.6L12.4599 75.3C11.6931 75.0382 10.857 75.0666 10.1099 75.38C9.52986 75.58 8.95986 75.81 8.36986 75.98C7.89555 76.1082 7.41491 76.2117 6.92986 76.29C6.52904 76.3016 6.1346 76.3934 5.76986 76.56C5.66956 76.6064 5.56056 76.6309 5.45007 76.6319C5.33958 76.633 5.23013 76.6105 5.12896 76.5661C5.0278 76.5217 4.93723 76.4562 4.86325 76.3742C4.78928 76.2921 4.73359 76.1952 4.69986 76.09C4.61582 75.8873 4.54238 75.6804 4.47986 75.47L3.91986 75.41C3.5207 75.3828 3.14596 75.208 2.86866 74.9196C2.59136 74.6312 2.43137 74.2499 2.41986 73.85C2.42123 73.6598 2.36832 73.4732 2.26736 73.312C2.1664 73.1508 2.02158 73.0218 1.84986 72.94C1.57641 72.7794 1.3383 72.5651 1.14986 72.31C0.910773 72.0116 0.774741 71.6438 0.762122 71.2617C0.749504 70.8795 0.860978 70.5035 1.07986 70.19C1.1957 70.0257 1.25103 69.8263 1.23644 69.6257C1.22186 69.4252 1.13826 69.2359 0.999864 69.09C0.787306 68.8108 0.60621 68.509 0.459864 68.19C0.273613 67.8737 0.171036 67.5152 0.161815 67.1482C0.152593 66.7813 0.237032 66.4181 0.407161 66.0928C0.577289 65.7676 0.827495 65.491 1.13416 65.2893C1.44083 65.0876 1.79383 64.9674 2.15986 64.94C2.27848 64.9182 2.39544 64.8881 2.50986 64.85C2.50986 64.64 2.50986 64.44 2.50986 64.24C2.43849 63.8433 2.47451 63.4347 2.61419 63.0566C2.75387 62.6785 2.99213 62.3447 3.30428 62.0896C3.61642 61.8346 3.99109 61.6677 4.38945 61.6063C4.78781 61.5448 5.19536 61.591 5.56986 61.74C5.99688 61.8898 6.45656 61.9209 6.89986 61.83C7.58035 61.6703 8.29619 61.7777 8.89986 62.13C9.76986 62.65 10.6199 63.2 11.4799 63.75C11.9199 64.03 12.3499 64.34 12.7899 64.63C13.2217 64.9226 13.7205 65.1014 14.2399 65.15C14.2399 64.92 14.1699 64.72 14.1099 64.54C13.8702 63.9302 13.4475 63.4097 12.8999 63.05C11.3999 61.98 9.89986 60.89 8.36986 59.9C6.9965 59.0453 5.84236 57.8809 4.99986 56.5C4.64431 55.8973 4.49345 55.1956 4.56986 54.5C4.59339 54.2766 4.66124 54.0601 4.76943 53.8632C4.87762 53.6663 5.02399 53.4929 5.19997 53.3532C5.37595 53.2136 5.57801 53.1104 5.79434 53.0497C6.01067 52.9891 6.23692 52.9722 6.45986 53C7.00663 53.105 7.53764 53.2797 8.03986 53.52C8.86751 53.914 9.76448 54.1417 10.6799 54.19C10.8696 54.205 11.0602 54.205 11.2499 54.19C11.8299 54.14 11.9799 53.96 11.9199 53.37C11.852 52.9309 11.6196 52.5341 11.2699 52.26C10.7079 51.782 10.0642 51.4093 9.36986 51.16C8.31986 50.72 7.26986 50.27 6.23986 49.8C5.36403 49.3861 4.55507 48.8434 3.83986 48.19C3.46184 47.9 3.18227 47.5007 3.03914 47.0462C2.89601 46.5918 2.89626 46.1043 3.03986 45.65C3.11997 45.4067 3.12864 45.1454 3.06483 44.8973C3.00103 44.6492 2.86743 44.4245 2.67986 44.25C2.47609 44.0326 2.31044 43.7825 2.18986 43.51C2.06014 43.2681 2.00076 42.9947 2.01843 42.7207C2.03611 42.4468 2.13013 42.1833 2.28986 41.96C2.55877 41.5717 2.85627 41.204 3.17986 40.86C3.28222 40.7774 3.34873 40.6585 3.3655 40.5281C3.38227 40.3977 3.34801 40.2658 3.26986 40.16C3.08628 39.8628 2.92581 39.5518 2.78986 39.23C2.65817 38.9489 2.61821 38.6335 2.67564 38.3284C2.73306 38.0233 2.88497 37.744 3.10986 37.53C3.58603 37.0265 4.20282 36.678 4.87986 36.53C4.87986 36.08 4.79986 35.65 4.75986 35.23C4.65219 34.5077 4.82394 33.7715 5.24013 33.1713C5.65631 32.5712 6.28562 32.1523 6.99986 32L7.49986 31.89C7.49986 31.49 7.49986 31.09 7.49986 30.7C7.49986 30.51 7.43986 30.32 7.42986 30.12C7.37986 29.12 7.48986 28.96 8.42986 28.46C8.36986 27.98 8.32986 27.46 8.22986 26.95C8.07986 26.09 7.88986 25.24 7.72986 24.37C7.52595 23.2836 7.57385 22.165 7.86986 21.1C7.91754 20.8932 8.00224 20.6967 8.11986 20.52C8.18087 20.4186 8.26285 20.3314 8.36031 20.2643C8.45777 20.1972 8.56845 20.1517 8.68493 20.1309C8.80142 20.11 8.92101 20.1143 9.0357 20.1435C9.15038 20.1727 9.25749 20.226 9.34986 20.3C9.56662 20.4783 9.75245 20.6912 9.89986 20.93C10.0494 21.1658 10.1799 21.4133 10.2899 21.67L12.5399 26.48C12.8456 27.2504 13.3492 27.9265 13.9999 28.44C14.138 28.5516 14.3011 28.6281 14.4753 28.6629C14.6494 28.6977 14.8294 28.6899 14.9999 28.64C15.3469 28.5018 15.7315 28.4902 16.0862 28.6072C16.441 28.7243 16.7432 28.9624 16.9399 29.28C17.3599 29.85 17.7599 30.42 18.1499 31.01C18.2192 31.1493 18.3286 31.2647 18.4641 31.3413C18.5995 31.4179 18.7547 31.4523 18.9099 31.44C19.175 31.4256 19.439 31.4853 19.6721 31.6125C19.9053 31.7397 20.0984 31.9293 20.2299 32.16C20.3533 32.4366 20.5753 32.6574 20.8526 32.7794C21.1298 32.9013 21.4425 32.9158 21.7299 32.82C21.8641 32.7831 22.0045 32.7746 22.1422 32.795C22.2798 32.8155 22.4117 32.8645 22.5294 32.9389C22.6471 33.0132 22.7479 33.1113 22.8255 33.2269C22.903 33.3425 22.9556 33.4729 22.9799 33.61C23.1599 34.16 23.2399 34.73 23.3799 35.34L23.5999 35.46C23.9235 35.6058 24.1968 35.844 24.3854 36.1447C24.574 36.4454 24.6695 36.7952 24.6599 37.15C24.6817 37.7688 24.6449 38.3882 24.5499 39C24.4975 39.2117 24.5043 39.4337 24.5695 39.6418C24.6348 39.8499 24.756 40.0361 24.9199 40.18L25.1799 40.44C25.3508 40.6188 25.4685 40.8417 25.5198 41.0838C25.571 41.3258 25.5537 41.5773 25.4699 41.81C25.4392 41.9451 25.3851 42.0737 25.3099 42.19C25.0761 42.4742 24.9533 42.8335 24.9644 43.2013C24.9754 43.5691 25.1195 43.9204 25.3699 44.19C25.4499 44.32 25.5299 44.45 25.6199 44.58C25.8172 44.8716 25.934 45.21 25.9586 45.5612C25.9832 45.9124 25.9146 46.2638 25.7599 46.58C25.4799 47.14 25.2199 47.72 24.9199 48.27C23.9853 50.18 23.4867 52.2738 23.4599 54.4C23.4842 55.0429 23.734 55.6567 24.1655 56.1339C24.597 56.6111 25.1827 56.9212 25.8199 57.01C26.4118 57.0857 27.0115 56.9522 27.5154 56.6327C28.0194 56.3132 28.3959 55.8276 28.5799 55.26C29.1193 53.5402 29.0912 51.6926 28.4999 49.99C28.0514 48.4392 27.4168 46.9483 26.6099 45.55C26.1608 44.7748 25.8845 43.9118 25.7999 43.02C25.7589 42.7602 25.7697 42.4948 25.8314 42.2392C25.8932 41.9835 26.0048 41.7425 26.1599 41.53C26.2722 41.4125 26.3597 41.2736 26.4172 41.1216C26.4746 40.9696 26.5009 40.8075 26.4943 40.6451C26.4878 40.4827 26.4486 40.3233 26.3791 40.1764C26.3096 40.0295 26.2113 39.8981 26.0899 39.79L25.9099 39.53C25.7452 39.3052 25.6294 39.0485 25.5697 38.7764C25.5101 38.5042 25.508 38.2226 25.5635 37.9495C25.6191 37.6765 25.7311 37.4181 25.8923 37.1909C26.0536 36.9636 26.2605 36.7726 26.4999 36.63C26.6551 36.5292 26.7829 36.3915 26.8719 36.2292C26.9609 36.0669 27.0083 35.8851 27.0099 35.7C27.0804 34.9317 27.2074 34.1697 27.3899 33.42C27.4965 32.9252 27.7626 32.4791 28.1475 32.1502C28.5323 31.8214 29.0145 31.6281 29.5199 31.6C29.8699 31.6 30.0699 31.44 30.1499 31.1C30.2799 30.56 30.4199 30.02 30.5399 29.47C30.7499 28.47 31.5399 28.14 32.3599 28.8C32.8399 29.18 33.2699 29.62 33.7299 30.02C34.4099 30.63 35.0799 31.24 35.7899 31.82C36.4366 32.3596 37.0023 32.9894 37.4699 33.69C38.2778 34.8992 38.9835 36.1736 39.5799 37.5C39.7222 37.8504 39.8998 38.1855 40.1099 38.5C40.2106 38.6668 40.3549 38.8029 40.5273 38.8937C40.6996 38.9845 40.8935 39.0265 41.088 39.0152C41.2825 39.0039 41.4703 38.9397 41.631 38.8295C41.7916 38.7193 41.9192 38.5674 41.9999 38.39C42.3784 37.5286 42.4106 36.5545 42.0899 35.67C41.7141 34.4473 41.2253 33.2621 40.6299 32.13C40.1467 31.1572 39.7937 30.125 39.5799 29.06C39.3902 28.2303 39.5187 27.3596 39.9399 26.62C40.0681 26.4222 40.1492 26.1977 40.1769 25.9636C40.2046 25.7296 40.1783 25.4923 40.0999 25.27C39.9058 24.7655 39.8778 24.2122 40.0199 23.6906C40.162 23.169 40.4667 22.7064 40.8899 22.37C41.2939 22.0087 41.7215 21.6746 42.1699 21.37C42.2833 21.3061 42.3792 21.2151 42.4489 21.1052C42.5187 20.9953 42.5603 20.8698 42.5699 20.74C42.5699 20.41 42.6499 20.08 42.6599 19.74C42.6628 19.3762 42.7724 19.0213 42.975 18.7191C43.1776 18.4169 43.4644 18.1808 43.7999 18.04C44.1584 17.8582 44.5334 17.7109 44.9199 17.6C45.0805 17.5667 45.2296 17.492 45.3524 17.3832C45.4752 17.2745 45.5674 17.1354 45.6199 16.98C45.8148 16.4919 46.0489 16.0203 46.3199 15.57C46.5503 15.1767 46.8291 14.8139 47.1499 14.49C47.4312 14.2227 47.7716 14.0255 48.1434 13.9143C48.5152 13.8031 48.908 13.7811 49.2899 13.85C49.4505 13.8751 49.6149 13.8465 49.7577 13.7688C49.9005 13.6911 50.0137 13.5685 50.0799 13.42C50.2858 12.9901 50.5861 12.6122 50.9584 12.3144C51.3306 12.0166 51.7652 11.8066 52.2299 11.7C52.849 11.5696 53.4904 11.5902 54.0999 11.76C54.2185 11.794 54.3353 11.834 54.4499 11.88C54.7374 12.0548 55.0796 12.1169 55.4102 12.0541C55.7408 11.9913 56.0364 11.8081 56.2399 11.54C56.7225 11.0577 57.3365 10.7284 58.0053 10.5932C58.6741 10.458 59.3678 10.523 59.9999 10.78C60.2045 10.8733 60.4326 10.9022 60.6541 10.8629C60.8755 10.8236 61.0798 10.718 61.2399 10.56C61.5254 10.3 61.841 10.0751 62.1799 9.89001C62.5416 9.63613 62.9729 9.49991 63.4149 9.49991C63.8568 9.49991 64.2881 9.63613 64.6499 9.89001C64.7828 10.0219 64.9626 10.0959 65.1499 10.0959C65.3372 10.0959 65.5169 10.0219 65.6499 9.89001C65.9676 9.64373 66.2562 9.36189 66.5099 9.05001C67.1999 8.05001 67.8599 7.05001 68.5099 6.05001C69.3899 4.65001 70.2199 3.23001 71.1099 1.84001C71.4334 1.36514 71.7946 0.917035 72.1899 0.500006C72.3063 0.354541 72.4654 0.249273 72.6448 0.199039C72.8242 0.148805 73.0148 0.156139 73.1899 0.220006C73.3698 0.296724 73.5198 0.429973 73.6173 0.599582C73.7147 0.769191 73.7542 0.965926 73.7299 1.16001C73.7543 2.40482 73.544 3.64309 73.1099 4.81001C72.4392 6.50292 71.6712 8.15567 70.8099 9.76001L70.4499 10.5C70.73 10.957 70.8656 11.4879 70.8388 12.0232C70.8121 12.5585 70.6242 13.0733 70.2999 13.5C70.695 13.9111 70.9286 14.4508 70.958 15.0202C70.9874 15.5896 70.8105 16.1505 70.4599 16.6C70.47 16.6534 70.4903 16.7044 70.5199 16.75C70.8606 17.0424 71.1199 17.4181 71.2723 17.8404C71.4248 18.2627 71.4653 18.7174 71.3899 19.16C71.3482 19.4366 71.4125 19.7188 71.5699 19.95C71.8019 20.2949 71.9324 20.6981 71.9465 21.1135C71.9607 21.529 71.8579 21.9401 71.6499 22.3C71.4399 22.69 71.1899 23.04 70.9499 23.42L70.5599 24.04C70.934 24.3173 71.2498 24.6658 71.489 25.0653C71.7283 25.4649 71.8864 25.9077 71.9542 26.3685C72.022 26.8293 71.9982 27.2989 71.8842 27.7505C71.7702 28.202 71.5683 28.6266 71.2899 29C71.347 29.0847 71.4105 29.165 71.4799 29.24C71.7358 29.4844 71.9125 29.7998 71.9874 30.1456C72.0623 30.4914 72.0318 30.8517 71.8999 31.18C71.6774 31.7697 71.4237 32.3472 71.1399 32.91C71.0662 33.0279 71.0323 33.1663 71.0431 33.3049C71.0539 33.4435 71.1088 33.5749 71.1999 33.68C71.5923 34.1285 71.8086 34.7041 71.8086 35.3C71.8086 35.8959 71.5923 36.4716 71.1999 36.92C71.128 37.0413 71.0442 37.1552 70.9499 37.26C70.8608 37.3448 70.8034 37.4574 70.787 37.5792C70.7707 37.701 70.7964 37.8248 70.8599 37.93C70.9842 38.2133 71.0312 38.5246 70.9961 38.832C70.961 39.1394 70.8449 39.432 70.6599 39.68C70.3399 40.12 70.0065 40.55 69.6599 40.97C69.5688 41.0838 69.5037 41.2162 69.4691 41.3579C69.4346 41.4995 69.4314 41.647 69.4599 41.79C69.6427 42.6534 69.5265 43.5534 69.1304 44.342C68.7342 45.1307 68.0817 45.7612 67.2799 46.13C66.9949 46.2245 66.7392 46.3911 66.5377 46.6137C66.3362 46.8362 66.1957 47.1071 66.1299 47.4C65.9396 47.9931 65.5372 48.4951 64.9999 48.81C63.7729 49.6346 62.4497 50.3063 61.0599 50.81C59.7299 51.27 58.4399 51.81 57.0599 52.19C54.9266 52.7784 52.7315 53.1141 50.5199 53.19C49.3499 53.19 48.1799 53.34 47.0099 53.47C46.0803 53.5981 45.2118 54.0062 44.5199 54.64C42.7254 56.2165 41.1988 58.0741 39.9999 60.14C39.6399 60.76 39.3199 61.41 38.9999 62.05C38.8683 62.3169 38.7838 62.6044 38.7499 62.9C38.7107 63.1917 38.7651 63.4883 38.9053 63.7471C39.0455 64.0059 39.2641 64.2135 39.5299 64.34C40.1461 64.6924 40.8257 64.9201 41.5299 65.01C42.3593 65.1687 43.2127 65.1528 44.0357 64.9634C44.8587 64.774 45.6332 64.4153 46.3099 63.91C47.3099 63.11 48.3099 62.35 49.3099 61.51C50.0762 60.8352 51.0021 60.3671 51.9999 60.15C52.6198 60.0265 53.168 59.6682 53.5299 59.15C54.0992 58.3822 54.7314 57.6631 55.4199 57C55.8608 56.5856 56.3922 56.2796 56.9719 56.106C57.5516 55.9324 58.1637 55.8961 58.7599 56C58.9601 55.9939 59.1557 55.939 59.3299 55.84C59.4234 55.7872 59.5078 55.7197 59.5799 55.64C60.0472 55.2092 60.6159 54.9035 61.2331 54.7514C61.8502 54.5993 62.4958 54.6057 63.1099 54.77C63.335 54.8303 63.5701 54.8437 63.8006 54.8093C64.0312 54.7749 64.2521 54.6934 64.4499 54.57C65.2029 54.072 66.0993 53.8365 66.9999 53.9C67.5233 53.9512 68.0272 54.126 68.4699 54.41L69.7699 55.2C69.89 55.2902 70.0314 55.3477 70.1804 55.3669C70.3293 55.3862 70.4807 55.3666 70.6199 55.31C71.3642 55.0313 72.1648 54.9367 72.9536 55.0342C73.7423 55.1317 74.4958 55.4184 75.1499 55.87C75.4454 56.0533 75.7764 56.1721 76.121 56.2186C76.4657 56.2651 76.8163 56.2383 77.1499 56.14C78.5952 55.7556 79.9532 55.097 81.1499 54.2C82.0399 53.55 82.9699 52.95 83.8899 52.34C84.0461 52.2311 84.2181 52.1467 84.3999 52.09C84.547 52.0276 84.7087 52.0075 84.8667 52.0319C85.0246 52.0563 85.1727 52.1242 85.2942 52.2281C85.4157 52.3319 85.5059 52.4676 85.5546 52.6199C85.6033 52.7721 85.6086 52.9349 85.5699 53.09C85.5063 53.3438 85.4123 53.5889 85.2899 53.82C84.176 56.1474 82.7384 58.3055 81.0199 60.23C80.3599 61.01 79.7799 61.85 79.1499 62.65C79.0566 62.7512 78.9984 62.8798 78.984 63.0168C78.9696 63.1537 78.9997 63.2916 79.0699 63.41C79.4055 64.1957 79.5489 65.0501 79.488 65.9024C79.4271 66.7546 79.1638 67.58 78.7199 68.31C78.4992 68.6686 78.2184 68.9866 77.8899 69.25C77.7755 69.3429 77.6863 69.4629 77.6304 69.5992C77.5745 69.7355 77.5537 69.8836 77.5699 70.03C77.6281 70.5733 77.5369 71.1221 77.306 71.6173C77.0751 72.1126 76.7134 72.5353 76.2599 72.84C75.8799 73.18 75.4299 73.54 74.9999 73.92ZM19.2099 77.32L19.2899 77.14L18.8199 76.8C17.8699 76.06 16.9299 75.3 15.9599 74.57C13.7499 72.91 11.5099 71.27 9.30986 69.57C8.34637 68.8696 7.51938 67.9985 6.86986 67C6.77638 66.873 6.70536 66.731 6.65986 66.58C6.65586 66.5158 6.66537 66.4515 6.68776 66.3912C6.71015 66.3309 6.74493 66.276 6.78986 66.23C6.85125 66.2027 6.91768 66.1886 6.98486 66.1886C7.05204 66.1886 7.11848 66.2027 7.17986 66.23C7.27986 66.23 7.33986 66.41 7.42986 66.5C8.05601 67.1903 8.72394 67.8415 9.42986 68.45C10.6599 69.45 11.9799 70.3 13.2599 71.22C14.9999 72.51 16.7199 73.75 18.4299 75C18.951 75.4152 19.4484 75.8592 19.9199 76.33C19.9199 76.19 19.9199 76.11 19.8599 76.03C19.6299 75.03 19.3699 74.09 19.1799 73.11C18.1465 67.59 17.1299 62.0633 16.1299 56.53C15.7699 54.53 15.4099 52.6 15.0599 50.63C15.044 50.4917 14.9923 50.3598 14.9099 50.2476C14.8274 50.1353 14.7171 50.0465 14.5899 49.99C14.3204 49.8668 14.0682 49.7088 13.8399 49.52C11.983 48.068 10.5924 46.1038 9.83986 43.87C9.75288 43.6421 9.68269 43.4081 9.62986 43.17C9.62765 43.0973 9.64392 43.0252 9.67715 42.9605C9.71038 42.8958 9.75948 42.8406 9.81986 42.8C9.89073 42.7906 9.96283 42.7994 10.0293 42.8257C10.0958 42.8519 10.1545 42.8947 10.1999 42.95C10.3312 43.1557 10.4354 43.3776 10.5099 43.61C11.2365 45.4525 12.4412 47.068 13.9999 48.29C14.2244 48.4595 14.458 48.6164 14.6999 48.76C14.6803 48.585 14.6502 48.4114 14.6099 48.24C14.2099 46.63 13.8599 45 13.3899 43.4C12.6499 40.87 11.8299 38.4 11.0499 35.83C11.0499 35.74 10.9599 35.65 10.9799 35.58C11.0139 35.4227 11.0899 35.2775 11.1999 35.16C11.2799 35.16 11.4899 35.22 11.5999 35.31C11.6944 35.4139 11.7659 35.5366 11.8099 35.67C12.0499 36.23 12.3199 36.78 12.5199 37.36C13.3299 39.69 14.1099 42.03 14.9099 44.36C14.9644 44.5299 15.0278 44.6968 15.0999 44.86H15.2399C15.7299 43.95 16.2899 43.08 16.7099 42.14C17.5201 40.5611 18.0127 38.8386 18.1599 37.07C18.1599 36.86 18.2399 36.68 18.4799 36.67C18.7199 36.66 18.8199 36.81 18.8499 37.03C18.8813 37.1814 18.8981 37.3354 18.8999 37.49C18.8623 38.1369 18.7888 38.7812 18.6799 39.42C18.2004 41.8522 17.2196 44.1578 15.7999 46.19C15.7254 46.2753 15.6706 46.376 15.6395 46.4849C15.6084 46.5938 15.6017 46.7082 15.6199 46.82C16.1599 49.69 16.6799 52.57 17.2199 55.45C18.2199 60.78 19.2199 66.12 20.2199 71.45C20.5799 73.3 21.0699 75.13 21.5099 76.97C21.5849 77.2154 21.6751 77.4558 21.7799 77.69C21.9199 77.48 21.9899 77.36 22.0599 77.25C23.7299 74.55 25.3599 71.83 27.0599 69.15C29.5799 65.15 32.1499 61.25 34.6999 57.31C34.789 57.2034 34.8502 57.0763 34.8782 56.9402C34.9061 56.804 34.8998 56.6631 34.8599 56.53C34.2347 54.5041 33.8159 52.4202 33.6099 50.31C33.3999 48.66 33.2699 47 33.1999 45.31C33.0799 42.68 33.0499 40.05 32.9799 37.43C32.9799 36.98 33.0999 36.78 33.3399 36.76C33.5799 36.74 33.7199 36.95 33.7499 37.38C33.8499 38.73 33.9399 40.07 34.0399 41.38C34.1499 42.97 34.1999 44.57 34.3999 46.15C34.7399 48.87 35.1799 51.59 35.5899 54.31C35.5899 54.67 35.7399 55.01 35.8399 55.44C35.9699 55.27 36.0599 55.18 36.1199 55.08C37.4299 53.15 38.7699 51.24 40.0199 49.27C40.2999 48.82 40.6399 48.44 40.9599 48.01C42.6799 45.7 44.3699 43.35 46.0699 41.01C46.1599 40.89 46.2299 40.75 46.3099 40.62C45.8499 40.32 45.7999 40.28 45.6999 39.73C44.9034 36.4585 44.5436 33.096 44.6299 29.73C44.7599 27.73 44.7799 25.81 45.0899 23.87C45.2024 23.2885 45.3494 22.7141 45.5299 22.15C45.5999 21.92 45.7399 21.7 46.0299 21.8C46.3199 21.9 46.2599 22.11 46.1999 22.33C46.1399 22.55 46.1499 22.53 46.1299 22.63C46.0166 23.1448 45.9331 23.6656 45.8799 24.19C45.7999 25.71 45.7499 27.19 45.7199 28.75C45.6765 29.8337 45.6998 30.9191 45.7899 32C45.9799 33.77 46.2699 35.54 46.5299 37.3C46.6499 38.09 46.7999 38.87 46.9399 39.66L47.0599 39.73C47.0822 39.6617 47.1089 39.5949 47.1399 39.53C48.5099 37.41 50.0299 35.39 51.5899 33.41C51.6698 33.3195 51.7196 33.2063 51.7321 33.0862C51.7447 32.9661 51.7194 32.8451 51.6599 32.74C51.1163 31.5213 50.7331 30.2373 50.5199 28.92C50.2399 27.16 49.9699 25.39 49.7699 23.62C49.6499 22.56 49.6499 21.49 49.6299 20.42C49.6333 20.0181 49.6668 19.617 49.7299 19.22C49.7311 19.1705 49.7423 19.1218 49.7627 19.0767C49.7832 19.0317 49.8124 18.9911 49.8488 18.9576C49.8851 18.924 49.9279 18.8981 49.9744 18.8813C50.021 18.8646 50.0704 18.8573 50.1199 18.86C50.3599 18.86 50.4199 19.06 50.4299 19.27C50.4349 19.3399 50.4349 19.4101 50.4299 19.48C50.4299 20.14 50.4299 20.81 50.5099 21.48C50.7886 24.2507 51.2496 27 51.8899 29.71C52.0599 30.45 52.3199 31.18 52.5799 32.03C53.0399 31.44 53.3999 30.95 53.7799 30.48C56.2299 27.48 58.5699 24.38 60.7799 21.18C62.7799 18.18 64.7199 15.25 66.6899 12.29C66.7745 12.1375 66.8824 11.9991 67.0099 11.88C67.0674 11.8518 67.1307 11.8371 67.1949 11.8371C67.259 11.8371 67.3223 11.8518 67.3799 11.88C67.4345 11.928 67.4768 11.9886 67.5029 12.0565C67.529 12.1245 67.5383 12.1977 67.5299 12.27C67.4775 12.4566 67.3929 12.6326 67.2799 12.79L60.2799 24.12L59.9999 24.5V24.61C60.9999 24.37 61.9999 24.15 62.9999 23.88C64.4939 23.4864 65.932 22.9051 67.2799 22.15C67.4799 22.04 67.7299 21.92 67.8899 22.15C68.0499 22.38 67.8899 22.59 67.6399 22.74L67.5099 22.83C65.118 24.3438 62.4196 25.307 59.6099 25.65C59.4466 25.66 59.2883 25.7099 59.1488 25.7954C59.0094 25.8808 58.893 25.9991 58.8099 26.14C57.8899 27.44 56.9599 28.73 55.9999 30C54.7899 31.6 53.5599 33.17 52.3299 34.75C52.2399 34.87 52.1699 35 52.0399 35.2C52.2799 35.2 52.4299 35.2 52.5799 35.13C53.9599 34.81 55.3499 34.5 56.7299 34.13C58.5938 33.6353 60.3979 32.9378 62.1099 32.05C63.6465 31.3526 65.116 30.5158 66.4999 29.55C66.6899 29.41 66.9099 29.25 67.1499 29.49C67.3899 29.73 67.2699 29.89 66.9699 30.17C66.6867 30.4262 66.3896 30.6666 66.0799 30.89C63.8468 32.4111 61.4725 33.7137 58.9899 34.78C58.2893 35.063 57.5711 35.3001 56.8399 35.49C55.8399 35.75 54.9099 36.01 53.9299 36.21C52.9499 36.41 52.0299 36.52 51.0899 36.69C50.923 36.7109 50.7698 36.7928 50.6599 36.92C50.3467 37.2981 50.053 37.692 49.7799 38.1C47.5699 41.5 45.2299 44.8 42.7799 48.1C42.7199 48.19 42.6799 48.29 42.5799 48.48C43.4999 48.32 44.3299 48.2 45.1499 48.01C47.5308 47.5228 49.8709 46.8542 52.1499 46.01C55.1076 44.8103 57.9693 43.3862 60.7099 41.75C60.88 41.6301 61.0648 41.5326 61.2599 41.46C61.3227 41.4491 61.3873 41.4534 61.4482 41.4725C61.5091 41.4917 61.5645 41.5251 61.6099 41.57C61.6397 41.6289 61.6553 41.694 61.6553 41.76C61.6553 41.826 61.6397 41.8911 61.6099 41.95C61.4843 42.0965 61.3357 42.2215 61.1699 42.32C58.6421 44.046 55.9647 45.542 53.1699 46.79C51.0738 47.6934 48.9106 48.4323 46.6999 49C45.1611 49.4876 43.5631 49.7634 41.9499 49.82C41.8363 49.8227 41.7254 49.8557 41.6288 49.9154C41.5321 49.9752 41.4531 50.0596 41.3999 50.16C40.7199 51.16 39.9999 52.16 39.3999 53.16C36.3599 57.88 33.3365 62.6033 30.3299 67.33C28.1399 70.78 25.9799 74.25 23.8099 77.71C23.6899 77.89 23.5999 78.09 23.4899 78.28C23.682 78.3768 23.8689 78.4836 24.0499 78.6C24.3394 78.8068 24.698 78.8929 25.0499 78.84C25.2899 78.84 25.5399 78.84 25.7799 78.78C28.5299 78.34 31.2899 77.94 34.0299 77.43C38.828 76.5656 43.521 75.1946 48.0299 73.34L49.4699 72.75C49.4966 72.4517 49.5536 72.1568 49.6399 71.87C49.9106 71.1483 50.2452 70.4522 50.6399 69.79C51.9999 67.79 53.3899 65.79 54.8199 63.79C55.6075 62.6727 56.5388 61.6641 57.5899 60.79C57.718 60.6753 57.8675 60.5869 58.0299 60.53C58.0943 60.5224 58.1597 60.5303 58.2205 60.5529C58.2814 60.5755 58.336 60.6122 58.3799 60.66C58.4399 60.72 58.3799 60.89 58.3799 60.99C58.3346 61.0857 58.2699 61.1708 58.1899 61.24C57.1367 62.2691 56.1856 63.3977 55.3499 64.61C53.6856 66.7926 52.2293 69.1261 50.9999 71.58C50.9202 71.7356 50.8501 71.8959 50.7899 72.06C51.2199 71.9 51.6199 71.77 51.9899 71.6C52.9899 71.18 53.9099 70.74 54.8699 70.31C57.5299 69.13 60.1899 67.96 62.8699 66.77C63.0382 66.691 63.178 66.5617 63.2699 66.4C64.0599 64.74 64.7999 63.06 65.6199 61.4C65.9599 60.8293 66.3551 60.2934 66.7999 59.8C66.8287 59.7607 66.8663 59.7288 66.9097 59.7068C66.9532 59.6848 67.0012 59.6733 67.0499 59.6733C67.0986 59.6733 67.1466 59.6848 67.19 59.7068C67.2334 59.7288 67.2711 59.7607 67.2999 59.8C67.4599 59.96 67.3699 60.12 67.2999 60.28C67.0569 60.5934 66.8427 60.9281 66.6599 61.28C65.9599 62.77 65.2899 64.28 64.6599 65.78C64.618 65.8975 64.5846 66.0178 64.5599 66.14L65.7099 65.69C67.3699 65.08 69.0199 64.45 70.7099 63.85C71.0599 63.72 71.2999 63.85 71.3599 64.07C71.4199 64.29 71.2299 64.52 70.9899 64.62C69.2399 65.37 67.4699 66.1 65.7199 66.86C64.7999 67.26 63.8899 67.7 62.8899 68.16C64.7301 68.736 66.6035 69.2002 68.4999 69.55C69.4399 69.773 70.4135 69.8171 71.3699 69.68C71.4188 69.6653 71.4709 69.6653 71.5199 69.68C71.6599 69.77 71.8599 69.84 71.9099 69.96C71.9599 70.08 71.8299 70.32 71.6399 70.4C71.5417 70.4359 71.4416 70.466 71.3399 70.49C70.6394 70.6565 69.916 70.7038 69.1999 70.63C66.7271 70.3334 64.2779 69.8656 61.8699 69.23C61.3358 69.0754 60.7627 69.1327 60.2699 69.39C58.1099 70.39 55.9299 71.39 53.7599 72.47L53.1899 72.72C53.5299 72.92 53.7599 73.06 54.0099 73.19C54.4691 73.448 54.9432 73.6784 55.4299 73.88C58.8212 75.1533 62.384 75.9118 65.9999 76.13C66.4199 76.13 66.6199 76.27 66.6499 76.53C66.6799 76.79 66.5299 76.98 66.0899 77.01C65.3909 77.0649 64.6888 77.0649 63.9899 77.01C61.4997 76.7193 59.0335 76.2514 56.6099 75.61C54.9771 75.172 53.4221 74.4838 51.9999 73.57C51.8478 73.4822 51.6754 73.436 51.4999 73.436C51.3243 73.436 51.1519 73.4822 50.9999 73.57C48.7099 74.49 46.4299 75.46 44.0899 76.25C39.1034 77.8714 33.9835 79.0493 28.7899 79.77C27.9499 79.9 27.0999 80 26.1499 80.13C26.4499 80.35 26.6699 80.51 26.8999 80.66C27.8999 81.34 28.8999 82.01 29.8999 82.66C33.0657 84.7742 36.412 86.6046 39.8999 88.13C40.0324 88.171 40.155 88.2391 40.2599 88.33C40.3091 88.3871 40.3454 88.4543 40.3661 88.5268C40.3868 88.5993 40.3915 88.6755 40.3799 88.75C40.3438 88.8142 40.2935 88.8692 40.2328 88.9108C40.1721 88.9524 40.1027 88.9795 40.0299 88.99C39.856 89.0027 39.6815 88.9753 39.5199 88.91C38.5199 88.53 37.5199 88.19 36.5899 87.74C34.6499 86.81 32.6799 85.92 30.8199 84.83C28.8199 83.64 26.8899 82.26 24.9299 80.96L24.5599 80.73C24.6199 80.94 24.6699 81.08 24.7099 81.21C25.2137 82.6363 25.418 84.1512 25.3099 85.66C25.2399 86.28 25.1599 86.91 25.1399 87.54C25.1251 88.0974 25.1451 88.6551 25.1999 89.21C25.1997 89.2809 25.2141 89.3511 25.2421 89.4162C25.2701 89.4813 25.3111 89.54 25.3626 89.5887C25.4141 89.6374 25.475 89.6751 25.5416 89.6994C25.6082 89.7237 25.6791 89.7341 25.7499 89.73C26.0325 89.7437 26.3031 89.8484 26.5212 90.0287C26.7393 90.209 26.8932 90.455 26.9599 90.73C27.0199 90.88 27.0699 91.03 27.1299 91.17C27.1991 91.3628 27.3166 91.5347 27.4711 91.6692C27.6257 91.8038 27.812 91.8965 28.0126 91.9386C28.2131 91.9807 28.421 91.9708 28.6166 91.9098C28.8122 91.8487 28.9889 91.7387 29.1299 91.59C29.3667 91.3575 29.581 91.103 29.7699 90.83C30.0499 90.45 30.2799 90.03 30.5899 89.67C30.677 89.5522 30.7956 89.4613 30.9321 89.4077C31.0686 89.3542 31.2173 89.3402 31.3614 89.3673C31.5054 89.3945 31.6389 89.4616 31.7465 89.5612C31.8542 89.6607 31.9316 89.7885 31.9699 89.93C32.0284 90.0958 32.0719 90.2665 32.0999 90.44C32.3099 91.38 32.4699 92.33 32.7399 93.25C32.9443 93.8073 33.2092 94.3405 33.5299 94.84C33.57 94.9193 33.6256 94.9898 33.6933 95.0474C33.761 95.1051 33.8394 95.1486 33.9241 95.1756C34.0088 95.2026 34.098 95.2125 34.1866 95.2046C34.2751 95.1968 34.3612 95.1714 34.4399 95.13C34.7099 95.01 34.9899 94.91 35.2699 94.8C35.5499 94.69 35.9299 94.8 35.9999 95.14C36.1199 95.77 36.6599 95.94 37.0799 96.29C37.2199 96.16 37.3299 96.08 37.4199 95.98C37.5858 95.7712 37.8128 95.6195 38.0692 95.5459C38.3256 95.4724 38.5985 95.4808 38.8499 95.57C39.0026 95.6075 39.1528 95.6543 39.2999 95.71C39.6381 95.8601 40.0159 95.8963 40.3765 95.8134C40.7372 95.7304 41.0612 95.5328 41.2999 95.25C41.4446 95.0844 41.6325 94.9621 41.8426 94.8968C42.0526 94.8315 42.2767 94.8257 42.4899 94.88C42.9903 94.9786 43.5 95.0222 44.0099 95.01C44.3892 95.0041 44.7539 94.8628 45.0381 94.6115C45.3224 94.3603 45.5074 94.0157 45.5599 93.64C45.5545 93.4836 45.5858 93.3282 45.6514 93.1861C45.717 93.0441 45.8151 92.9194 45.9376 92.8222C46.0602 92.7249 46.2038 92.6578 46.3571 92.6261C46.5103 92.5945 46.6688 92.5992 46.8199 92.64L48.0199 92.78L49.5399 92.92L49.1699 92.36C47.9315 90.6925 46.408 89.2571 44.6699 88.12C43.4599 87.29 42.1899 86.53 40.9699 85.72C40.6214 85.4447 40.2969 85.1402 39.9999 84.81C39.6193 84.4095 39.3365 83.9263 39.1738 83.3983C39.0111 82.8703 38.9728 82.3118 39.0619 81.7666C39.151 81.2213 39.3651 80.704 39.6874 80.2553C40.0097 79.8066 40.4316 79.4385 40.9199 79.18C41.81 78.6911 42.8201 78.4637 43.8339 78.5238C44.8476 78.584 45.8238 78.9293 46.6499 79.52C47.261 79.9756 47.8422 80.4699 48.3899 81C48.9699 81.53 49.5199 82.11 50.0999 82.64C50.7142 83.2252 51.4986 83.5999 52.3399 83.71C53.5071 83.8502 54.6881 83.83 55.8499 83.65C58.456 83.2849 61.0326 82.7334 63.5599 82C64.834 81.6604 66.0029 81.0072 66.9599 80.1C67.7399 79.34 68.4999 78.57 69.3099 77.84C69.663 77.5313 70.0566 77.2722 70.4799 77.07C71.2299 76.69 72.0199 76.39 72.7599 76C73.4999 75.61 73.6399 75.47 73.3199 74.55C73.1891 74.2597 73.1604 73.9337 73.2384 73.625C73.3165 73.3164 73.4968 73.0432 73.7499 72.85C74.2699 72.41 74.7499 71.95 75.3199 71.53C75.5549 71.3726 75.7376 71.1486 75.8445 70.8867C75.9514 70.6248 75.9776 70.3369 75.9199 70.06C75.8452 69.7239 75.8708 69.3733 75.9935 69.0515C76.1161 68.7298 76.3304 68.4511 76.6099 68.25C76.9016 68.0279 77.1492 67.7532 77.3399 67.44C77.648 66.9234 77.8214 66.3377 77.8441 65.7366C77.8668 65.1355 77.7381 64.5384 77.4699 64C77.2858 63.7091 77.1992 63.3672 77.2225 63.0238C77.2459 62.6803 77.3781 62.3533 77.5999 62.09C78.2665 61.1767 78.9332 60.2767 79.5999 59.39C80.4999 58.21 81.4299 57.05 82.3499 55.87C82.4626 55.7059 82.5661 55.5357 82.6599 55.36L82.5699 55.29L82.1199 55.63C80.6826 56.7308 79.0303 57.5178 77.2699 57.94C76.7874 58.0806 76.2814 58.1212 75.7827 58.0593C75.284 57.9974 74.8033 57.8343 74.3699 57.58C74.0999 57.42 73.8099 57.3 73.5299 57.15C73.2068 56.9725 72.849 56.8672 72.4813 56.8413C72.1136 56.8154 71.7446 56.8696 71.3999 57L70.9499 57.14C70.6226 57.2652 70.2699 57.3097 69.9217 57.2697C69.5736 57.2297 69.2402 57.1063 68.9499 56.91C68.4899 56.62 68.0199 56.34 67.5699 56.04C67.2793 55.8345 66.9346 55.7192 66.5789 55.7085C66.2232 55.6978 65.8722 55.7923 65.5699 55.98C65.4112 56.0569 65.2575 56.1437 65.1099 56.24C64.8152 56.4621 64.47 56.6076 64.1052 56.6635C63.7404 56.7193 63.3675 56.6838 63.0199 56.56C62.5912 56.3907 62.1211 56.3565 61.6725 56.4619C61.2238 56.5674 60.8182 56.8075 60.5099 57.15L60.3099 57.32C60.1184 57.5283 59.8743 57.681 59.6032 57.762C59.3321 57.843 59.0442 57.8492 58.7699 57.78C58.3146 57.668 57.8367 57.6896 57.3933 57.8421C56.9499 57.9946 56.5599 58.2716 56.2699 58.64C55.7199 59.25 55.1999 59.89 54.6899 60.55C54.2799 61.0787 53.7235 61.4752 53.0899 61.69C52.8299 61.78 52.5499 61.85 52.2799 61.92C51.6317 62.0723 51.0308 62.3814 50.5299 62.82C49.5999 63.62 48.6299 64.38 47.6799 65.15C46.4515 66.1933 44.9184 66.8108 43.3099 66.91C41.7119 67.0617 40.1047 66.7382 38.6899 65.98C38.1377 65.7152 37.6798 65.2877 37.3777 64.755C37.0756 64.2223 36.9437 63.6098 36.9999 63C37.0182 62.4584 37.1404 61.9255 37.3599 61.43C38.7323 58.4403 40.6832 55.752 43.0999 53.52C44.226 52.4099 45.6896 51.7062 47.2599 51.52C48.5037 51.4078 49.7549 51.4011 50.9999 51.5C51.2955 51.5351 51.5942 51.5351 51.8899 51.5C53.3099 51.25 54.7399 51.06 56.1199 50.7C57.4999 50.34 58.8899 49.79 60.2699 49.34C61.4948 48.916 62.6741 48.3699 63.7899 47.71C64.0914 47.5648 64.3544 47.3506 64.5577 47.0848C64.761 46.819 64.8987 46.509 64.9599 46.18C65.0039 45.9282 65.1142 45.6927 65.2794 45.4976C65.4446 45.3025 65.6588 45.1549 65.8999 45.07C66.2459 44.9185 66.5802 44.7413 66.8999 44.54C67.3375 44.2749 67.6738 43.8709 67.8551 43.3924C68.0363 42.9139 68.0521 42.3885 67.8999 41.9C67.812 41.6515 67.7925 41.3839 67.8435 41.1253C67.8945 40.8667 68.0142 40.6265 68.1899 40.43C68.5399 40 68.8599 39.53 69.1899 39.09C69.2934 38.9687 69.3503 38.8145 69.3503 38.655C69.3503 38.4955 69.2934 38.3413 69.1899 38.22C69.0272 38.0087 68.9485 37.7448 68.9688 37.4789C68.9891 37.2131 69.107 36.9641 69.2999 36.78C69.5272 36.5158 69.7344 36.235 69.9199 35.94C70.2799 35.32 70.2799 35.03 69.7999 34.52C69.5398 34.28 69.3723 33.9563 69.3266 33.6054C69.2809 33.2544 69.3599 32.8986 69.5499 32.6C69.8051 32.1032 70.0321 31.5924 70.2299 31.07C70.4899 30.41 70.4499 30.33 69.7999 30.07C69.7232 30.0488 69.6522 30.0109 69.5918 29.9591C69.5315 29.9072 69.4834 29.8427 69.4509 29.7701C69.4184 29.6975 69.4024 29.6186 69.4039 29.539C69.4055 29.4595 69.4246 29.3813 69.4599 29.31C69.55 29.1215 69.6501 28.9379 69.7599 28.76C69.9399 28.4 70.1399 28.05 70.2899 27.68C70.4326 27.3663 70.4812 27.0178 70.4297 26.677C70.3782 26.3361 70.2289 26.0176 69.9999 25.76C69.8499 25.57 69.6799 25.39 69.5099 25.21C69.2246 24.9658 69.0468 24.6191 69.015 24.2448C68.9832 23.8706 69.0999 23.4989 69.3399 23.21C69.5599 22.83 69.8099 22.47 70.0399 22.09C70.1284 21.9429 70.2053 21.7891 70.2699 21.63C70.3478 21.4901 70.3782 21.3287 70.3566 21.17C70.3349 21.0113 70.2624 20.864 70.1499 20.75C69.9879 20.574 69.8764 20.3575 69.8271 20.1235C69.7779 19.8894 69.7926 19.6464 69.8699 19.42C69.9342 19.2702 69.9673 19.1088 69.9671 18.9457C69.967 18.7826 69.9336 18.6213 69.869 18.4716C69.8044 18.3219 69.71 18.1869 69.5915 18.0748C69.4731 17.9628 69.333 17.8761 69.1799 17.82L69.0899 17.76C68.9706 17.6867 68.8682 17.5892 68.789 17.4738C68.7098 17.3584 68.6558 17.2276 68.6303 17.09C68.6049 16.9524 68.6086 16.811 68.6413 16.6749C68.6739 16.5388 68.7348 16.4111 68.8199 16.3C68.9099 16.15 69.0299 16.02 69.1299 15.88C69.5299 15.31 69.5099 15.08 68.9799 14.64C68.7678 14.4922 68.6212 14.268 68.5709 14.0144C68.5205 13.7608 68.5704 13.4976 68.7099 13.28C68.8299 13.06 68.9599 12.86 69.0899 12.65C69.2102 12.456 69.2837 12.2366 69.3046 12.0092C69.3254 11.7818 69.293 11.5527 69.2099 11.34C69.1455 11.1077 69.1455 10.8623 69.2099 10.63C69.4022 9.92146 69.6325 9.22378 69.8999 8.54001C70.4699 7.13001 71.0999 5.74001 71.6899 4.33001C71.8199 4.01001 71.8899 3.67001 71.9899 3.33001H71.8699L70.6699 5.33001C69.7999 6.58001 68.9999 8.00001 68.1599 9.31001C67.6389 10.1245 66.9586 10.8252 66.1599 11.37C65.8575 11.6315 65.4735 11.7796 65.0739 11.7887C64.6742 11.7978 64.2838 11.6675 63.9699 11.42C63.7906 11.2616 63.5567 11.1793 63.3177 11.1905C63.0787 11.2017 62.8535 11.3056 62.6899 11.48L61.6199 12.34C61.4411 12.4976 61.2256 12.6076 60.9932 12.6601C60.7608 12.7125 60.5189 12.7056 60.2899 12.64C59.9999 12.57 59.7199 12.47 59.4299 12.4C58.9993 12.235 58.5259 12.2193 58.0853 12.3553C57.6448 12.4912 57.2625 12.7711 56.9999 13.15C56.7834 13.4632 56.4731 13.6997 56.1138 13.8255C55.7544 13.9513 55.3644 13.9598 54.9999 13.85C54.5199 13.74 53.9999 13.59 53.5799 13.46C53.3948 13.3773 53.1948 13.3333 52.9921 13.3306C52.7894 13.3279 52.5883 13.3666 52.4011 13.4443C52.2139 13.522 52.0445 13.6371 51.9033 13.7825C51.7621 13.9279 51.652 14.1006 51.5799 14.29C51.4296 14.7553 51.1092 15.1467 50.6827 15.3859C50.2563 15.6251 49.7552 15.6944 49.2799 15.58C48.9689 15.5094 48.6427 15.5574 48.3653 15.7146C48.0878 15.8718 47.8791 16.1269 47.7799 16.43C47.5299 16.97 47.2599 17.5 47.0399 18.05C46.9437 18.3434 46.7671 18.6038 46.5302 18.8018C46.2933 18.9998 46.0056 19.1274 45.6999 19.17C45.4123 19.2381 45.1285 19.3216 44.8499 19.42C44.6949 19.4572 44.5579 19.5477 44.4629 19.6757C44.3678 19.8036 44.3208 19.9609 44.3299 20.12C44.3299 20.49 44.2599 20.85 44.2399 21.22C44.226 21.5414 44.1258 21.853 43.9499 22.1223C43.7739 22.3915 43.5286 22.6083 43.2399 22.75C42.8938 22.9647 42.56 23.1983 42.2399 23.45C41.9892 23.61 41.8016 23.8517 41.7087 24.1341C41.6157 24.4166 41.6232 24.7224 41.7299 25C41.8695 25.4003 41.9133 25.8278 41.8578 26.2481C41.8022 26.6684 41.6488 27.0698 41.4099 27.42C41.2803 27.6188 41.1938 27.8425 41.1559 28.0767C41.118 28.3109 41.1296 28.5505 41.1899 28.78C41.4006 29.724 41.7369 30.6354 42.1899 31.49C42.8526 32.6865 43.3857 33.9503 43.7799 35.26C43.9509 35.9135 44.0448 36.5847 44.0599 37.26C44.0867 38.0389 43.8813 38.8081 43.4699 39.47C43.2344 39.8836 42.8967 40.2298 42.4891 40.4755C42.0814 40.7212 41.6176 40.8581 41.1419 40.8732C40.6662 40.8882 40.1946 40.7809 39.7723 40.5615C39.3499 40.3421 38.991 40.0179 38.7299 39.62C38.4485 39.2303 38.2041 38.8151 37.9999 38.38C37.406 37.052 36.6825 35.7858 35.8399 34.6C35.4887 34.1424 35.0935 33.7204 34.6599 33.34C33.9399 32.68 33.1899 32.04 32.4499 31.4L32.0399 31.05C31.8699 31.49 31.7299 31.89 31.5699 32.27C31.4417 32.6293 31.2015 32.938 30.8846 33.1504C30.5677 33.3629 30.191 33.4679 29.8099 33.45C29.2499 33.45 29.0599 33.6 28.9499 34.16C28.808 34.7402 28.7243 35.3332 28.6999 35.93C28.7717 36.3764 28.6902 36.8339 28.4686 37.228C28.2471 37.622 27.8985 37.9294 27.4799 38.1C27.1499 38.24 27.1499 38.42 27.3399 38.74C27.5299 39.06 27.5999 39.12 27.7199 39.31C28.0361 39.7158 28.2079 40.2155 28.2079 40.73C28.2079 41.2445 28.0361 41.7442 27.7199 42.15C27.6515 42.2302 27.5973 42.3215 27.5599 42.42C27.4666 42.6377 27.4222 42.8733 27.4299 43.11C27.5417 43.7122 27.7404 44.295 28.0199 44.84C28.9472 46.4304 29.6728 48.1302 30.1799 49.9C30.8112 51.8502 30.8112 53.9498 30.1799 55.9C29.9584 56.5872 29.5675 57.2075 29.0433 57.7039C28.519 58.2002 27.8781 58.5565 27.1799 58.74C26.9099 58.8149 26.6296 58.8453 26.3499 58.83C25.1982 58.8149 24.0906 58.3853 23.2299 57.62C22.8003 57.2833 22.4504 56.856 22.2049 56.3686C21.9595 55.8812 21.8246 55.3456 21.8099 54.8C21.6947 52.3168 22.2363 49.8472 23.3799 47.64C23.6299 47.14 23.8499 46.64 24.1199 46.13C24.2015 45.986 24.2393 45.8213 24.2287 45.6561C24.218 45.4908 24.1593 45.3323 24.0599 45.2C23.8624 44.883 23.695 44.5482 23.5599 44.2C23.3707 43.8218 23.279 43.4025 23.2929 42.9799C23.3069 42.5573 23.4262 42.1448 23.6399 41.78C23.6943 41.67 23.7411 41.5564 23.7799 41.44L23.4399 41.03C23.1642 40.7451 22.9676 40.3933 22.8694 40.0093C22.7712 39.6252 22.7748 39.2222 22.8799 38.84C22.9756 38.3584 23.0358 37.8704 23.0599 37.38C23.0747 37.3248 23.0781 37.2671 23.0698 37.2106C23.0616 37.154 23.0419 37.0997 23.0119 37.0511C22.9819 37.0024 22.9424 36.9603 22.8956 36.9275C22.8488 36.8946 22.7958 36.8717 22.7399 36.86C22.4136 36.7878 22.1278 36.5927 21.9416 36.3152C21.7554 36.0378 21.6831 35.6993 21.7399 35.37C21.7349 35.0655 21.7116 34.7616 21.6699 34.46C21.4406 34.4343 21.2091 34.4343 20.9799 34.46C20.7509 34.5146 20.5108 34.5 20.2901 34.4181C20.0693 34.3363 19.8779 34.1907 19.7399 34C19.5639 33.7588 19.3735 33.5284 19.1699 33.31C19.11 33.2531 19.0393 33.2088 18.962 33.1796C18.8847 33.1504 18.8024 33.1369 18.7199 33.14C18.3757 33.182 18.027 33.1185 17.7198 32.9577C17.4126 32.797 17.1615 32.5467 16.9999 32.24C16.6599 31.69 16.2799 31.16 15.9299 30.62C15.8628 30.4852 15.7468 30.3811 15.6055 30.329C15.4642 30.2769 15.3083 30.2809 15.1699 30.34C14.832 30.4444 14.474 30.4662 14.126 30.4035C13.778 30.3409 13.4501 30.1956 13.1699 29.98C12.3909 29.4842 11.7536 28.7951 11.3199 27.98C10.6299 26.61 9.96986 25.24 9.31986 23.87C9.26986 23.77 9.20986 23.67 9.15986 23.56C9.13005 23.668 9.13005 23.782 9.15986 23.89C9.46986 25.46 9.78986 27.02 10.0599 28.58C10.2199 29.51 10.0599 29.76 9.16986 30.18L9.08986 30.29C9.08986 30.46 9.08986 30.65 9.13986 30.84C9.16969 31.3462 9.16969 31.8538 9.13986 32.36C9.15211 32.6845 9.04154 33.0016 8.83022 33.2482C8.61891 33.4947 8.32239 33.6525 7.99986 33.69C7.80986 33.69 7.61986 33.74 7.42986 33.77C7.2772 33.7759 7.12761 33.8147 6.99135 33.8838C6.85508 33.9529 6.73536 34.0506 6.64039 34.1703C6.54541 34.2899 6.47743 34.4287 6.44109 34.5771C6.40476 34.7255 6.40093 34.88 6.42986 35.03C6.50464 35.587 6.54472 36.1481 6.54986 36.71C6.52189 37.0186 6.42261 37.3164 6.25986 37.58C6.14197 37.7411 5.99251 37.8765 5.82058 37.9779C5.64866 38.0794 5.45787 38.1447 5.25986 38.17C5.08927 38.1887 4.92422 38.2417 4.77469 38.3259C4.62516 38.4101 4.49425 38.5238 4.38986 38.66L4.87986 39.58C5.09755 39.9357 5.18185 40.3572 5.11775 40.7692C5.05365 41.1813 4.84531 41.5572 4.52986 41.83C4.35986 42.01 4.18986 42.18 4.02986 42.37C3.64986 42.79 3.63986 42.84 4.02986 43.25C4.35515 43.5973 4.58288 44.0243 4.69 44.4879C4.79713 44.9516 4.77983 45.4352 4.63986 45.89C4.57613 46.0894 4.57658 46.3038 4.64117 46.503C4.70576 46.7021 4.83122 46.876 4.99986 47C5.72388 47.5835 6.52899 48.0585 7.38986 48.41C8.33986 48.81 9.29986 49.19 10.2599 49.57C11.1363 49.8924 11.9365 50.3929 12.6099 51.04C12.991 51.4057 13.2803 51.8563 13.4541 52.3551C13.6278 52.8539 13.6812 53.3867 13.6099 53.91C13.5873 54.3595 13.4174 54.7891 13.1264 55.1325C12.8355 55.4759 12.4396 55.714 11.9999 55.81C11.3617 55.91 10.7146 55.9402 10.0699 55.9C8.99421 55.8215 7.94763 55.5147 6.99986 55C6.77986 54.89 6.52986 54.82 6.26986 54.72C6.24379 54.9078 6.25699 55.099 6.30863 55.2815C6.36027 55.464 6.44922 55.6337 6.56986 55.78C7.21714 56.7844 8.09041 57.6234 9.11986 58.23C10.7795 59.2148 12.3729 60.3071 13.8899 61.5C14.2597 61.7948 14.5951 62.1302 14.8899 62.5C15.5036 63.1392 15.8931 63.9604 15.9999 64.84C16.0615 65.1445 16.0438 65.4597 15.9484 65.7553C15.853 66.0509 15.6831 66.317 15.455 66.5279C15.227 66.7389 14.9485 66.8876 14.6464 66.9598C14.3442 67.0319 14.0286 67.0251 13.7299 66.94C13.0378 66.8171 12.3778 66.5552 11.7899 66.17C11.2099 65.79 10.6599 65.4 10.0799 65.02L8.07986 63.77C7.92018 63.671 7.74078 63.6081 7.55424 63.5856C7.36769 63.5631 7.17849 63.5817 6.99986 63.64C6.76019 63.7273 6.50511 63.7643 6.25051 63.7489C5.9959 63.7334 5.7472 63.6657 5.51986 63.55C5.35713 63.4796 5.19013 63.4195 5.01986 63.37C4.51986 63.23 4.23986 63.43 4.23986 63.96C4.23986 64.49 4.30986 64.77 4.31986 65.17C4.35113 65.3553 4.33953 65.5453 4.28596 65.7254C4.23239 65.9055 4.13827 66.0709 4.01082 66.209C3.88337 66.347 3.72599 66.4541 3.55074 66.5219C3.37549 66.5896 3.18705 66.6164 2.99986 66.6C2.79226 66.6018 2.58506 66.6185 2.37986 66.65C1.95986 66.74 1.83986 66.98 1.98986 67.39C2.06591 67.567 2.15621 67.7376 2.25986 67.9C2.43986 68.2 2.63986 68.49 2.80986 68.79C2.96723 69.0364 3.05496 69.3209 3.06376 69.6131C3.07257 69.9054 3.00211 70.1946 2.85986 70.45C2.70986 70.73 2.57986 71.01 2.39986 71.35C2.67986 71.55 2.93986 71.76 3.20986 71.94C3.46809 72.0992 3.67808 72.3258 3.81726 72.5953C3.95644 72.8649 4.01957 73.1673 3.99986 73.47C3.99986 73.59 3.99986 73.71 3.99986 73.85C4.40529 73.8635 4.80642 73.9376 5.18986 74.07C5.56043 74.322 5.89659 74.6212 6.18986 74.96C6.85824 74.9128 7.51398 74.7539 8.12986 74.49C8.76986 74.25 9.39986 73.97 10.0399 73.74C11.1501 73.375 12.353 73.4103 13.4399 73.84C13.6257 73.887 13.7984 73.9758 13.9448 74.0996C14.0912 74.2234 14.2074 74.379 14.2845 74.5546C14.3617 74.7301 14.3978 74.9209 14.39 75.1124C14.3823 75.304 14.3309 75.4913 14.2399 75.66C14.0593 76.1633 13.7046 76.5854 13.2399 76.85C12.8399 77.07 12.4099 77.23 11.9999 77.41C11.5899 77.59 11.4599 77.59 11.2099 77.71C11.1493 77.7359 11.0946 77.7738 11.049 77.8214C11.0034 77.869 10.9679 77.9252 10.9446 77.9869C10.9212 78.0485 10.9105 78.1142 10.9132 78.18C10.9158 78.2458 10.9317 78.3105 10.9599 78.37C11.1118 78.7137 11.3575 79.0076 11.6688 79.218C11.9801 79.4285 12.3443 79.547 12.7199 79.56C14.0467 79.4146 15.3351 79.0247 16.5199 78.41C17.3099 77.8586 18.2109 77.4866 19.1599 77.32H19.2099Z" fill="black"/>
<path d="M67.22 39.46C67.2299 39.5464 67.2299 39.6336 67.22 39.72C67.08 40.72 66.93 41.61 66.8 42.57C66.7842 42.8341 66.6888 43.0873 66.5263 43.2961C66.3639 43.5049 66.142 43.6597 65.89 43.74C65.1759 43.9986 64.5793 44.5064 64.21 45.17C63.95 45.59 63.66 45.98 63.4 46.39C62.9915 46.9852 62.4325 47.4614 61.78 47.77C60.0062 48.6153 58.1541 49.2851 56.25 49.77L54.39 50.31C54.22 50.36 54.03 50.45 53.94 50.23C53.85 50.01 54.03 49.87 54.21 49.8C54.86 49.55 55.51 49.29 56.21 49.09C57.8388 48.6224 59.4383 48.0581 61 47.4C61.9189 47.0405 62.6926 46.3863 63.2 45.54C63.36 45.27 63.56 45.02 63.73 44.75C64.1361 44.0276 64.7841 43.4716 65.56 43.18C65.7191 43.1297 65.8599 43.0337 65.9649 42.9038C66.0698 42.774 66.1342 42.6162 66.15 42.45C66.28 41.72 66.41 41 66.56 40.29C66.5964 40.0657 66.6708 39.8493 66.78 39.65C66.84 39.52 66.99 39.45 67.11 39.36L67.22 39.46Z" fill="black"/>
<path d="M27.8998 77.51C27.7274 77.535 27.5523 77.535 27.3798 77.51C27.2598 77.51 27.1698 77.32 27.0698 77.23C27.1598 77.14 27.2398 77.01 27.3498 76.96C27.5154 76.909 27.6868 76.8788 27.8598 76.87C30.27 76.6181 32.6572 76.1801 34.9998 75.56C37.4798 74.88 39.9998 74.27 42.4598 73.64C42.6452 73.5858 42.8368 73.5555 43.0298 73.55C43.1598 73.55 43.3598 73.62 43.3998 73.71C43.4398 73.8 43.2598 73.96 43.1198 74C42.3898 74.22 41.6398 74.41 40.9098 74.66C38.0272 75.5632 35.1 76.3175 32.1398 76.92C30.7398 77.23 29.3098 77.36 27.8898 77.58L27.8998 77.51Z" fill="black"/>
<path d="M20.9396 68.08C20.7938 68.0617 20.6581 67.9961 20.5533 67.8931C20.4485 67.7901 20.3804 67.6555 20.3596 67.51C20.014 66.4489 19.7367 65.3666 19.5296 64.27C19.0572 60.7562 18.3625 57.2759 17.4496 53.85C17.3196 53.36 17.2396 52.85 17.1396 52.37C17.1396 52.18 17.1396 51.98 17.3196 51.96C17.4996 51.94 17.5896 52.12 17.6196 52.24C18.4178 54.7864 19.0656 57.3776 19.5596 60C19.8296 61.87 20.0996 63.73 20.3996 65.59C20.4996 66.21 20.7096 66.81 20.8596 67.42C20.8987 67.6383 20.9254 67.8587 20.9396 68.08Z" fill="black"/>
<path d="M23.0001 73.9C22.9401 73.72 22.8301 73.56 22.8601 73.44C22.9408 73.1749 23.0515 72.92 23.1901 72.68C24.5722 69.9818 26.1602 67.3941 27.9401 64.94L29.4001 62.94C29.5136 62.7848 29.6521 62.6496 29.8101 62.54C29.8535 62.518 29.9014 62.5066 29.9501 62.5066C29.9987 62.5066 30.0467 62.518 30.0901 62.54C30.1218 62.5765 30.1438 62.6202 30.1543 62.6674C30.1648 62.7145 30.1633 62.7636 30.1501 62.81C30.1053 62.944 30.0376 63.0692 29.9501 63.18C29.2001 64.34 28.4801 65.52 27.6801 66.65C26.1501 68.81 24.8701 71.12 23.5201 73.39C23.4529 73.5158 23.376 73.6362 23.2901 73.75C23.2001 73.78 23.1101 73.8 23.0001 73.9Z" fill="black"/>
<path d="M36.87 66.31C37.0218 66.3535 37.1641 66.4247 37.29 66.52C38.3296 67.4009 39.638 67.9017 41 67.94C43.0835 68.2061 45.1961 67.766 47 66.69C48.0209 66.1439 48.9827 65.4937 49.87 64.75C49.9293 64.689 50.0009 64.6413 50.08 64.61C50.17 64.61 50.31 64.61 50.35 64.61C50.3847 64.7001 50.3847 64.7999 50.35 64.89C50.2966 64.9804 50.2251 65.0587 50.14 65.12C48.6473 66.4936 46.9015 67.5635 45 68.27C43.7335 68.6998 42.3824 68.8198 41.06 68.62C40.35 68.53 39.64 68.41 38.94 68.25C38.1354 68.0432 37.4281 67.5622 36.94 66.89C36.8547 66.7503 36.7907 66.5986 36.75 66.44L36.87 66.31Z" fill="black"/>
<path d="M64.85 80.23C64.6383 80.3559 64.4178 80.4662 64.19 80.56C62.91 80.96 61.62 81.36 60.32 81.72C59.1863 82.0764 58.0347 82.3734 56.87 82.61C55.3722 82.8609 53.8335 82.6481 52.46 82C52.2546 81.9001 52.0684 81.7647 51.91 81.6C51.83 81.51 51.83 81.33 51.79 81.19C51.93 81.19 52.09 81.1 52.21 81.19C52.59 81.31 52.96 81.49 53.34 81.62C54.8742 82.1478 56.535 82.1828 58.09 81.72C60.09 81.15 62.17 80.6 64.21 80.05C64.2639 80.0198 64.3231 80.0005 64.3844 79.9932C64.4458 79.9859 64.5079 79.9907 64.5673 80.0074C64.6268 80.0241 64.6823 80.0524 64.7308 80.0906C64.7793 80.1288 64.8198 80.1762 64.85 80.23Z" fill="black"/>
<path d="M56.9997 42.86C57.0997 43.35 56.7497 43.35 56.5397 43.43C55.3097 43.94 54.0797 44.43 52.8397 44.92C51.5997 45.41 50.0897 46.05 48.6897 46.54C47.8236 46.8149 46.9421 47.0386 46.0497 47.21C45.8103 47.2351 45.569 47.2351 45.3297 47.21C45.2097 46.8 45.4797 46.73 45.7297 46.66C46.3473 46.5306 46.9581 46.3704 47.5597 46.18C49.2297 45.58 50.8797 44.91 52.5597 44.29C53.8297 43.82 55.1197 43.38 56.4097 42.93C56.6046 42.8939 56.8017 42.8705 56.9997 42.86Z" fill="black"/>
<path d="M61.3596 17.65C61.6496 17.74 61.6496 17.91 61.5596 18.08C61.4253 18.3455 61.2751 18.6026 61.1096 18.85C59.9996 20.46 58.7796 22 57.6896 23.69C56.6896 25.19 55.6896 26.69 54.5696 28.1C54.5208 28.1523 54.4773 28.2092 54.4396 28.27C54.3196 28.41 54.1896 28.62 53.9696 28.45C53.7496 28.28 53.8896 28.1 53.9696 27.93C54.3096 27.43 54.6696 26.93 54.9696 26.43C55.2696 25.93 55.7996 25.3 56.1496 24.69C57.5796 22.493 59.1251 20.3733 60.7796 18.34C60.9996 18.11 61.1996 17.87 61.3596 17.65Z" fill="black"/>
<path d="M53.4899 14.58L55.4099 14.86C56.0173 14.9727 56.6447 14.8995 57.2099 14.65C57.537 14.4929 57.8294 14.2719 58.0699 14C58.2556 13.8008 58.4851 13.6475 58.7402 13.5521C58.9952 13.4566 59.269 13.4217 59.5399 13.45C59.6448 13.4397 59.7503 13.4643 59.8399 13.52C59.887 13.5524 59.9271 13.5938 59.9581 13.6419C59.989 13.6899 60.01 13.7437 60.0199 13.8C60.0199 13.86 59.9099 13.97 59.8299 14C59.6676 14.0662 59.495 14.1034 59.3199 14.11C59.1623 14.0993 59.0045 14.1286 58.8612 14.195C58.7179 14.2614 58.5936 14.3629 58.4999 14.49C58.1342 14.9303 57.6584 15.2659 57.1209 15.4627C56.5834 15.6594 56.0034 15.7102 55.4399 15.61C54.7799 15.56 54.1299 15.46 53.4399 15.38C53.3018 15.3553 53.1595 15.3694 53.0289 15.4206C52.8983 15.4717 52.7844 15.5581 52.6999 15.67C52.0855 16.341 51.2786 16.8056 50.3899 17C50.3199 17.0184 50.2467 17.0208 50.1757 17.0069C50.1047 16.9931 50.0378 16.9634 49.9799 16.92C49.8399 16.74 49.9799 16.58 50.1399 16.49C50.2999 16.4 50.7899 16.16 51.1399 15.96C51.5391 15.7118 51.9171 15.4308 52.2699 15.12C52.4244 14.95 52.6128 14.8142 52.8228 14.7212C53.0329 14.6282 53.2601 14.5801 53.4899 14.58Z" fill="black"/>
<path d="M26.1297 84.62C26.2411 84.7653 26.3289 84.9273 26.3897 85.1C26.4797 85.66 26.5397 86.24 26.5997 86.81C26.6597 87.38 26.6797 87.71 26.7197 88.21C27.8397 88.48 27.9797 89.55 28.4597 90.46L29.2297 89.26C29.5645 88.701 30.0902 88.2819 30.7097 88.08C30.9271 88.0158 31.1531 87.9855 31.3797 87.99C31.5997 87.99 31.6897 88.13 31.6397 88.35C31.6397 88.35 31.6397 88.42 31.5597 88.42C31.1327 88.5114 30.7314 88.6971 30.3854 88.9636C30.0394 89.23 29.7573 89.5705 29.5597 89.96C29.4193 90.2015 29.2657 90.4352 29.0997 90.66C28.6897 91.23 28.2097 91.24 27.7997 90.66C27.633 90.4149 27.4986 90.1494 27.3997 89.87C27.3312 89.6495 27.2164 89.4462 27.0629 89.2738C26.9094 89.1013 26.7208 88.9636 26.5097 88.87C26.3704 88.8101 26.2501 88.7132 26.162 88.5898C26.0738 88.4664 26.0212 88.3212 26.0097 88.17C25.8997 87.17 25.8097 86.08 25.7397 85.04C25.7397 84.91 25.8597 84.78 25.9197 84.65L26.1297 84.62Z" fill="black"/>
<path d="M6.8598 38.4C6.6398 38.62 6.4198 38.85 6.1798 39.05C6.11189 39.0899 6.05282 39.1432 6.00619 39.2067C5.95956 39.2701 5.92634 39.3424 5.90856 39.4192C5.89078 39.4959 5.88882 39.5754 5.90278 39.653C5.91675 39.7305 5.94636 39.8043 5.9898 39.87C6.14225 40.1386 6.20865 40.4476 6.18004 40.7551C6.15143 41.0627 6.02919 41.3541 5.8298 41.59L5.3998 42.12L4.9998 42.6C5.30858 42.8345 5.55935 43.1368 5.73274 43.4835C5.90613 43.8303 5.9975 44.2123 5.9998 44.6C5.9998 44.94 5.9398 45.28 5.9098 45.6H5.7798C5.6998 45.53 5.5698 45.47 5.5498 45.39C5.48239 45.1355 5.44876 44.8733 5.4498 44.61C5.46519 44.3558 5.41968 44.1016 5.31707 43.8686C5.21445 43.6355 5.05768 43.4303 4.8598 43.27C4.7998 43.27 4.7598 43.17 4.7098 43.12C4.63692 43.0492 4.57899 42.9644 4.53943 42.8708C4.49987 42.7772 4.47949 42.6766 4.47949 42.575C4.47949 42.4734 4.49987 42.3728 4.53943 42.2792C4.57899 42.1856 4.63692 42.1008 4.7098 42.03L5.3798 41.22C5.51807 41.0724 5.60834 40.8864 5.63869 40.6864C5.66904 40.4864 5.63804 40.282 5.5498 40.1C5.2198 39.22 5.2898 39.04 5.9698 38.41C6.33312 38.0682 6.66759 37.6969 6.9698 37.3C7.20622 36.9827 7.37446 36.6198 7.46395 36.2344C7.55344 35.8489 7.56224 35.4491 7.4898 35.06C7.4898 35 7.4898 34.91 7.4898 34.86C7.55272 34.7489 7.62288 34.642 7.6998 34.54C7.8098 34.61 7.9898 34.67 8.0098 34.76C8.06515 35.1717 8.06179 35.5892 7.9998 36C7.95311 36.667 7.72106 37.3078 7.3298 37.85C7.29621 37.9091 7.27256 37.9733 7.2598 38.04L6.8598 38.4Z" fill="black"/>
<path d="M32.9997 51.49C32.6597 51.59 32.5797 51.4 32.5297 51.21C32.4497 50.8634 32.3797 50.5034 32.3197 50.13C32.1997 49.29 32.0697 48.44 31.9697 47.6C31.8697 46.76 31.7197 45.72 31.6997 44.79C31.6997 43.11 31.6997 41.43 31.6997 39.79C31.6987 39.5997 31.7291 39.4105 31.7897 39.23C31.7897 39.14 31.9497 39.08 32.0297 39.02C32.0897 39.11 32.1997 39.2 32.2097 39.29C32.2097 40.09 32.2097 40.9 32.2697 41.7C32.3397 43.38 32.3897 45.05 32.4997 46.7C32.5697 47.6 32.7497 48.49 32.8597 49.39C32.9531 49.9234 32.9997 50.46 32.9997 51C33.0095 51.1632 33.0095 51.3268 32.9997 51.49Z" fill="black"/>
<path d="M43.6896 42.85C43.5971 43.0572 43.4902 43.2577 43.3696 43.45C42.4896 44.71 41.5896 45.96 40.7096 47.23C39.8296 48.5 38.7996 50 37.8396 51.36C37.7196 51.53 37.6496 51.86 37.3596 51.72C37.0696 51.58 37.2296 51.27 37.3596 51.08C38.0096 50.08 38.6396 48.96 39.3596 47.95C40.6096 46.2 41.9196 44.49 43.2096 42.77C43.2971 42.6775 43.4135 42.6175 43.5396 42.6C43.5396 42.6 43.6296 42.75 43.6896 42.85Z" fill="black"/>
<path d="M23.6597 69.26C23.6933 69.0464 23.7435 68.8358 23.8097 68.63C24.0307 68.0961 24.295 67.581 24.5997 67.09C26.0797 64.9 27.5997 62.73 29.0897 60.55C29.1777 60.4204 29.2857 60.3057 29.4097 60.21C29.4452 60.1916 29.4846 60.182 29.5247 60.182C29.5647 60.182 29.6041 60.1916 29.6397 60.21C29.6746 60.2437 29.7023 60.2841 29.7212 60.3288C29.7401 60.3734 29.7498 60.4215 29.7497 60.47C29.6925 60.6148 29.6187 60.7524 29.5297 60.88C28.1297 62.99 26.7297 65.08 25.3397 67.19C24.9497 67.79 24.5997 68.41 24.2197 69.02C24.1197 69.15 23.9997 69.38 23.6597 69.26Z" fill="black"/>
<path d="M31.6099 75.52C31.6999 75.07 31.9799 75.06 32.2099 75C34.2099 74.49 36.2099 74 38.2099 73.47C39.2099 73.23 40.0999 72.96 41.0399 72.71C41.0399 72.71 41.1099 72.71 41.1399 72.71L41.4899 72.82C41.4411 72.9369 41.3735 73.045 41.2899 73.14C41.1713 73.2159 41.0436 73.2764 40.9099 73.32C38.2799 74.16 35.6399 74.96 32.9099 75.54C32.654 75.6018 32.3928 75.6387 32.1299 75.65C31.9541 75.6172 31.7804 75.5737 31.6099 75.52Z" fill="black"/>
<path d="M61.9997 78.08C61.8897 78.08 61.7797 78.21 61.6797 78.2C61.4731 78.1688 61.2692 78.122 61.0697 78.06L53.7997 76.06C53.4548 75.9332 53.1204 75.7793 52.7997 75.6C52.6695 75.5144 52.5629 75.3975 52.4897 75.26C52.4644 75.2157 52.4546 75.1642 52.4618 75.1137C52.469 75.0631 52.4928 75.0164 52.5294 74.9809C52.5661 74.9454 52.6135 74.9231 52.6643 74.9175C52.715 74.9119 52.7661 74.9233 52.8097 74.95C54.8097 75.95 57.0697 76.26 59.1897 76.95C59.9997 77.22 60.8197 77.46 61.6297 77.73C61.78 77.7928 61.924 77.8698 62.0597 77.96L61.9997 78.08Z" fill="black"/>
<path d="M37.5697 86C37.4444 86.099 37.2893 86.1528 37.1297 86.1528C36.97 86.1528 36.815 86.099 36.6897 86C34.8369 85.198 33.0794 84.1917 31.4497 83C30.8397 82.53 30.1897 82.12 29.5697 81.67C29.4997 81.67 29.4697 81.54 29.4097 81.47C29.4283 81.4099 29.4602 81.3548 29.503 81.3086C29.5459 81.2625 29.5985 81.2266 29.6571 81.2036C29.7156 81.1805 29.7786 81.1709 29.8414 81.1755C29.9041 81.1801 29.9651 81.1987 30.0197 81.23C30.3408 81.366 30.646 81.537 30.9297 81.74C32.8418 83.284 34.9097 84.6246 37.0997 85.74C37.2624 85.8152 37.4195 85.9021 37.5697 86Z" fill="black"/>
<path d="M61.37 66.62C61.4392 66.6048 61.5108 66.6048 61.58 66.62C61.65 66.62 61.77 66.72 61.76 66.76C61.7574 66.8071 61.7443 66.8531 61.7219 66.8946C61.6994 66.9361 61.668 66.9721 61.63 67C61.4 67.09 61.15 67.12 60.93 67.21C59.54 67.77 58.15 68.35 56.76 68.9C55.76 69.31 54.7 69.67 53.66 70.05C53.5859 70.0902 53.5041 70.1141 53.42 70.12C53.31 70.12 53.16 70.12 53.12 69.99C53.08 69.86 53.12 69.77 53.21 69.69C53.2861 69.6161 53.3786 69.5612 53.48 69.53L60.48 66.78C60.7626 66.697 61.0497 66.6302 61.34 66.58L61.37 66.62Z" fill="black"/>
<path d="M50.3099 31.19C50.2599 31.45 50.4299 31.83 50.0399 31.84C49.6499 31.85 49.7599 31.5 49.7199 31.27C49.5199 30.22 49.3099 29.18 49.1499 28.13C48.9899 27.08 48.8899 26.08 48.7599 25.06C48.7097 24.7288 48.6797 24.3948 48.6699 24.06C48.6699 23.96 48.7899 23.85 48.8599 23.75C48.9499 23.84 49.0999 23.92 49.1199 24.02C49.2699 24.83 49.3999 25.64 49.5399 26.45L50.2299 30.58C50.2599 30.8 50.2799 31 50.3099 31.19Z" fill="black"/>
<path d="M49.3397 44.6C49.2397 44.26 49.4697 44.17 49.6397 44.08C50.0028 43.8735 50.3767 43.6865 50.7597 43.52C52.6097 42.69 54.4697 41.87 56.3197 41.06C56.5497 40.96 56.7997 40.9 57.0197 40.82C57.2297 41.07 57.1497 41.19 56.9497 41.28L56.0997 41.68C54.2797 42.54 52.4697 43.4 50.6497 44.24C50.2595 44.4898 49.8028 44.6153 49.3397 44.6Z" fill="black"/>
<path d="M62.3698 30.57C62.4598 30.98 62.1898 31.03 62.0098 31.11C60.6198 31.73 59.2398 32.36 57.8398 32.94C57.0298 33.28 56.1998 33.54 55.3698 33.81C55.1187 33.8587 54.8649 33.8921 54.6098 33.91L54.5298 33.8C54.5298 33.7 54.6098 33.56 54.6898 33.52C54.7698 33.48 55.1498 33.36 55.3798 33.27L60.6198 31.16C61.0698 30.98 61.5298 30.81 61.9898 30.65C62.1144 30.6145 62.2414 30.5878 62.3698 30.57Z" fill="black"/>
<path d="M58 47.26L58.56 46.91C59.08 46.56 59.64 46.26 60.12 45.91C61.18 45.05 62.19 44.13 63.22 43.24L64.07 42.54C64.22 42.43 64.39 42.37 64.52 42.64C64.45 42.72 64.39 42.82 64.31 42.9C63.01 44.09 61.72 45.3 60.38 46.46C59.8955 46.8264 59.3764 47.1446 58.83 47.41C58.6964 47.4878 58.5395 47.5154 58.3874 47.4879C58.2353 47.4604 58.0979 47.3796 58 47.26Z" fill="black"/>
<path d="M11.3199 68.49C11.5215 68.5527 11.7159 68.6365 11.8999 68.74C12.9599 69.46 13.9999 70.19 15.0499 70.91C15.7099 71.37 16.3899 71.8 17.0499 72.26C17.282 72.4169 17.4995 72.5943 17.6999 72.79C17.798 72.9189 17.8475 73.0782 17.8399 73.24C15.5914 71.9772 13.4478 70.5359 11.4299 68.93C11.3423 68.8471 11.262 68.7567 11.1899 68.66L11.3199 68.49Z" fill="black"/>
<path d="M6.85989 38.4L7.28989 38L7.68989 38.13C7.46989 38.52 7.29989 38.88 7.08989 39.21C7.02099 39.298 6.97719 39.4031 6.9631 39.514C6.94902 39.6249 6.96519 39.7375 7.00989 39.84C7.14255 40.1664 7.19012 40.5212 7.14815 40.871C7.10617 41.2208 6.97601 41.5542 6.76989 41.84C6.71775 41.9167 6.6835 42.0042 6.66965 42.0959C6.65581 42.1876 6.66272 42.2813 6.68989 42.37C6.78989 42.88 6.86989 43.37 6.93989 43.91C6.95193 44.1265 6.95193 44.3435 6.93989 44.56C6.74989 44.41 6.61989 44.36 6.58989 44.27C6.40989 43.58 6.21989 42.89 6.08989 42.19C6.08771 41.9486 6.16501 41.7131 6.30989 41.52C6.46448 41.3076 6.56218 41.0592 6.59368 40.7984C6.62519 40.5376 6.58946 40.2731 6.48989 40.03C6.39973 39.8308 6.36877 39.6099 6.40068 39.3936C6.4326 39.1772 6.52605 38.9747 6.66989 38.81C6.74785 38.6806 6.81156 38.5431 6.85989 38.4Z" fill="black"/>
<path d="M58.2497 15.73C58.3897 16.11 58.1597 16.2 57.9897 16.3C57.2927 16.7036 56.5199 16.9589 55.7197 17.05C55.1897 17.14 54.6497 17.14 54.1097 17.18C53.7297 17.18 53.3397 17.26 52.9597 17.26C52.8867 17.2577 52.8153 17.2384 52.751 17.2037C52.6868 17.169 52.6316 17.1198 52.5897 17.06C52.5097 16.85 52.6997 16.74 52.8697 16.71C53.3137 16.6059 53.765 16.5357 54.2197 16.5C55.4405 16.4768 56.6481 16.2433 57.7897 15.81C57.9397 15.7672 58.0939 15.7404 58.2497 15.73Z" fill="black"/>
<path d="M19.27 39.19C19.61 39.32 19.55 39.52 19.49 39.73C19.27 40.61 19.02 41.48 18.83 42.36C18.64 43.24 18.48 44.36 18.31 45.29C18.31 45.34 18.31 45.39 18.31 45.44C18.31 45.49 18.2 45.83 17.99 45.76C17.923 45.7168 17.8678 45.6577 17.8294 45.5878C17.791 45.518 17.7706 45.4397 17.77 45.36C17.7971 44.7183 17.874 44.0797 18 43.45C18.33 42.1 18.72 40.77 19.09 39.45C19.1394 39.3564 19.1998 39.2691 19.27 39.19Z" fill="black"/>
<path d="M20.9296 60.33C20.9296 60.4 20.8496 60.52 20.7796 60.55C20.7315 60.5598 20.6817 60.5576 20.6347 60.5437C20.5876 60.5297 20.5447 60.5044 20.5096 60.47C20.3942 60.3402 20.3088 60.1866 20.2596 60.02C19.8996 58.67 19.5396 57.32 19.2096 55.96C19.1596 55.76 19.0396 55.39 19.3496 55.33C19.6596 55.27 19.6196 55.64 19.6796 55.86C20.0396 57.15 20.3996 58.45 20.7696 59.74L20.9296 60.33Z" fill="black"/>
<path d="M67.6898 71.74C67.4898 71.74 67.3498 71.86 67.2198 71.83C65.2352 71.4714 63.3057 70.8563 61.4798 70C61.3222 69.9008 61.1718 69.7905 61.0298 69.67C61.2898 69.4 61.4798 69.53 61.6598 69.62C63.3186 70.3465 65.0344 70.9351 66.7898 71.38C67.4098 71.5 67.4198 71.49 67.6898 71.74Z" fill="black"/>
<path d="M28.9998 36.94C28.9198 36.79 28.8398 36.7 28.8398 36.62C28.8581 36.5015 28.8952 36.3867 28.9498 36.28L29.5298 34.87C29.6013 34.653 29.7227 34.4559 29.8842 34.2944C30.0457 34.1328 30.2429 34.0115 30.4598 33.94C30.9102 33.7856 31.2969 33.4868 31.5598 33.09C31.6798 32.92 31.8298 32.62 32.0798 32.79C32.3298 32.96 32.0798 33.22 31.9698 33.4C31.6871 33.8918 31.236 34.2648 30.6998 34.45C30.547 34.4928 30.4065 34.5713 30.29 34.6791C30.1735 34.7869 30.0843 34.9209 30.0298 35.07C29.7998 35.58 29.5398 36.07 29.2798 36.58C29.1999 36.7098 29.106 36.8305 28.9998 36.94Z" fill="black"/>
<path d="M15.0499 42.7C14.9362 42.56 14.8421 42.4052 14.7699 42.24C14.3766 40.7733 13.9965 39.3033 13.6299 37.83C13.6299 37.72 13.7099 37.57 13.7599 37.43C13.8599 37.53 14.0199 37.61 14.0599 37.73C14.4799 39.2633 14.8899 40.7933 15.2899 42.32C15.2899 42.43 15.2899 42.56 15.2299 42.68L15.0499 42.7Z" fill="black"/>
<path d="M62.9999 23.09C62.9199 23.03 62.7799 22.97 62.7399 22.86C62.6999 22.75 62.8199 22.65 62.8999 22.58C62.9816 22.5152 63.0776 22.4706 63.1799 22.45C64.2999 22.11 65.4199 21.78 66.5499 21.45C66.7355 21.3999 66.9279 21.3796 67.1199 21.39C67.1999 21.39 67.2899 21.49 67.3299 21.57C67.3699 21.65 67.2599 21.71 67.2099 21.77C67.1523 21.8086 67.0878 21.8358 67.0199 21.85L63.3999 23L62.9999 23.09Z" fill="black"/>
<path d="M46.4197 68.89C46.2997 68.98 46.1997 69.12 46.0697 69.17C45.2134 69.5216 44.3107 69.7473 43.3897 69.84C42.8497 69.9 42.3097 69.92 41.7697 69.95C41.6516 69.9805 41.5278 69.9805 41.4097 69.95C41.3097 69.95 41.2497 69.79 41.1797 69.71C41.2697 69.64 41.3497 69.53 41.4397 69.52C41.8697 69.52 42.3097 69.43 42.7497 69.42C43.8113 69.3849 44.8622 69.1963 45.8697 68.86C46.0279 68.8236 46.1882 68.7969 46.3497 68.78L46.4197 68.89Z" fill="black"/>
<path d="M57.62 80.62C57.68 81.03 57.43 81.03 57.24 81.09C56.4303 81.3081 55.5806 81.3321 54.76 81.16C54.3658 81.0935 53.9753 81.0067 53.59 80.9C53.4703 80.8807 53.357 80.8327 53.26 80.76C53.18 80.71 53.1 80.56 53.13 80.51C53.1573 80.4617 53.1946 80.4197 53.2395 80.3869C53.2843 80.3542 53.3356 80.3313 53.39 80.32C53.5289 80.3331 53.6663 80.3599 53.8 80.4C54.55 80.54 55.3 80.71 56.05 80.8C56.3863 80.7995 56.7216 80.7627 57.05 80.69L57.62 80.62Z" fill="black"/>
<path d="M36.39 84.52C36.24 84.8 36.07 84.73 35.92 84.62L33.45 82.77C33.3678 82.7052 33.3054 82.6185 33.27 82.52C33.2523 82.4842 33.2432 82.4449 33.2432 82.405C33.2432 82.3651 33.2523 82.3258 33.27 82.29C33.3012 82.2631 33.3382 82.2438 33.378 82.2334C33.4179 82.223 33.4596 82.2218 33.5 82.23C33.5824 82.2558 33.6576 82.3003 33.72 82.36C34.53 83 35.34 83.63 36.15 84.28C36.2377 84.3519 36.3181 84.4323 36.39 84.52Z" fill="black"/>
<path d="M56.9997 64C56.936 64.1708 56.8556 64.3349 56.7597 64.49C56.2097 65.19 55.6497 65.88 55.0797 66.58C55.0221 66.6673 54.938 66.7339 54.8397 66.77C54.7908 66.7783 54.7406 66.7763 54.6924 66.7643C54.6442 66.7523 54.5991 66.7304 54.5597 66.7C54.5419 66.6625 54.5327 66.6215 54.5327 66.58C54.5327 66.5385 54.5419 66.4975 54.5597 66.46C54.6372 66.3249 54.7276 66.1976 54.8297 66.08C55.3997 65.41 55.9697 64.75 56.5497 64.08C56.6533 63.9898 56.7675 63.9126 56.8897 63.85L56.9997 64Z" fill="black"/>
<path d="M32.2197 58.35C31.7097 59.35 31.2197 60.35 30.6797 61.35C30.6797 61.35 30.5397 61.35 30.3497 61.47C30.3366 61.2345 30.3603 60.9983 30.4197 60.77C30.8597 59.95 31.3197 59.15 31.7897 58.35C31.8397 58.27 31.9997 58.26 32.1097 58.22L32.2197 58.35Z" fill="black"/>
<path d="M12.6797 67.93C12.8897 67.57 13.0597 67.77 13.1997 67.87C13.7597 68.25 14.3097 68.65 14.8497 69.06C15.148 69.2709 15.4319 69.5014 15.6997 69.75C15.8997 69.95 15.8797 70 15.6297 70.27L12.6797 67.93Z" fill="black"/>
<path d="M59.9097 18.61C59.6997 18.87 59.5197 19.07 59.3597 19.3L58.0697 21.13C58.0113 21.2377 57.9408 21.3383 57.8597 21.43C57.8237 21.447 57.7844 21.4557 57.7447 21.4557C57.7049 21.4557 57.6656 21.447 57.6297 21.43C57.5958 21.4071 57.5687 21.3755 57.5512 21.3386C57.5336 21.3017 57.5262 21.2607 57.5297 21.22C57.5495 21.0834 57.6009 20.9533 57.6797 20.84C58.2097 20.11 58.7597 19.39 59.3097 18.67C59.3389 18.6188 59.38 18.5752 59.4295 18.5431C59.479 18.511 59.5355 18.4911 59.5942 18.4853C59.6529 18.4794 59.7122 18.4877 59.7671 18.5094C59.8219 18.5311 59.8708 18.5656 59.9097 18.61Z" fill="black"/>
<path d="M30.7501 41.41C30.7501 42.54 30.8501 43.62 30.8901 44.7C30.8901 44.77 30.7901 44.84 30.7101 44.95C30.6101 44.86 30.5001 44.8 30.4601 44.71C30.3987 44.5463 30.3617 44.3745 30.3501 44.2C30.3501 43.45 30.3501 42.69 30.3501 41.94C30.3501 41.71 30.3601 41.41 30.7501 41.41Z" fill="black"/>
<path d="M44.0997 27.54C44.0497 28.03 44.0097 28.54 43.9497 29.01C43.8897 29.48 43.8197 30.01 43.7697 30.56C43.7697 30.73 43.7697 30.95 43.5397 30.96C43.3097 30.97 43.2697 30.76 43.2897 30.58C43.4297 29.58 43.5697 28.66 43.7197 27.71C43.7197 27.62 43.8597 27.55 43.9297 27.47L44.0997 27.54Z" fill="black"/>
<path d="M62.1197 29.47C61.9697 29.55 61.8796 29.62 61.7696 29.67L59.4296 30.67C59.3369 30.7216 59.2399 30.7651 59.1396 30.8C59.0989 30.7975 59.0591 30.7864 59.0229 30.7675C58.9867 30.7485 58.9549 30.7221 58.9296 30.69C58.912 30.6542 58.9028 30.6149 58.9028 30.575C58.9028 30.5351 58.912 30.4958 58.9296 30.46C59.0129 30.3705 59.111 30.2961 59.2197 30.24C59.9662 29.7836 60.7793 29.4462 61.6296 29.24C61.8496 29.23 61.8497 29.23 62.1197 29.47Z" fill="black"/>
<path d="M9.53963 45C9.62963 45.08 9.72963 45.12 9.73963 45.19C10.02 46.0161 10.4468 46.7851 10.9996 47.46C11.0942 47.566 11.1748 47.6836 11.2396 47.81C11.2396 47.88 11.2396 48.03 11.2396 48.07C11.2396 48.11 11.0596 48.07 10.9696 48.07C10.8796 48.07 10.8496 47.99 10.8096 47.94C10.2425 47.2484 9.78699 46.4723 9.45963 45.64C9.40677 45.5377 9.38612 45.4218 9.4004 45.3076C9.41468 45.1934 9.46322 45.0861 9.53963 45Z" fill="black"/>
<path d="M65.46 64.36C65.8782 63.4247 66.3944 62.5364 67 61.71H67.16C67.16 61.83 67.25 61.99 67.16 62.08C66.78 62.8 66.39 63.52 65.99 64.23C65.92 64.35 65.74 64.4 65.61 64.48L65.46 64.36Z" fill="black"/>
<path d="M29.0001 89.33C28.8801 89.33 28.7301 89.33 28.6501 89.2C28.1601 88.7 27.6501 88.2 27.2101 87.68C27.1201 87.59 27.1301 87.42 27.1001 87.28C27.2301 87.28 27.3901 87.28 27.4701 87.28C28.1524 87.7642 28.7081 88.4056 29.0901 89.15L29.0001 89.33Z" fill="black"/>
<path d="M59.46 78.87C59.3175 78.8927 59.1724 78.8927 59.03 78.87L57 78.06C57 78.06 56.91 78.06 56.9 78.06C56.89 78.06 56.79 77.87 56.73 77.77C56.84 77.77 56.96 77.6 57.03 77.63C57.83 77.94 58.61 78.26 59.39 78.63C59.42 78.59 59.42 78.72 59.46 78.87Z" fill="black"/>
<path d="M66.28 28.88C66.28 29.39 65.86 29.36 65.62 29.44C63.79 30.08 63.79 30.07 63.46 29.84C64.3411 29.3679 65.2938 29.0436 66.28 28.88Z" fill="black"/>
<path d="M57.5098 42.1C57.6772 41.9564 57.858 41.8291 58.0498 41.72C58.5498 41.53 59.0498 41.35 59.5598 41.19C59.665 41.1657 59.7745 41.1657 59.8798 41.19C59.8798 41.29 59.8798 41.46 59.7598 41.48C59.1398 41.74 58.4998 41.98 57.8698 42.21C57.8098 42.27 57.7198 42.19 57.5098 42.1Z" fill="black"/>
<path d="M31.2097 34.76C31.2018 34.906 31.1644 35.0489 31.0997 35.18C30.69 35.6625 30.408 36.2402 30.2797 36.86C30.2797 36.94 30.1497 37.01 30.0597 37.11C29.9572 36.646 30.0151 36.1609 30.224 35.734C30.4329 35.3072 30.7804 34.9638 31.2097 34.76Z" fill="black"/>
<path d="M40.8798 44.54C40.8798 44.64 40.8798 44.76 40.8198 44.83C40.4498 45.34 40.0798 45.83 39.6798 46.32C39.6198 46.41 39.4598 46.42 39.3498 46.47C39.3498 46.36 39.2598 46.22 39.2998 46.15C39.6168 45.4744 40.111 44.8972 40.7298 44.48L40.8798 44.54Z" fill="black"/>
<path d="M10.6 67.87C9.90998 67.87 9.73998 67.19 9.22998 66.82C9.38998 66.76 9.50998 66.68 9.54998 66.71C10.0027 66.9895 10.3669 67.3917 10.6 67.87Z" fill="black"/>
</svg>
