<svg width="75" height="89" viewBox="0 0 75 89" fill="none" xmlns="http://www.w3.org/2000/svg">
<path d="M16.5001 84.9C17.0001 85.8 17.2834 86.5833 17.3501 87.25L45.2501 88.1C44.6501 87.9333 44.1334 87.7167 43.7001 87.45C42.8001 86.9167 42.7334 86.3833 43.5001 85.85L42.2501 86.25L40.6001 85.1L40.0501 86.5L39.8001 86.3C39.5001 86.1333 38.9334 85.4 38.1001 84.1L36.3501 86.1L38.3501 81.6L38.3001 81.65L33.5001 86.35L34.3501 81.6L31.8501 84.5L32.3501 79.85L30.5501 82.25C29.4501 84.05 29.1334 85.4167 29.6001 86.35L26.8501 83L25.3501 81.25V85.6L22.5001 83.75L23.0001 86C22.5668 85.9667 22.0668 85.8 21.5001 85.5C20.4334 84.9333 19.6334 83.9667 19.1001 82.6L18.6501 83.6C18.4168 84.4 18.4501 85.2167 18.7501 86.05C18.2501 85.0167 17.2501 84.25 15.7501 83.75L16.5001 84.9ZM37.9001 17.8L37.7501 17.5L37.1001 23.8L39.5001 30.05C41.7001 35.35 42.5668 40.95 42.1001 46.85C41.5001 54.65 39.9334 61.8667 37.4001 68.5C34.5001 76.0667 30.9834 80.9 26.8501 83L29.6001 86.35C29.1334 85.4167 29.4501 84.05 30.5501 82.25L32.3501 79.85L31.8501 84.5L34.3501 81.6L33.5001 86.35L38.3001 81.65L38.3501 81.6C40.5168 78.9667 42.7334 74.15 45.0001 67.15L47.6501 57.4C49.0501 49.2 48.8334 41.3167 47.0001 33.75C46.4001 31.2833 45.6834 29.0667 44.8501 27.1L43.6001 24.75L38.3501 18.35L37.9001 17.8ZM37.6001 17.5H37.4501L29.0501 22C28.1501 23.2667 27.1501 24.8167 26.0501 26.65C23.8501 30.2833 22.2001 33.45 21.1001 36.15L24.3501 34.9L20.5001 43.75L23.2501 40.15L22.7001 45.75L23.5001 48.1C24.3001 50.1667 25.6668 52.3833 27.6001 54.75C27.2334 53.3833 26.9168 51.9333 26.6501 50.4C26.0834 47.3 26.0668 45.2833 26.6001 44.35L28.8501 49.1L28.1001 39L30.5001 44.1L29.8501 34.1L32.5001 39.6L32.2501 29.75L34.2501 34.5L33.3501 25.75L37.0001 30.25L37.1001 23.8L37.7501 17.5H37.6001ZM37.4501 17.5H37.6001L27.6001 12.25L28.6001 15L24.5501 14.8L16.0001 15.5L20.7501 17.75L12.6001 19.65L16.6001 21.5C15.2001 21.6333 13.6668 21.8833 12.0001 22.25C8.7001 22.95 6.48343 23.8333 5.3501 24.9H10.7501C9.61676 25.6 8.43343 26.4333 7.2001 27.4C4.76676 29.3333 3.4001 30.95 3.1001 32.25L7.1001 29.9L4.3001 33.25C2.36676 36.1167 1.21676 39.1667 0.850098 42.4L5.1001 36.4L4.6001 42.65L8.8501 34V38.65L11.6001 32.15L11.5001 36.25L15.8501 28.5L15.5001 34.5L19.2501 27.4L19.6001 31.5L22.2501 25L23.6001 29.15L25.7501 22L26.3501 24.15L29.0501 22L37.4501 17.5ZM37.6001 17.5L37.4501 15.4V15.15L37.8501 7.9L34.7501 10.5L30.6001 6L31.3501 8.9L26.1001 4.15L26.3501 6.4L20.7501 2.75L21.7501 4.5L12.7501 0.75L15.6001 3.5L11.5501 2.75H11.5001L11.1001 2.65H11.0001C9.73343 2.68333 8.53343 2.86667 7.4001 3.2C4.5001 3.96667 2.46676 5.45 1.3001 7.65L10.0001 5.75L6.1001 8.5L14.1001 8.65L11.3501 10.15L18.8501 10L15.8501 12.25L23.3501 12.65L17.6001 14.15L24.5501 14.8L28.6001 15L27.6001 12.25L37.6001 17.5ZM72.7501 12.25L69.3501 8.5L74.0001 7.9L69.3501 6.5L71.6001 5.4C70.2001 4.76667 68.1834 4.65 65.5501 5.05L62.0001 5.9L64.2501 2.9C62.9501 2.86667 61.2501 3.26667 59.1501 4.1L56.3501 5.4L57.1001 3C55.3668 3.46667 53.6334 4.38333 51.9001 5.75L49.8501 7.65L51.5001 4.5C50.1334 4.86667 48.4001 5.86667 46.3001 7.5L43.5001 9.9L44.1001 6.75C42.5334 7.28333 40.9001 8.85 39.2001 11.45L37.4501 15.4L37.6001 17.5L37.7501 17.35H37.9001L49.6001 14.25L48.2501 12.65L56.1001 14.15L53.6001 11.5L62.2501 13.65L60.6001 10.75L69.3501 14.5L65.2501 10.9C67.1834 10.9 69.6834 11.35 72.7501 12.25ZM72.1001 26.25C71.6001 25.4833 70.9334 24.7333 70.1001 24C68.4334 22.4667 66.7168 21.7167 64.9501 21.75L67.7501 20.25C67.0168 19.7167 66.1168 19.2167 65.0501 18.75C63.9834 18.2833 62.6334 18.1167 61.0001 18.25L62.6001 17.15L51.0001 15.7L37.7501 17.5L37.9001 17.8L38.3501 18.35L43.6001 24.75L44.2501 20.65L49.5001 27.65L48.6001 22.25L50.6501 24.6C52.1501 26.4333 53.1334 28.0333 53.6001 29.4L53.5001 24.75L55.7001 26.25C57.3668 27.6167 58.7168 29.25 59.7501 31.15L58.2501 26L64.2501 31.65L63.2501 28.15L69.0001 33.65L67.3501 29.65L72.2501 31.9L67.8501 26.15L72.1001 26.25Z" fill="black"/>
<path d="M43.6001 24.75L44.2501 20.65L49.5001 27.65L48.6001 22.25L50.6501 24.6C52.1501 26.4333 53.1334 28.0333 53.6001 29.4L53.5001 24.75L55.7001 26.25C57.3668 27.6167 58.7168 29.25 59.7501 31.15L58.2501 26L64.2501 31.65L63.2501 28.15L69.0001 33.65L67.3501 29.65L72.2501 31.9L67.8501 26.15L72.1001 26.25C71.6001 25.4833 70.9334 24.7333 70.1001 24C68.4334 22.4667 66.7168 21.7167 64.9501 21.75H64.3501M11.5501 2.75L15.6001 3.5L12.7501 0.75L21.7501 4.5L20.7501 2.75L26.3501 6.4L26.1001 4.15L31.3501 8.9L30.6001 6L34.7501 10.5L37.8501 7.9L37.4501 15.15V15.4L39.2001 11.45C40.9001 8.85 42.5334 7.28333 44.1001 6.75L43.5001 9.9L46.3001 7.5C48.4001 5.86667 50.1334 4.86667 51.5001 4.5L49.8501 7.65L51.9001 5.75C53.6334 4.38333 55.3668 3.46667 57.1001 3L56.3501 5.4L59.1501 4.1C61.2501 3.26667 62.9501 2.86667 64.2501 2.9L62.0001 5.9L65.5501 5.05C68.1834 4.65 70.2001 4.76667 71.6001 5.4L69.3501 6.5L74.0001 7.9L69.3501 8.5L72.7501 12.25C69.6834 11.35 67.1834 10.9 65.2501 10.9L69.3501 14.5L60.6001 10.75L62.2501 13.65L53.6001 11.5L56.1001 14.15L48.2501 12.65L49.6001 14.25L37.9001 17.35L37.7501 17.4V17.5L51.0001 15.7L53.0001 15.2M61.0001 18.25L62.6001 17.15L51.0001 15.7M13.2501 4.65C18.1168 4.65 23.6334 6.8 29.8001 11.1C32.9001 13.2333 35.5001 15.3667 37.6001 17.5L37.4501 15.4M29.0501 22L37.4501 17.5H37.6001L27.6001 12.25L28.6001 15L24.5501 14.8L16.0001 15.5L20.7501 17.75L12.6001 19.65L16.6001 21.5C15.2001 21.6333 13.6668 21.8833 12.0001 22.25C8.7001 22.95 6.48343 23.8333 5.3501 24.9H10.7501C9.61676 25.6 8.43343 26.4333 7.2001 27.4C4.76676 29.3333 3.4001 30.95 3.1001 32.25L7.1001 29.9L4.3001 33.25C2.36676 36.1167 1.21676 39.1667 0.850098 42.4L5.1001 36.4L4.6001 42.65L8.8501 34V38.65L11.6001 32.15L11.5001 36.25L15.8501 28.5L15.5001 34.5L19.2501 27.4L19.6001 31.5L22.2501 25L23.6001 29.15L25.7501 22L26.3501 24.15L29.0501 22ZM29.0501 22C28.1501 23.2667 27.1501 24.8167 26.0501 26.65C23.8501 30.2833 22.2001 33.45 21.1001 36.15L24.3501 34.9L20.5001 43.75L23.2501 40.15L22.7001 45.75L23.5001 48.1C24.3001 50.1667 25.6668 52.3833 27.6001 54.75C27.2334 53.3833 26.9168 51.9333 26.6501 50.4C26.0834 47.3 26.0668 45.2833 26.6001 44.35L28.8501 49.1L28.1001 39L30.5001 44.1L29.8501 34.1L32.5001 39.6L32.2501 29.75L34.2501 34.5L33.3501 25.75L37.0001 30.25L37.1001 23.8L37.7501 17.5H37.6001L37.7501 17.35H37.9001L40.6501 15.4C43.1834 13.7667 45.7168 12.35 48.2501 11.15C56.4834 7.18333 63.2668 5.95 68.6001 7.45M37.7501 17.35V17.4L37.6001 17.5M37.7501 17.5L37.9001 17.8L38.3501 18.35L46.7501 18.85C53.6168 19.7833 59.4834 21.8 64.3501 24.9M43.6001 24.75L44.8501 27.1C45.6834 29.0667 46.4001 31.2833 47.0001 33.75C48.8334 41.3167 49.0501 49.2 47.6501 57.4L45.0001 67.15C42.7334 74.15 40.5168 78.9667 38.3501 81.6L36.3501 86.1L38.1001 84.1L39.2501 83.5M37.1001 23.8L39.5001 30.05C41.7001 35.35 42.5668 40.95 42.1001 46.85C41.5001 54.65 39.9334 61.8667 37.4001 68.5C34.5001 76.0667 30.9834 80.9 26.8501 83L29.6001 86.35C29.1334 85.4167 29.4501 84.05 30.5501 82.25L32.3501 79.85L31.8501 84.5L34.3501 81.6L33.5001 86.35L38.3001 81.65L38.3501 81.6M61.0001 18.25L58.2501 19.2L58.0001 19.25M64.9501 21.75L67.7501 20.25C67.0168 19.7167 66.1168 19.2167 65.0501 18.75C63.9834 18.2833 62.6334 18.1167 61.0001 18.25M38.3501 18.35L43.6001 24.75M37.0001 18.4C34.7668 20.2667 32.6001 22.7 30.5001 25.7C26.3334 31.7667 24.6668 37.7333 25.5001 43.6M11.5501 2.75H11.5001L11.1001 2.65H11.0001C9.73343 2.68333 8.53343 2.86667 7.4001 3.2C4.5001 3.96667 2.46676 5.45 1.3001 7.65L10.0001 5.75L6.1001 8.5L14.1001 8.65L11.3501 10.15L18.8501 10L15.8501 12.25L23.3501 12.65L17.6001 14.15L24.5501 14.8M11.1001 2.65L11.5501 2.75M11.0001 2.65L7.6001 2M35.9001 17.5C32.9001 17.5 29.4668 18.0833 25.6001 19.25C17.8334 21.5833 11.7668 25.65 7.4001 31.45M22.7001 45.75L22.3501 49.4M26.8501 83L25.3501 81.25V85.6L22.5001 83.75L23.0001 86C22.5668 85.9667 22.0668 85.8 21.5001 85.5C20.4334 84.9333 19.6334 83.9667 19.1001 82.6L18.6501 83.6C18.4168 84.4 18.4501 85.2167 18.7501 86.05C18.2501 85.0167 17.2501 84.25 15.7501 83.75L16.5001 84.9C17.0001 85.8 17.2834 86.5833 17.3501 87.25L45.2501 88.1C44.6501 87.9333 44.1334 87.7167 43.7001 87.45C42.8001 86.9167 42.7334 86.3833 43.5001 85.85L42.2501 86.25L40.6001 85.1L40.0501 86.5L39.8001 86.3C39.5001 86.1333 38.9334 85.4 38.1001 84.1" stroke="black" stroke-linecap="round" stroke-linejoin="round"/>
</svg>
