<svg width="22" height="30" viewBox="0 0 22 30" fill="none" xmlns="http://www.w3.org/2000/svg">
<path d="M21 12H20V8C20 6.35 18.65 5 17 5H15.82H4.18H3C1.35 5 0 6.35 0 8V22C0 23.65 1.35 25 3 25H4.18H15.82H17C18.65 25 20 23.65 20 22V18H21C21.5522 18 22 17.5527 22 17V13C22 12.4473 21.5522 12 21 12ZM16 15H13.62L10.89 20.45C10.72 20.79 10.38 21 10 21C9.96 21 9.91 21 9.87 20.99C9.44 20.93 9.1 20.62 9.02 20.2L7.68 13.5L6.93 15.37C6.78 15.75 6.41 16 6 16H4C3.45 16 3 15.55 3 15C3 14.45 3.45 14 4 14H5.32L7.07 9.63C7.24 9.22 7.65 8.96 8.09 9C8.53 9.04 8.89 9.37 8.98 9.8L10.41 16.95L12.11 13.55C12.27 13.21 12.62 13 13 13H16C16.55 13 17 13.45 17 14C17 14.55 16.55 15 16 15Z" fill="white"/>
<path d="M13.3801 3H15.4201L14.9801 0.8C14.8901 0.34 14.4801 0 14.0001 0H6.00008C5.52008 0 5.11008 0.34 5.02008 0.8L4.58008 3H6.62008H13.3801Z" fill="white"/>
<path d="M6.62008 27H4.58008L5.02008 29.2C5.11008 29.66 5.52008 30 6.00008 30H14.0001C14.4801 30 14.8901 29.66 14.9801 29.2L15.4201 27H13.3801H6.62008Z" fill="white"/>
</svg>
